<?xml version="1.0" encoding="utf-8"?>
<!-- Generator: Adobe Illustrator 22.0.1, SVG Export Plug-In . SVG Version: 6.00 Build 0)  -->
<svg version="1.1" id="Camada_1" xmlns="http://www.w3.org/2000/svg" xmlns:xlink="http://www.w3.org/1999/xlink" x="0px" y="0px"
	 viewBox="0 0 1366 768" style="enable-background:new 0 0 1366 768;" xml:space="preserve">
<style type="text/css">
	.st0{display:none;fill:#269DC6;}
	.st1{display:none;fill:#29ABE2;}
	.st2{fill:#F4F7BF;}
	.st3{fill:#FF9370;}
	.st4{fill:#FF561F;}
	.st5{fill:#8D1CFF;}
	.st6{fill:#470E80;}
	.st7{fill:#6A15BF;}
	.st8{fill:#8C1AFF;}
	.st9{fill:#FFB096;}
	.st10{fill:#4D4D4D;}
	.st11{opacity:0.6;fill:#FFFFFF;enable-background:new    ;}
	.st12{fill:#FF9F80;}
	.st13{fill:#FFF3F0;}
	.st14{opacity:0.1;enable-background:new    ;}
	.st15{fill:#FF926E;}
	.st16{opacity:0.2;enable-background:new    ;}
	.st17{fill:#AABF00;}
	.st18{fill:#FFFF00;}
	.st19{opacity:0.3;enable-background:new    ;}
	.st20{opacity:0.3;fill:#AABF00;enable-background:new    ;}
	.st21{fill:none;}
	.st22{fill:#FFFFFF;}
	.st23{fill:#E0FBF5;}
	.st24{fill:#E3FBF6;}
	.st25{fill:#00DFAA;}
	.st26{fill:#61EBCA;}
	.st27{opacity:0.2;}
	.st28{fill:#6EEDCF;}
	.st29{display:none;}
	.st30{display:inline;fill:#FFFFFF;}
	.st31{display:inline;}
	.st32{fill:#D4DF00;}
</style>
<g id="ENFEITES">
	<polygon class="st0" points="1450.7,583.2 702,437.7 702,-69 1450.7,76.5 	"/>
	<polygon class="st1" points="-46.6,585.4 702,439.8 702,-66.8 -46.6,78.7 	"/>
	<path class="st2" d="M378.9,750.7C180.4,623.6,174.9,382.6,275,339.1c55-23.9,155.4,5.9,197.3,18.4c16.5,4.9,88.9,27.3,153.9,80.8
		c135.3,111.6,159.1,293.5,103.9,309.8c-56.6,16.8-241.7-126.8-267.6-288.9c-6.7-42.2-19.9-125.2,56.7-185.1
		c97-75.7,295.1-80.9,401.2-28c215.7,107.7,95.3,478.3-63.2,504.1c-117.2,19-329-138.2-291-258.9
		c44.5-141.6,427.8-217.6,581.6-120.6c130.1,82,80,278.1-66.6,381.5C897,882.4,561.1,867.2,378.9,750.7z"/>
</g>
<g id="PESCOÇO">
	<path class="st3" d="M863.9,346.1c-10.2,8.9-17.6,4.9-68.7,7.3c-43.6,2.1-55.6,5.8-60.7-2.1c-6.9-10.3,12.4-22,17.3-58.1
		c2.2-15.7,2.1-38.9,0.8-53.7c-0.4-5.1-1.6-19.6,4.8-35.9c0.5-1.2,1-2.6,1.6-3.8c12.1-22.1,53.4-32.3,69.4-18
		c12.8,11.4,1,30.9,9.5,54.3c1.2,3.4,2.9,6.9,5.2,10.4c1.1,1.6,2.2,3.2,3.2,4.5c0.7,0.8,1.4,1.6,2.1,2.5c-1.6,4.9-3.6,9.3-5.2,12.8
		v0.1c-5.8,12.6-12.8,22.1-18.3,28.6c5.6,9.2,11.3,18.5,16.9,27.8c15.9-14.8,26-32.7,28.6-49.9c0.7,1.1,1.5,2.3,2.2,3.7
		C883.8,297.7,881.6,330.7,863.9,346.1z"/>
</g>
<g id="roupa">
	<g id="Camada_9">
		<g>
			<path class="st4" d="M725.8,553c6.6,31.9,103,93.4,156.4,66.5c70.5-35.6,74.1-227.5-10.7-275.1c-23.4-13.1-51.5-10-77.4-11
				c-17.3-0.7-53.4-17.7-66.8-3.7c-12.4,12.8,13.7,39.8,11.8,96.3C738.3,450.3,737.8,467.1,725.8,553z"/>
		</g>
	</g>
	<g id="Camada_7">
		<path class="st5" d="M1051.7,529.6c-1.9,7.3-8.4,11-11.3,13.1c-16.2,11.3-8.8,29.8-25.8,58.8c-6.2,10.6-15,25.4-30.2,29.3
			c-11,2.7-18.5-4-31.3-6c-56.1-8.8-75.7-3.6-90.8-20.1c-4.5-4.9-7.6-16.8-13.3-40c-8.2-33.2-10.7-53-17.7-90.4
			c-4.3-22.5-5.1-24-6.9-33.1c-0.5-3-1.2-6.7-2.3-12.4c-13.6-79.4-1.6-60.7-8-102.8c-0.7-4.4-2.5-16.1,4-25.4
			c6.2-8.9,14-4.7,22.7-13.3c10.7-10.9,4.4-23.2,13.2-28.9c3.4-2.2,7.4-2.3,33.7,5.5c15,4.5,21.8,7,36,11.5
			c25.1,8.1,26.7,7.8,36.5,12c15.5,6.7,23.5,10.2,30.6,17.9c6.5,6.7,6.3,10.4,17.3,46.3c3.3,10.4,5.2,21.7,9.6,31.7
			c4.8,10.9,9.8,21.3,13.5,32.6c5.4,16.3,8.8,33.2,10.2,50.3c0.7,8.1,0.4,16.2,2.3,24c2.1,8.5,5.1,16.9,6.5,25.7
			C1051.2,522.6,1052.7,525.9,1051.7,529.6z"/>
		<path class="st6" d="M861.3,250c1,4-2.2,6-5.8,6.2c-6.5,0.3-9.6-4.3-12.5-9.2c-0.1-0.1-0.4-0.5-0.7-1.2c-1.1-1.9-1.6-2.9-1.9-3.3
			c-0.8-1.6-1.2-2.9-2.1-5.4c-0.4-1.1-0.5-1.6-0.4-1.9c0.8-1.8,8.2-0.7,14,2.7c1.1,0.5,1.8,1.2,2.3,1.6
			C856.2,242.1,860.5,246.2,861.3,250z"/>
		<path class="st7" d="M870.3,272.8c-0.1,9.9-4,16.5-9.3,25.8c-4.8,8.5-11.3,16.6-19.2,24c-5.6-9.2-11.3-18.5-16.9-27.8
			c5.6-6.6,12.5-16.1,18.3-28.6v-0.1c3-6,4.7-10.9,5.2-12.5c0,0,0-0.1,0.1-0.3c1-2.9,1.8-5.8,2.2-8.8c0.1-1.2,0.4-2.5,0.4-3.7
			c0-0.7-0.5-2.9,0.1-3.3c0.7-0.5,1.9,0.5,2.5,1c5.9,4.5,8.2,8.7,8.2,8.7C866.1,254.7,870.5,262.2,870.3,272.8z"/>
	</g>
	<g id="Camada_11">
		<path class="st5" d="M680.3,476.7c-4,3.4-6.6,2.7-12.4,4.3c0,0,5.5-19.5,3.4-20.3c-1.1-0.4-4.3,4.4-9.6,13.7
			c-1.4,2.3-2.9,4.8-4.5,7.7c-2.1,3.6-4.4,7.4-6.9,11.8c-4.7,7.8-8.2,14-11.4,19c-8,12.5-11.8,16.5-17.9,18.1
			c-7.1,2.1-8.5-1.5-22.1-1.2c-15.7,0.3-24.2,4.9-32,6.7c-11.5,2.6-29.7,0.7-57.3-21.7c33-22,50.3-45.3,60-62.9
			c8.9-16.1,10.2-25,17.4-44.4c4-10.7,7.4-18.1,11.3-27.1c0,0,7.3-16.8,17.2-35.2c0.5-1.1,1.2-2.2,1.8-3.3c1-1.8,2.3-4,5.1-8.2
			c0-0.1,0.1-0.1,0.1-0.3c3.6-5.5,8.1-13.1,14.3-16.1c7.6-3.7,12.1,3.8,15.1,10c0.7,1.4,1.2,2.6,1.6,3.7c1.9,4.1,3.7,8.4,5.5,12.5
			c0.4,0.8,0.7,1.6,1.1,2.6c1.8,4.3,3.6,8.7,5.2,13.1c7.3,18.7,13.2,37.8,17,57.4C682.7,416.5,692.3,466.4,680.3,476.7z"/>
		<path class="st7" d="M663.7,334.1c-1.2,3.3-2.7,6.5-4.4,9.5c-6.9,12.6-16.3,23.1-20.1,25.4c-0.7,0.4-1.1,0.5-1.4,0.4
			c-0.3-0.1-0.3-0.5-0.3-1.4l0,0c0.4-2.7,2.2-9.1,0.7-18.4c-0.7-4.7-2.1-13.1-7.8-15.9c-3.2-1.5-5.5-0.5-8-0.1
			c0-0.1,0.1-0.1,0.1-0.3c3.6-5.5,8.1-13.1,14.3-16.1c7.6-3.7,12.1,3.8,15.1,10c0.1-0.4,0.1-0.8,0.3-1.2c1.2-6.6,1.2-10.4,1.8-13.5
			c0.5,1,1,1.8,1.4,2.7c0.1-0.4,0.1-0.8,0.3-1.2c0.7-3.8,1-6.7,1.2-9.1c1-1.6,2.3-3.2,3.8-4.4c1.2,1.4,2.3,2.7,3.2,4.3
			C668.9,313.2,667.7,323.9,663.7,334.1z"/>
		<path class="st7" d="M661.8,503.8c-1.5-7.3-3.2-14.4-4.5-21.7c-2.1,3.6-4.4,7.4-6.9,11.8c-4.7,7.8-8.2,14-11.4,19
			c-4.3-4,3.3-11.1,4.5-31.2c0.7-10.2-0.7-17.6,2.6-30.8c1.2-4.7,2.1-8.1,3.4-9.2c0.3-0.3,0.5-0.4,0.8-0.4c4.3-0.4,8.9,19,11.3,33.2
			c0.3,1.9,0.5,3.6,0.8,5.2C664.5,493.1,663.3,500.1,661.8,503.8z"/>
	</g>
	<g id="Camada_10">
		<path class="st5" d="M764.6,399.4c-1.9,13.2-2.6,11.4-9.3,41.4c-12.1,54.5-18.3,81.7-20.1,105.5c-1.5,20.7,0.1,28.4-6.7,34.8
			c-11.5,10.6-37.2,8-49.9-5.5c-8.1-8.7-8.9-19.5-9.8-29.3c-1.4-14.3-4.1-28.4-7-42.5c-1.5-7.3-3.2-14.4-4.5-21.7
			c-1.2-5.8-2.3-11.7-3.3-17.4c-1.4-8.5-2.9-16.1-4.4-23.1c-6.7-32.4-12.9-48.2-13.6-60.6c-0.3-4.5,0.3-8.7,1.8-13.1l0,0
			c0.4-1.1,0.8-2.2,1.4-3.3c2.7-5.9,10.7-25.8,13.1-37.5c0.1-0.4,0.1-0.8,0.3-1.2c1.2-6.6,1.2-10.4,1.8-13.5c0.1-1,0.3-1.8,0.5-2.6
			c0.1-0.3,0.1-0.5,0.3-0.8c0,0,0.7-1.6,1.5-3.2c0.1-0.3,0.4-0.7,0.5-1c1-1.6,2.3-3.2,3.8-4.4c6.9-6,18-8.8,25.7-11.8
			c19.6-8,20.7-11.8,44.9-19.8c10.2-3.3,13.2-3.4,14.7-3.2c0,0,0.4,0.1,0.7,0.1c7.1,2.2,11.1,14.6,17.2,32.8
			c3.8,11.7,5.1,15.5,4,21.2c-1.1,5.1-2.7,6.5-4.9,10.7c-6,12.1,4.3,19,4,43.4C766.8,384,765,396.6,764.6,399.4z"/>
	</g>
	<g id="Camada_20">
	</g>
	<path class="st7" d="M731.7,264.4c-2.9,6.3-1.1,12.4,1.4,24.5c1.5,7.1,4.4,17.7,10.7,29.8c2.3-2.9,4.9-5.9,8-8.9
		c4.3-4.3,8.4-7.8,12.2-10.9c-3.4-7.8-7.3-19-9.2-32.7c0-0.1,0-0.1,0-0.1c-0.4-3,3-5.2,6-8.8c0.7-0.8,5.6-6.7,4-9.3
		c-0.7-1.2-2.6-1.2-4.4-1.4c-4.3-0.1-7.6,1.4-8.5,1.8C743.4,252.4,735.4,256.2,731.7,264.4z"/>
</g>
<g id="CABEÇA">
	<path class="st8" d="M880.1,72.8"/>
	<g>
		<path class="st9" d="M712.6,107.8c-7,11.8-4.1,22.8-2.9,41.8c2.1,32.1-4.3,30.2-1.2,48.5c1.4,8.4,9.6,51.1,40.5,60.2
			c15.7,4.7,31.1-1.9,44.9-8.8c10.4-5.2,29.5-13.7,29-27.6c-0.3-5.2-3.7-8.2-1.8-13.2c2.3-6,11.1-8.2,15.5-12.5
			c9.6-9.3,22-53.4-4.9-46.7c-8,2.1-13.1,11.1-12.2,19c-1.9-4.9,1.4-11.1,2.3-16.3c8.7-51.1-48.4-84.6-92.3-59.6
			C724.7,95.3,717.6,99.6,712.6,107.8z"/>
		<path class="st10" d="M705.9,125.7c1.1,12.6,8,21.8,14.4,22.4c10.7,0.8,21.4-22.3,17.2-26.9c-0.7-0.8-1.9-1.2-2.9-0.8
			c-4.5,2.1-2.6,26.7,6.6,30c10.4,3.6,29.4-19.9,25.8-26.2c-0.8-1.5-3.2-2.3-4.5-1.6c-4.9,2.5-2.5,26.9,7.4,30.4
			c11.3,3.8,30.1-19.5,26.7-25.4c-1.2-2.2-6.2-2.7-8.8-0.8c-6.6,4.8-2.6,28,6.6,30.8c10.6,3,27.5-20.7,24.2-25.4
			c-1-1.4-4.1-1.6-6.2-0.4c-5.6,3.6-1.1,14.3,0.3,19.1c2.7,9.9,0.7,22-2.9,31.5c-0.8,2.1-1.9,4.7-1.4,6.9c0.5,2.7,3.7,2.2,5.6,1.2
			c4.4-2.2,3.7-6.7,4.1-10.9c0.4-5.5,2.3-12.1,4.5-17c1.9-4.5,5.2-9.2,10.3-10.3c8.4-1.9,14.8,5.1,15.1,12.9
			c0.3,7.1-2.9,14.6-6.7,20.3c-5.9,8.7-11.1,8.1-12.9,15.1c-1.4,5.5,0.4,11.4,3,16.2c1.6,3,3.6,5.9,5.8,8.5c0.7,0.8,2.3,3.2,3.6,3.2
			c1.6,0,0.5-1.6,0.1-2.6c-1.1-3-2.3-6-2.6-9.3c-1.2-14.3,11.4-19.9,20.5-39.4c7-15.1,9.3-33.4,6.2-34.8c-2.5-1-5.9,3.7-6.3,5.6
			c-1,4.1,2.2,6.3,4,9.3c2.3,4.1,3,8.9,3.2,13.5c4.9-8.1,7.3-18,8.5-27.3c0.8-6,4.9-23.9-3-27.2c-3.6-1.5-7.7,1.9-8.4,5.6
			c-1.2,7.1,6,14,8.7,20.3c4.7,11.4,2.7,19.2,3.7,19.2c2.6,0.1,16.8-50.6-2.9-64.7c-6.6-4.8-16.9-5.2-23.8-1.6
			c-11.5,5.9-15.1,23.4-14,23.8c1.5,0.7,22.3-28,14.6-39.7c-6.2-9.2-30.1-8-33.2-0.8c-2.1,4.8,4.5,14,8.8,13.5c3.2-0.4,4.7-6,4.9-7
			c3.6-12.5-5.9-33.9-20.3-34.1c-10.3-0.1-19.5,10.7-21.2,20.9c-1.5,9.3,3.2,19.5,5.8,19.2c2.7-0.1,5.8-11.3,3.7-20.5
			c-3.4-16.2-23.1-33.2-37.9-27.9C743.3,48.4,739.4,80.3,749,88c4.7,3.7,13.6,3,15.8-0.8c3.3-5.9-8.1-22.5-23.8-27.5
			c-19.8-6.2-37.4,9.1-38.3,9.9c-18.7,16.6-14,43.8-13.7,45.5c1.9,11,6.6,12.1,8.8,26.7c2.2,14.8-1.1,25.6,1.2,26.2
			c1.6,0.4,6.2-5.6,8.8-13.5c6.5-19.4-1.5-40-2.5-39.7C704.8,114.6,704.8,116.9,705.9,125.7z"/>
	</g>
</g>
<g id="FUMAÇA">
	<path class="st5" d="M578.3,262.1"/>
	<path class="st11" d="M735.3,352.9c-0.8-0.5-1.5-1.1-2.1-1.8c-3.6-4-5.2-9.5-8.5-13.6c-5.2-6.5-14-8.9-22.3-8.9
		c-8.2-0.1-16.3,1.8-24.6,2.6c-6,0.5-35.4-1.6-20.6-12.2c2.6-1.9,5.8-2.7,8.9-3.6c11.3-3,22.5-6.2,33.8-9.2c4.4-1.2,9.9-3.8,9.3-8.4
		c-0.3-2.5-2.5-4.3-4.9-5.1c-2.3-0.7-4.9-0.5-7.4-0.5c-13.3,0.3-26.7-2.5-38.7-8.1c-6.2-2.9-12.6-7.3-13.6-14
		c-0.8-5.8,2.9-11.3,7.8-14.4c4.9-3,10.7-4.1,16.5-4.9c5.8-0.8,11.5-1.5,16.8-4c3.3-1.5,6.5-5.1,4.9-8.2c-1.8-3.6-7.1-2.5-11-1.6
		c-12.8,2.7-26.9-5.5-30.8-18c-1.1-3.6-1.5-7.4-0.1-10.9s4.7-6.3,8.2-6.3c5.5,0,9.2,5.5,13.3,9.1c7,5.9,16.9,7,26.2,6.7
		s18.7-1.4,27.5,1.2s17,10.4,16.5,19.6c-0.4,6.3-4.9,11.8-10.4,14.8c-5.5,3-12,4-18.3,4.4c-4.1,0.3-8.5,0.3-12.2,2.3
		c-3.7,2.1-6.2,6.9-4,10.6c2.3,4.1,8.4,3.8,13.1,3.2c16.9-2.2,34.2-1.5,51,1.9c6.3,1.4,13.9,4.3,14.8,10.7c0.8,5.6-4,10.6-9.1,12.9
		s-11,3.2-15.8,5.9c-9.9,5.6-13.6,20.1-7.7,29.8c1.8,2.9,4.1,5.4,5.6,8.2c1.5,2.9,2.1,6.9,0.1,9.5
		C744.6,356.2,739.1,355.5,735.3,352.9z"/>
</g>
<g id="POLGAR">
	<path class="st12" d="M796.3,374.9c-5.8-1.6-7.1-8.8-10-13.2c-3.8-6.2-24-14-16.3-22.4c5.8-6.3,15.1-1.6,20.5,2.3
		c14.2,10.7,24.3,18.3,22.1,25.3C810.7,372.4,802.3,376.7,796.3,374.9z"/>
</g>
<g id="CANECA">
	<path class="st13" d="M796.2,363.2c-4.9,18.3-16.3,34.8-31.7,45.9c-0.1,0.1-0.4,0.3-0.5,0.4c-7.7,5.5-16.6,9.6-26,10.4
		c-3.4,0.3-11.3,0.7-19.6-3.6c-1.5-0.7-2.7-1.5-3.8-2.2c-0.5-0.3-1-0.7-1.4-1c-1.2-3.7-2.1-6.6-2.5-8.2c-3.2-12.2-3.4-21.7-3.7-55.2
		c0-1.5,0-4.7,0-6.2c1.8-0.5,4.4-1.4,7.7-2.2c3.7-1,10.6-2.6,30.6-4.9c11.1-1.2,13.6-1.2,16.5,0.4c4.5,2.7,6.3,7.7,7.1,10.9
		c7.4,1.8,13.3,3,17.6,3.7c4.7,0.7,8.1,1.1,9.8,3.7C797.8,357.7,796.7,361,796.2,363.2z"/>
	<path class="st14" d="M763.9,409.4c-7.7,5.5-16.6,9.6-26,10.4c-3.4,0.3-11.3,0.7-19.6-3.6c-1.5-0.7-2.7-1.5-3.8-2.2
		c4.5-2.5,11.3-4.8,17.3-6C744.4,405.4,755.6,407.1,763.9,409.4z"/>
</g>
<g id="BRACO_x5F_ESQ">
	<path class="st9" d="M777.6,366c-3.3-2.1-6.5-4.7-6.3-7.6c0.3-5.9,14.6-11.1,26.4-10.9c1.1,0,20.5,1,32.4,16.5
		c17,22,1.6,51.7-0.4,55.6c-2.6,5.1-10.7,20.7-22.3,20.5c-4-0.1-10.6-2.2-13.7-7.1c-2.2-3.4-1-5.5-3.6-8.5c-2.1-2.3-3.8-2.1-12-4.9
		c-9.1-3.2-10.4-4.5-11.1-5.8c-1.5-2.6-1.8-6.5,0-9.1c1.2-1.8,4.1-1.6,5.1-3.2c2.9-4.1-6.9-8.5-2.9-14.6c0.8-1.2,5.2-2.9,5.4-3.8
		c0.1-1.1-3-2.3-3.7-3c-1.8-1.9-3.2-5.2-2.6-7.8C769,368.3,773.8,365.3,777.6,366z"/>
	<path class="st7" d="M1033.7,535.2c-5.4,32.6-18,87.5-49.2,94.7c-7.1,1.6-9.3-0.5-31.5-5.2c-57.4-12.1-76.1-4-90.8-20.1
		c-4.5-4.9-7.6-16.8-13.3-40c-8.2-33.2-10.7-53-17.7-90.4c-4.3-22.5-5.1-24-6.9-33.1c8.4,7.1,20.7,13.7,39.2,23.6
		c19.6,10.6,31.3,13.6,44.1,28c9.5,10.9,7,13.9,16.1,22.7c11,10.7,19,10.6,46.7,21.3c27.6,10.7,34.8,16.9,43,17.6
		c1.6,0.1,4,0.8,6.3-0.3c11.4-5.4,4.9-38.6,7.6-39C1027.9,515.2,1029.9,519.6,1033.7,535.2z"/>
	<path class="st5" d="M1051,526.2c-0.4,1.1-0.8,2.1-1.2,3.2c-34.3,76.9-138.8-24.2-176.1-44c-17.3-9.2-41.8-15.5-52.9-32.8
		c-2.7-4.3-4.7-9.2-5.8-14.4c-6.5-30,11.4-71.4,32.4-75.3c8.1-1.5,14,3,27.2,11.5c2.1,1.2,32.3,17.6,93,50.1
		c48.5,26.1,54.3,24.3,65.7,38.6C1038.4,469.4,1060.5,498.8,1051,526.2z"/>
</g>
<g id="PLANTAS">
	<g id="MESA">
		<g>
			<path class="st15" d="M1129.1,626.2v48.1c-93.2,27.6-186.2,55.1-279.3,82.7c-223.3-38.2-446.7-76.3-669.9-114.4v-59.8L505,545.7
				L1129.1,626.2z"/>
		</g>
	</g>
	<g id="objs_x5F_mesa">
		<g id="notebook">
			<g id="inf_x5F_note">
				<path class="st16" d="M816.1,599.8c0,1.8-2.6,3.8-7.8,5.8c-2.1,0.8-4.5,1.5-7.4,2.2l-180.3,48.1
					C545,638.6,451.4,606.5,376,589.2l198.4-33.4c16.3-4.1,39-5.2,50.7-2.6l184.1,42.3C813.9,596.7,816.1,598.2,816.1,599.8z"/>
				<path class="st17" d="M808.4,575.6v10.3c0,2.6-5.2,5.6-15.1,8.1l-182.5,45.5l-226.6-51.9l21.3-5.4l205.1,47.1L793,583.7
					c2.9-0.7,5.4-1.5,7.4-2.2C805.6,579.5,808.4,577.4,808.4,575.6z"/>
				<path class="st18" d="M808.4,575.6c0,1.8-2.6,3.8-7.8,5.8c-2.1,0.8-4.5,1.5-7.4,2.2l-182.3,45.6l-205.1-47.1l-21.3-4.9
					l182.3-45.6c16.3-4.1,39-5.2,50.7-2.6l184.1,42.3C806.2,572.5,808.4,574,808.4,575.6z"/>
				<path class="st19" d="M692.4,599.7c0,1.8-2.6,3.8-7.8,5.8c-2.1,0.8-4.5,1.5-7.4,2.2l-48.6,12.2l-16.2,4l-21.3,5.4l-0.5,0.1
					l-189.2-40.3l-9.3-18.8l58.7-14.7c16.3-4.1,39-5.2,50.7-2.6l2.5,0.5l103.7,23.8l77.9,17.9C690.2,596.5,692.4,598,692.4,599.7z"
					/>
				<path class="st20" d="M729.4,561.2c0,0.7-1.1,1.5-3,2.3c-0.8,0.3-1.8,0.5-2.9,0.8l-71.6,18l-80.6-18.5l-8.4-1.9l71.6-18
					c6.5-1.6,15.4-2.1,19.9-1l72.4,16.6C728.6,560,729.4,560.5,729.4,561.2z"/>
				<line class="st21" x1="808.4" y1="621.7" x2="808.4" y2="612.9"/>
				<line class="st21" x1="808.4" y1="602.7" x2="808.4" y2="597.3"/>
			</g>
			<g id="book">
				<path class="st16" d="M938.1,698.9c-40.4,11.5-80.6,23.1-121,34.8c-43.4-14.7-86.8-29.4-130.2-44.1c33.4-5.1,67.7-11,103-17.9
					c21.2-4.1,42-8.4,62.4-12.9C880.8,672.1,909.5,685.5,938.1,698.9z"/>
				<path class="st10" d="M926.4,688.4c0,1.1-1.5,2.2-4.4,3.3c-1.2,0.4-2.6,0.8-4.1,1.2l-103,25.8l-116-26.5l-12.1-2.7l103-25.8
					c9.2-2.3,22.1-2.9,28.7-1.4l104,23.9C925.2,686.6,926.4,687.5,926.4,688.4z"/>
				<path class="st22" d="M926.4,680.9c0,1.1-1.5,2.2-4.4,3.3c-1.2,0.4-2.6,0.8-4.1,1.2l-103,25.8l-116-26.7l-12.1-2.7l103-25.8
					c9.2-2.3,22.1-2.9,28.7-1.4l104,23.9C925.2,679.1,926.4,679.9,926.4,680.9z"/>
				<path class="st22" d="M926.4,678.3c0,1.1-1.5,2.2-4.4,3.3c-1.2,0.4-2.6,0.8-4.1,1.2l-103,25.8l-116-26.7l-12.1-2.7l103-25.8
					c9.2-2.3,22.1-2.9,28.7-1.4l104,23.9C925.2,676.5,926.4,677.3,926.4,678.3z"/>
				<path class="st22" d="M926.4,675.5c0,1.1-1.5,2.2-4.4,3.3c-1.2,0.4-2.6,0.8-4.1,1.2l-103,25.8l-116-26.7l-12.1-2.7l103-25.8
					c9.2-2.3,22.1-2.9,28.7-1.4l104,23.9C925.2,673.7,926.4,674.6,926.4,675.5z"/>
				<path class="st22" d="M926.4,672.9c0,1.1-1.5,2.2-4.4,3.3c-1.2,0.4-2.6,0.8-4.1,1.2l-103,25.8l-116-26.7l-12.1-2.7l103-25.8
					c9.2-2.3,22.1-2.9,28.7-1.4l104,23.9C925.2,671.1,926.4,671.9,926.4,672.9z"/>
				<path class="st22" d="M926.4,683.5c0,1.1-1.5,2.2-4.4,3.3c-1.2,0.4-2.6,0.8-4.1,1.2l-103,25.8l-116-26.5l-12.1-2.7l103-25.8
					c9.2-2.3,22.1-2.9,28.7-1.4l104,23.9C925.2,681.7,926.4,682.7,926.4,683.5z"/>
				<path class="st22" d="M926.4,686.2c0,1.1-1.5,2.2-4.4,3.3c-1.2,0.4-2.6,0.8-4.1,1.2l-103,25.8l-116-26.7l-12.1-2.7l103-25.8
					c9.2-2.3,22.1-2.9,28.7-1.4l104,23.9C925.2,684.5,926.4,685.3,926.4,686.2z"/>
				<path class="st10" d="M926.4,670.8c0,1.1-1.5,2.2-4.4,3.3c-1.2,0.4-2.6,0.8-4.1,1.2l-103,25.8l-116-26.7l-12.1-2.7l103-25.8
					c9.2-2.3,22.1-2.9,28.7-1.4l104,23.9C925.2,669.1,926.4,669.9,926.4,670.8z"/>
				<path class="st23" d="M843.6,686.9c0,0.3-0.4,0.5-1.1,0.8c-0.3,0.1-0.7,0.3-1.1,0.3l-26.8,6.7l-30.2-6.9l-3.2-0.7l26.8-6.7
					c2.3-0.5,5.8-0.8,7.4-0.4l27.1,6.2C843.1,686.4,843.6,686.6,843.6,686.9z"/>
				<line class="st21" x1="989.2" y1="738.7" x2="989.2" y2="729.9"/>
				<line class="st21" x1="989.2" y1="719.8" x2="989.2" y2="714.4"/>
				<path d="M927.9,756.3"/>
			</g>
			<g id="MAODIR">
				<g id="Camada_18">
					<path class="st9" d="M622.1,572.5c-1,3.6-3,12.2-7.6,12.8c-0.8,0.1-1.5,0-2.2-0.3c-1.4-0.5-2.5-1.5-2.7-1.9
						c-4.9-4.9,0-12.2-4.3-17c-1.5-1.8-1.9-0.4-13.5-4.3c-6-2.1-6.9-2.6-9.3-2.5c-3,0.3-4.4,1.5-9.6,2.5c-0.5,0.1-1.9,0.4-3.7,1
						c-1,0.3-2.1,0.7-3.4,1.4c-5.1,2.7-9.1,7.3-11.5,12.5c-1.2,2.6-2.2,5.5-2.7,8.2c-1,4.5,1.4,15-5.2,16.2
						c-2.2,0.4-4.4-0.4-6.6-1.1c-7.1-2.6-27.2-5.9-30.6-12.6c-2.9-5.6-0.3-12.1,3.4-21.4c5.2-12.8,11.5-13.9,18.5-26
						c8.1-14,3.7-18.8,9.3-25.1c13.5-15.4,59.6-12.6,76.9,14.7C628.5,546.8,623.3,567.5,622.1,572.5z"/>
				</g>
				<path class="st3" d="M616.2,574c-0.3,1.9-0.5,3.6-1.1,5.2c-0.5,1.9-1.4,3.8-2.6,5.6c-1.4-0.5-2.5-1.5-2.7-1.9
					c-4.9-4.9,0-12.2-4.3-17c-1.5-1.8-1.9-0.4-13.5-4.3c-6-2.1-6.9-2.6-9.3-2.5c-3,0.3-4.4,1.5-9.6,2.5c-0.5,0.1-1.9,0.4-3.7,1
					c-1,0.3-2.1,0.7-3.4,1.4c-5.1,2.7-9.1,7.3-11.5,12.5c-0.4-0.7-0.7-1.4-0.8-1.8c-1.6-5.6,4.8-10.9,8-19.6c0.7-2.1,1-3.4,1.1-4.5
					c0.4-3.4-0.4-4.4,0-5.8c1.1-3.2,7.7-2.5,10.3-2.9c4-0.7,8.1-1.9,11.5-4c3.2-1.9,7.7-6.7,11.3-2.2c1.1,1.5,1.4,3.6,1.9,5.4
					c1.4,4.4,6,4.4,9.6,6.3C615.3,551.6,617.3,564.5,616.2,574z"/>
			</g>
			<g id="SUP_x5F_note">
				<path class="st10" d="M613.2,639.5l-1.2-0.3l-29.5-6.3l-17-3.6L376,589.2l-9.3-18.8l-66.5-134.1c-6.7-13.7-2.3-22.7,9.9-20.1
					l192.8,40.9c12.2,2.6,27.6,15.8,34.5,29.5l23.1,46.6l13.5,27.2l1.9,3.7l6.6,13.3l21,42.3l4.4,8.8l5.2,10.4L613.2,639.5z"/>
			</g>
		</g>
	</g>
</g>
<g id="Camada_24">
	<g>
		<path class="st24" d="M156.1,452.4"/>
		<g id="XMLID_1_">
			<path class="st25" d="M211.1,634c0-2.7-1.4-6.9-4.1-8.2c-30.2-15.1-52.2-35.7-74.2-60.5c-2.7-2.7-4.1-6.9-6.9-9.6
				c-6.9-9.6-13.7-19.2-12.4-31.6c8.2-6.9,15.1,2.7,20.6,6.9c8.2,9.6,17.9,17.9,30.2,19.2c2.7,0,5.5-4.1,4.1-6.9
				c-16.5-20.6-35.7-35.7-49.5-57.7c-6.9-11-12.4-24.7-5.5-35.7c1.4-1.4,5.5,0,6.9,0c9.6,5.5,16.5,12.4,26.1,16.5
				c4.1,1.4,8.2,0,11-2.7c1.4-4.1-1.4-8.2-2.7-12.4c-16.5-24.7-34.3-49.5-33-78.3c11-9.6,26.1,1.4,35.7,9.6c0,0,1.4,0,2.7,0
				c2.7-1.4,1.4-4.1,2.7-5.5c1.4-19.2-1.4-39.8,11-57.7c16.5-22,41.2-34.3,67.3-35.7c12.4,0,24.7,4.1,33,13.7
				c9.6,12.4,13.7,27.5,6.9,41.2c-4.1,8.2-9.6,15.1-15.1,22c-2.7,5.5-9.6,11-8.2,17.9c1.4,1.4,2.7,4.1,5.5,4.1
				c12.4-2.7,23.4-8.2,35.7-8.2c4.1,1.4,2.7,6.9,0,9.6c-17.9,20.6-37.1,35.7-53.6,57.7c-2.7,4.1-4.1,8.2-4.1,12.4
				c0,0,1.4,1.4,2.7,1.4c12.4-5.5,23.4-13.7,35.7-19.2c11-4.1,23.4-2.7,35.7-2.7c4.1,0,6.9,1.4,9.6,4.1c4.1,4.1,1.4,9.6-1.4,13.7
				c-13.7,15.1-30.2,27.5-44,42.6c-8.2,9.6-15.1,19.2-20.6,31.6c-1.4,2.7,0,6.9,0,11c1.4,2.7,0,8.2,6.9,4.1
				c16.5-8.2,31.6-22,50.8-19.2c2.7,1.4,5.5,2.7,6.9,6.9c0,4.1,1.4,8.2,0,11c-16.5,33-35.7,60.5-55,92.1c0,1.4,2.7,4.1,4.1,4.1
				c17.9-13.7,33-26.1,52.2-37.1c4.1-1.4,8.2-2.7,12.4,0c13.7,13.7,5.5,35.7-4.1,50.8c-13.7,17.9-27.5,31.6-44,46.7
				c-1.4,1.4-2.7,4.1-2.7,5.5l1.4,1.4c13.7-1.4,23.4-12.4,34.3-19.2c4.1-2.7,9.6-1.4,12.4,2.7c8.2,15.1-1.4,31.6-13.7,41.2
				c-37.1,30.2-75.6,56.3-118.2,75.6c-1.4-8.2-6.9-15.1-9.6-23.4c-2.7-5.5-6.9-11-9.6-17.9c-11-20.6-24.7-37.1-38.5-57.7
				c-2.7-4.1-4.1-8.2-2.7-12.4c0-9.6,12.4-11,20.6-11c13.7,1.4,22,12.4,31.6,20.6c2.7,1.4,5.5-1.4,4.1-5.5
				c-23.4-27.5-63.2-46.7-61.8-85.2c0-6.9,9.6-6.9,15.1-5.5c20.6,6.9,35.7,20.6,55,31.6C208.4,636.8,211.1,636.8,211.1,634
				L211.1,634z"/>
		</g>
		<g>
			<path class="st26" d="M98.5,667c-1.4-2.7-1.4-5.5-2.7-8.2c-22-22-33-49.5-49.5-75.6c-1.4-4.1-4.1-8.2-4.1-12.4
				c0-6.9,6.9-11,12.4-8.2c5.5,4.1,9.6,8.2,13.7,13.7c5.5,4.1,12.4,9.6,20.6,5.5c-1.4-9.6-8.2-16.5-13.7-24.7
				C67,547.5,56,540.6,47.7,531c-2.7-4.1-6.9-8.2-4.1-15.1c15.1-6.9,28.9,5.5,44,6.9c2.7,0,5.5-2.7,5.5-4.1
				c-13.7-22-38.5-28.9-59.1-42.6c-2.7-2.7-8.2-6.9-2.7-9.6c13.7-5.5,27.5-2.7,41.2,1.4c0,0,1.4-1.4,2.7-1.4
				c-1.4-1.4-1.4-2.7-1.4-4.1C60,447.2,33.9,430.7,49,408.7c22-30.2,60.5-20.6,86.6-1.4c15.1,12.4,19.2,30.2,20.6,48.1
				c0,6.9,5.5,11,12.4,9.6s9.6-8.2,16.5-9.6c8.2,6.9,5.5,19.2,1.4,28.9c0,1.4,0,2.7,0,4.1c-5.5,13.7-11,26.1-19.2,37.1
				c4.1,2.7-5.5,5.5,5.5,6.9c2.7,0,4.1-4.1,6.9-5.5c1.4-1.4,4.1,0,5.5-1.4c11-8.2,23.4-9.6,35.7-8.2c4.1,1.4,5.5,8.2,4.1,12.4
				c-9.6,33-41.2,48.1-63.2,72.8c-1.4,2.7-5.5,11,1.4,9.6c16.5,0,31.6-11,48.1-6.9c5.5,1.4,2.7,9.6,0,13.7
				c-19.2,24.7-45.3,37.1-64.6,60.5l1.4,2.7c1.4,0,4.1,0,5.5,0c17.9-8.2,37.1-15.1,56.3-22c2.7,0,6.9,1.4,9.6,2.7
				c8.2,9.6,1.4,23.4-5.5,33c-11,12.4-22,22-31.6,34.3c12.4,4.1,22-8.2,31.6-13.7c5.5-2.7,12.4-1.4,17.9,1.4s8.2,9.6,5.5,15.1
				c-16.5,26.1-37.1,48.1-45.3,76.9c-41.2-12.4-78.3-33-109.9-61.8c-6.9-8.2-16.5-15.1-19.2-26.1c-1.4-8.2,6.9-11,12.4-11
				c11,2.7,16.5,11,24.7,17.9c1.4,1.4,2.7,2.7,4.1,1.4c1.4-2.7-1.4-5.5-2.7-6.9c-12.4-11-23.4-20.6-34.3-33
				c-9.6-11-16.5-23.4-19.2-38.5c-1.4-6.9-2.7-17.9,6.9-20.6c19.2,5.5,27.5,24.7,41.2,38.5h2.7C98.5,669.7,98.5,668.4,98.5,667
				L98.5,667z"/>
		</g>
	</g>
	<g>
		<path class="st25" d="M1100.2,635c1.2-6.3-4.7-12-8.4-16.3c-14-17.4-25.4-37.5-34.2-58.4c-2.9-6.7-5.9-13.5-8.5-20.3
			c-3.2-8.4-7.8-19.6-7.4-28.7c0.1-3.6,2.2-7.4,5.5-8.5c4.7-1.5,9.3,2.3,12.2,6.3c6.5,8.7,10.9,19.4,20.2,25
			c3.2,1.9,10.9,5.9,12.9,1.1c1.4-3.3-2.3-9.8-3.7-12.6c-4.9-11.1-11-21.8-17.6-32c-7.7-12.1-16.2-27.3-17-41.9
			c-0.1-2.9,0.1-6.2,2.2-8.2c5.2-5.1,15.1,1.9,19.5,4.9c5.5,3.7,20.3,17,27.3,14.3c10.6-4.3-5.2-23.2-8.4-28.4
			c-5.6-8.9-11.7-17.6-16.8-26.8c-10-18.4-13.9-27.8-10.3-31.7c4.4-4.8,18.3,0.3,21.8,1.5c14.3,5.2,18.5,13.5,22.3,12
			c7-3-9.3-32.1,1.2-55.8c8.8-19.4,34.6-34.5,61.3-30.6c29,4.1,48.9,29.4,51.1,51.1c2.5,26-20.6,44.7-13.2,53.6
			c7.3,8.8,32.3-5.4,37.1,1.1c7.1,9.6-31.5,43.3-37,48.8c-3.6,3.6-24.2,18.4-20.3,23.6c1.2,1.6,3.6,2.3,5.8,2.1
			c2.1-0.3,4-1.2,5.9-2.2c17-7.8,39.8-9.8,57.4-3c26.5,10.2-16.9,37.2-26.1,43.8c-16.2,11.5-35.2,20.7-49.7,34.3
			c-3.3,3-10.4,13.3-6.7,17.9c2.7,3.4,10.4-0.1,13.7-0.8c10.3-2.1,20.6-5.1,31.2-4.8c4.9,0.1,11,0.5,15.3,3.4
			c6.9,4.4,3.2,12.8-1,18.1c-3.2,4.1-7.3,7.4-11.4,10.7c-13.6,10.7-27.3,21.6-40.9,32.3c-9.1,7.1-18.4,13.3-27.1,20.9
			c-1.6,1.4-3.4,3.6-2.5,5.5c0.5,1.1,1.8,1.6,3,1.8c1.2,0,2.5-0.4,3.6-0.8c17.9-6.2,35.9-11.3,54.1-16.3c6.3-1.8,13.9-3.3,19,1
			c4.4,3.7,4.9,10.4,3.8,16.1c-3.2,15.9-15.7,28.3-29,37.5c-8.8,6.2-18,11.8-26.8,18c-2.5,1.8-10.4,5.2-11.1,8.4
			c-2.1,10.7,26.4-3,28.2-3.8c6.2-3,14-5.9,20.6-2.5c7.6,4,9.2,14.8,5.8,22.5c-4.1,8.9-12.8,14-20.6,19.2
			c-10.2,6.7-20.5,13.3-30.6,20.1c-5.1,3.3-59.9,40-60.5,39.3c-24.3-31.9-48.9-64.2-68.8-99.1c-4.7-8-17.9-29.4-10.9-38.2
			c3.4-4.3,10.3-4,11.5-4c12.4,0.4,21,11.8,27.6,21c1.5,2.1,6.7,12.5,8.9,5.2c1.2-4.4-9.1-14.8-11.5-18.5
			c-11-15.5-22.1-31.3-28.4-49.3c-2.9-8-12-41.5,1.2-45.5c11.3-3.4,23.5,13.9,29.5,21.2c5.1,5.9,9.5,12.4,13.9,18.8
			C1089.6,629.9,1098.4,644.3,1100.2,635z"/>
		<g>
			<path class="st26" d="M1145.4,643.6c0-1.4,1.4-4.1,1.4-5.5c-9.6-34.3-6.9-67.3-6.9-101.7c0-2.7,1.4-5.5,4.1-8.2
				c4.1-2.7,9.6,0,12.4,2.7c5.5,11,5.5,27.5,17.9,33c1.4,0,2.7-1.4,2.7-1.4c4.1-9.6,0-17.9-1.4-27.5c-2.7-16.5-16.5-34.3-8.2-50.8
				c8.2-1.4,12.4,4.1,17.9,8.2c5.5,6.9,12.4,12.4,19.2,19.2c1.4,0,4.1,0,5.5,0c4.1-4.1,0-8.2-1.4-12.4c-5.5-15.1-13.7-28.9-22-42.6
				c-4.1-5.5-12.4-13.7-8.2-20.6c15.1,0,27.5,9.6,38.5,19.2h2.7c0-2.7,0-4.1,0-6.9c-6.9-17.9-16.5-46.7,6.9-56.3
				c31.6-12.4,63.2,13.7,75.6,42.6c6.9,17.9,1.4,35.7-4.1,52.2c-5.5,15.1,15.1,11,24.7,12.4c2.7,1.4,1.4,5.5,1.4,8.2
				c-6.9,15.1-19.2,26.1-33,33c-6.9,4.1-12.4,8.2-19.2,12.4c-1.4,1.4-4.1,4.1,2.7,8.2c17.9-4.1,37.1-1.4,50.8,11
				c1.4,6.9-2.7,12.4-8.2,16.5c-26.1,17.9-53.6,19.2-82.4,26.1c-4.1,1.4-6.9,4.1-9.6,6.9c-1.4,1.4,0,4.1,2.7,5.5
				c12.4,4.1,26.1,5.5,38.5,9.6c4.1,1.4,8.2,4.1,8.2,9.6c-1.4,9.6-12.4,11-20.6,13.7c-23.4,6.9-46.7,8.2-70.1,15.1
				c-1.4,0-2.7,2.7-2.7,4.1s1.4,2.7,1.4,2.7c20.6,1.4,39.8,4.1,60.5,6.9c2.7,1.4,6.9,2.7,8.2,5.5c8.2,16.5-12.4,26.1-24.7,31.6
				c-12.4,4.1-24.7,5.5-37.1,12.4c-1.4,1.4,0,2.7,1.4,4.1c12.4,4.1,23.4-2.7,35.7,0c9.6,2.7,15.1,12.4,12.4,20.6
				c-1.4,6.9-8.2,8.2-13.7,9.6c-1.4,0-1.4,2.7-2.7,2.7c-13.7,4.1-24.7,11-37.1,17.9c-1.4,1.4-2.7,2.7-4.1,4.1
				c-8.2,4.1-13.7,12.4-22,16.5c-6.9-5.5-11-12.4-16.5-17.9c-2.7-4.1-5.5-8.2-9.6-12.4c-17.9-26.1-31.6-50.8-41.2-79.7
				c-2.7-11-9.6-26.1,1.4-34.3c17.9-1.4,17.9,19.2,26.1,31.6c1.4,1.4,2.7,0,2.7-1.4c-8.2-23.4-17.9-45.3-16.5-70.1
				c0-4.1-1.4-9.6,0-13.7c2.7-5.5,1.4-12.4,5.5-17.9c2.7-1.4,2.7-5.5,5.5-6.9c4.1-1.4,9.6,0,12.4,4.1c6.9,15.1,6.9,31.6,12.4,46.7
				c0,1.4,0,2.7,2.7,2.7L1145.4,643.6L1145.4,643.6z"/>
		</g>
	</g>
</g>
<g id="Camada_25">
	<g>
		<polygon points="878.7,622.3 878.6,622.3 878.6,622.3 		"/>
		<g id="celular_2_">
			<g>
				<path d="M883.9,620.4C883.9,620.4,883.9,620.6,883.9,620.4L883.9,620.4C883.9,620.6,883.9,620.4,883.9,620.4z M883.9,620.3
					L883.9,620.3L883.9,620.3L883.9,620.3z M883.9,620.4C883.9,620.4,883.9,620.6,883.9,620.4L883.9,620.4
					C883.9,620.6,883.9,620.4,883.9,620.4z M883.9,620.3L883.9,620.3L883.9,620.3L883.9,620.3z M883.9,620.4
					C883.9,620.4,883.9,620.6,883.9,620.4L883.9,620.4C883.9,620.6,883.9,620.4,883.9,620.4z M883.9,620.3L883.9,620.3L883.9,620.3
					L883.9,620.3z"/>
				<path d="M903.6,618.5c-5.1-1.4-13.3-1.8-18.5-0.8l-37.2,6.6l-2.3,0.4L937,650c4.9,1.4,13.3,1.8,18.4,0.8l39.6-7l-2.7-0.8
					L903.6,618.5z"/>
				<path d="M883.9,620.6L883.9,620.6L883.9,620.6C883.9,620.4,883.9,620.6,883.9,620.6z"/>
				<path d="M883.9,620.3L883.9,620.3L883.9,620.3L883.9,620.3z"/>
				<path d="M882.3,619.3L882.3,619.3C882.4,619.3,882.4,619.3,882.3,619.3L882.3,619.3L882.3,619.3z"/>
				<polygon points="878.6,622.3 878.7,622.3 878.7,622.3 				"/>
				<path d="M848.5,625.2L848.5,625.2c0.4,0,0.8,0.1,1.2,0.3C849.3,625.5,848.9,625.4,848.5,625.2z"/>
				<path class="st21" d="M836.5,626.9v1C836.3,627.6,836.3,627.2,836.5,626.9z"/>
				<path d="M849.7,625.5c-0.4,0-0.8-0.1-1.2-0.3l0,0C848.9,625.4,849.3,625.4,849.7,625.5z"/>
				<path d="M854.4,625.9c0.8,0,1.6,0,2.5,0C856.1,625.9,855.2,625.9,854.4,625.9z"/>
				<path d="M851.9,625.8c0.8,0.1,1.6,0.1,2.5,0.1C853.6,625.9,852.8,625.8,851.9,625.8z"/>
				<path d="M857,625.9c0.7,0,1.5,0,2.2-0.1C858.5,625.8,857.8,625.9,857,625.9z"/>
				<path d="M878.7,622.3L878.7,622.3L878.7,622.3z"/>
				<path d="M883.9,620.6L883.9,620.6C883.9,620.6,883.9,620.4,883.9,620.6C883.9,620.4,883.9,620.6,883.9,620.6z"/>
				<path d="M883.9,620.4L883.9,620.4L883.9,620.4L883.9,620.4z"/>
				<path d="M883.9,620.3L883.9,620.3L883.9,620.3L883.9,620.3z"/>
				<path d="M882.6,619.3L882.6,619.3L882.6,619.3C882.4,619.3,882.4,619.3,882.6,619.3z"/>
				<polygon points="878.7,622.3 878.6,622.3 878.6,622.3 				"/>
				<path d="M882.4,619.3L882.4,619.3C882.4,619.3,882.3,619.3,882.4,619.3L882.4,619.3z"/>
			</g>
		</g>
	</g>
	<g class="st27">
		<path d="M879.8,623.2L879.8,623.2L879.8,623.2z"/>
		<g id="celular_3_">
			<g>
				<path d="M885,621.3C885.2,621.3,885.2,621.4,885,621.3L885,621.3C885.2,621.4,885.2,621.3,885,621.3z M885,621.1L885,621.1
					L885,621.1L885,621.1z M885,621.3C885.2,621.3,885.2,621.4,885,621.3L885,621.3C885.2,621.4,885.2,621.3,885,621.3z M885,621.1
					L885,621.1L885,621.1L885,621.1z M885,621.3C885.2,621.3,885.2,621.4,885,621.3L885,621.3C885.2,621.4,885.2,621.3,885,621.3z
					 M885,621.1L885,621.1L885,621.1L885,621.1z"/>
				<path d="M1001.6,646l-96.9-26.8c-5.1-1.4-13.3-1.8-18.5-0.8l-44.8,7.8c-5.2,1-5.4,6.5-0.3,7.8l92.9,27.3
					c5.1,1.4,19.1,3.7,24.3,2.9l52.2-12C1015.7,651.5,1006.6,647.4,1001.6,646z M849.6,626.1L849.6,626.1c0.4,0,0.8,0.1,1.2,0.3
					C850.4,626.2,850,626.2,849.6,626.1z M879.7,623.2L879.7,623.2L879.7,623.2L879.7,623.2L879.7,623.2z M883.5,620.2L883.5,620.2
					L883.5,620.2L883.5,620.2C883.5,620.2,883.5,620.2,883.5,620.2z M885,621.1L885,621.1L885,621.1L885,621.1z M885.2,621.4
					C885.2,621.4,885.2,621.3,885.2,621.4C885.2,621.3,885.2,621.4,885.2,621.4L885.2,621.4z"/>
				<path d="M850.8,626.3c-0.4,0-0.8-0.1-1.2-0.3l0,0C850,626.2,850.4,626.2,850.8,626.3z"/>
				<path d="M855.5,626.7c0.8,0,1.6,0,2.5,0C857.2,626.7,856.3,626.7,855.5,626.7z"/>
				<path d="M853,626.6c0.8,0.1,1.6,0.1,2.5,0.1C854.7,626.7,853.9,626.6,853,626.6z"/>
				<path d="M858.3,626.7c0.7,0,1.5,0,2.2-0.1C859.6,626.6,858.9,626.7,858.3,626.7z"/>
				<path d="M879.8,623.2L879.8,623.2L879.8,623.2z"/>
				<path d="M885.2,621.4L885.2,621.4C885.2,621.4,885.2,621.3,885.2,621.4C885.2,621.3,885.2,621.4,885.2,621.4z"/>
				<path d="M885.2,621.3L885.2,621.3L885.2,621.3L885.2,621.3z"/>
				<path d="M885,621.1L885,621.1L885,621.1L885,621.1z"/>
				<path d="M883.7,620.2L883.7,620.2L883.7,620.2L883.7,620.2z"/>
				<path d="M879.8,623.2L879.8,623.2L879.8,623.2z"/>
				<path d="M883.5,620.2L883.5,620.2L883.5,620.2L883.5,620.2z"/>
			</g>
		</g>
	</g>
	<g>
		<polygon class="st22" points="878.7,615.8 878.7,615.8 878.6,615.8 878.6,615.8 		"/>
		<g id="celular">
			<g>
				<path d="M883.9,613.7L883.9,613.7L883.9,613.7L883.9,613.7z M883.9,613.8L883.9,613.8L883.9,613.8L883.9,613.8z M883.9,614
					L883.9,614L883.9,614L883.9,614z M883,613C883,613,883.1,613,883,613C883.1,613.1,883.1,613,883,613L883,613L883,613z M883,613
					C883,613,883.1,613,883,613C883.1,613.1,883.1,613,883,613L883,613L883,613z M883.9,613.7L883.9,613.7L883.9,613.7L883.9,613.7z
					 M883.9,613.8L883.9,613.8L883.9,613.8L883.9,613.8z M883.9,614L883.9,614L883.9,614L883.9,614z M883,613
					C883,613,883.1,613,883,613C883.1,613.1,883.1,613,883,613L883,613L883,613z M883.9,613.7L883.9,613.7L883.9,613.7L883.9,613.7z
					 M883.9,613.8L883.9,613.8L883.9,613.8L883.9,613.8z M883.9,614L883.9,614L883.9,614L883.9,614z"/>
				<path d="M883.7,614.5c-0.4,0.3-1.2,0.7-2.5,0.8l-21,3.7c-3.3,0.5-8.2,0.4-11.8-0.3l0,0c3.6,0.7,8.5,1,11.8,0.3l21-3.7
					C882.4,615.1,883.3,614.8,883.7,614.5z"/>
				<path d="M883.9,613.8C883.9,614,883.9,614,883.9,613.8L883.9,613.8C883.9,614,883.9,614,883.9,613.8z"/>
				<path d="M883.9,613.8L883.9,613.8L883.9,613.8L883.9,613.8z"/>
				<path d="M883.9,613.7L883.9,613.7L883.9,613.7L883.9,613.7z"/>
				<path d="M883,613C883,613,883.1,613,883,613C883.1,613,883.1,613,883,613C883.1,613.1,883.1,613,883,613z"/>
				<path d="M882.4,612.7L882.4,612.7L882.4,612.7L882.4,612.7z"/>
				<path d="M1003.9,640.2c-0.4-0.5-1.6-1.1-3.4-1.6l-96.9-26.7c-5.1-1.4-13.3-1.8-18.4-0.8l-44.8,7.8c-1.8,0.3-3,0.7-3.6,1.2
					c-0.1,0.1-0.3,0.3-0.3,0.4c-0.1,0.1-0.1,0.4,0,0.5c0,0.1,0.1,0.3,0.3,0.4c0.5,0.5,1.6,1.1,3.3,1.5l5.5,1.5l91.4,25.3
					c4.9,1.4,13.3,1.8,18.4,0.8l39.6-7l5.2-1c1.9-0.4,3.2-0.8,3.7-1.4C1004.2,641,1004.2,640.6,1003.9,640.2z M995,642.4l-40.1,7
					c-5.2,1-13.5,0.5-18.4-0.8l-91.2-25.3c-5.1-1.4-4.9-3.3,0.3-4.1l3-0.5l0,0c2.1,0.4,4.8,0.7,7.3,0.7c0.8,0,1.6,0,2.3-0.1l0,0
					c0.4,0,0.7,0,1.1-0.1c0.4,0,0.7-0.1,1.1-0.1l14.8-2.6l3.6-0.7l0,0l0,0l0,0l0,0l2.5-0.4c1.2-0.3,2.1-0.5,2.5-0.8l0.1-0.1l0.1-0.1
					V614l0,0v-0.1l0,0c0,0,0,0,0-0.1l0,0c-0.1-0.1-0.3-0.4-0.5-0.5h-0.1l0,0c0,0,0,0-0.1,0l0,0l0,0c0,0-0.1,0-0.1-0.1
					c-0.1,0-0.1-0.1-0.3-0.1h-0.1l3.2-0.5c5.2-1,13.5-0.5,18.4,0.8l91.2,25.3C1000.2,639.7,1000.2,641.4,995,642.4z"/>
				<path class="st28" d="M904,613l91.2,25.1c5.1,1.4,4.9,3.3-0.3,4.1l-40.1,7c-5.2,1-13.5,0.5-18.4-0.8l-91.2-25.1
					c-5.1-1.4-4.9-3.3,0.3-4.1l3-0.5l0,0l0,0c3.6,0.7,8.5,1,11.8,0.3l21-3.7c1.2-0.3,2.1-0.5,2.5-0.8l0.1-0.1l0.1-0.1V614l0,0v-0.1
					l0,0v-0.1l0,0l0,0c-0.1-0.1-0.3-0.4-0.5-0.5c0,0,0,0-0.1,0l0,0c0,0-0.1,0-0.1-0.1c0,0,0,0-0.1,0c0,0-0.1,0-0.1-0.1
					c-0.1,0-0.1-0.1-0.3-0.1h-0.1l0,0l0,0l3.2-0.5C890.7,611.2,898.9,611.6,904,613z"/>
				<path d="M883,613L883,613c0.1,0.1,0.1,0.1,0.3,0.1C883.1,613.1,883.1,613,883,613L883,613z"/>
			</g>
		</g>
	</g>
	<g class="st29">
		<path class="st30" d="M718.4,1659.1H464.9c-81.2,0-147-65.8-147-147V791.9c0-81.2,65.8-147,147-147h253.5c81.2,0,147,65.8,147,147
			v720.2C865.3,1593.3,799.6,1659.1,718.4,1659.1z"/>
		<g id="celular_1_" class="st31">
			<g>
				<path d="M784.9,643.8H400.1c-44.4,0-80.4,36-80.4,80.4v854.6c0,44.4,36,80.4,80.4,80.4h384.8c44.4,0,80.4-36,80.4-80.4V724.2
					C865.3,679.8,829.3,643.8,784.9,643.8z M844.8,1554c0,44.4-36,80.4-80.4,80.4H420.5c-44.4,0-80.4-36-80.4-80.4V748.7
					c0-44.4,36-80.4,80.4-80.4h25.8c4.4,26.7,27.6,47,55.5,47h180c27.9,0,51.1-20.3,55.5-47h27.1c44.4,0,80.4,36,80.4,80.4V1554z"/>
				<path class="st22" d="M737.4,668.5c-4.5,26.7-27.6,47-55.5,47h-180c-27.9,0-51.1-20.3-55.5-47H737.4z"/>
				<path d="M738.2,644.3V659c0,3.2-0.3,6.3-0.8,9.3c-4.5,26.7-27.6,47-55.5,47h-180c-27.9,0-51.1-20.3-55.5-47
					c-0.5-3-0.8-6.2-0.8-9.3v-14.7H738.2z"/>
			</g>
		</g>
	</g>
	<line class="st21" x1="836.5" y1="627.8" x2="836.3" y2="633.3"/>
	<path class="st32" d="M1003.9,641.4v6.6c-0.5,0.5-1.8,1-3.7,1.4l-44.8,7.8c-5.2,1-13.5,0.5-18.4-0.8l-96.9-26.8
		c-1.9-0.5-3.2-1.1-3.6-1.8v-1l0.1-5.4c0.5,0.5,1.6,1.1,3.3,1.5l5.5,1.5l91.4,25.3c4.9,1.4,13.3,1.8,18.4,0.8l39.6-7l5.2-1
		C1002.1,642.4,1003.3,642,1003.9,641.4z"/>
	<polyline class="st21" points="1003.9,641.4 1003.9,640.2 1003.9,638.1 	"/>
</g>
</svg>
