<?xml version="1.0" encoding="utf-8"?>
<!-- Generator: Adobe Illustrator 22.0.1, SVG Export Plug-In . SVG Version: 6.00 Build 0)  -->
<svg version="1.1" id="Modo_de_isolamento" xmlns="http://www.w3.org/2000/svg" xmlns:xlink="http://www.w3.org/1999/xlink" x="0px"
	 y="0px" viewBox="0 0 1366 768" style="enable-background:new 0 0 1366 768;" xml:space="preserve">
<style type="text/css">
	.st0{fill:#FF9370;}
	.st1{fill:#FF561F;}
	.st2{fill:#8D1CFF;}
	.st3{fill:#470E80;}
	.st4{fill:#6A15BF;}
	.st5{display:none;}
	.st6{display:inline;fill:#8D1CFF;}
	.st7{display:inline;fill:#6A15BF;}
	.st8{fill:#8C1AFF;}
	.st9{fill:#FFB096;}
	.st10{fill:#4D4D4D;}
	.st11{fill:#FF926E;}
	.st12{display:inline;fill:#4D4D4D;}
	.st13{opacity:0.2;enable-background:new    ;}
	.st14{fill:#FFFF00;}
	.st15{fill:#6EEDCF;}
	.st16{fill:#DCDCDC;}
	.st17{opacity:0.3;fill:#FFFFFF;enable-background:new    ;}
	.st18{opacity:0.1;enable-background:new    ;}
</style>
<g>
	<g id="PESCOÇO_1_">
		<path class="st0" d="M837.3,318.8c-8.9,7.9-15.5,4.3-60.6,6.4c-38.4,1.8-49.1,5.1-53.5-1.8c-6-9.1,10.9-19.4,15.3-51.3
			c1.9-13.8,1.8-34.3,0.8-47.4c-0.3-4.5-1.4-17.3,4.3-31.6c0.5-1.1,0.8-2.3,1.4-3.4c10.7-19.5,47.2-28.5,61.2-15.9
			c11.3,10,0.8,27.3,8.4,47.8c1.1,3,2.5,6,4.6,9.2c1,1.4,1.9,2.8,2.8,4c0.6,0.8,1.2,1.4,1.8,2.2c-1.4,4.3-3.2,8.3-4.6,11.3v0.1
			c-5.1,11.1-11.3,19.5-16.1,25.2c4.9,8.1,9.9,16.4,14.9,24.5c14-13,22.9-28.8,25.2-44c0.6,1,1.3,2.1,1.9,3.3
			C854.9,276.1,853,305.2,837.3,318.8z"/>
	</g>
	<g id="roupa_1_">
		<g id="Camada_9_1_">
			<g>
				<path class="st1" d="M715.6,501.3c5.9,28.1,90.9,82.4,137.9,58.6c62.1-31.4,65.3-200.7-9.4-242.5c-20.6-11.5-45.4-8.9-68.2-9.7
					c-15.3-0.6-47.2-15.6-58.9-3.3c-10.9,11.3,12.1,35.1,10.5,84.9C726.5,410.7,726.1,425.5,715.6,501.3z"/>
			</g>
		</g>
		<g id="Camada_7_1_">
			<path class="st2" d="M994.1,428.3c0-1.2-0.1-2.4-0.3-3.6c-1.3-15-4.3-30-9.1-44.3c-3.3-9.9-7.6-19.1-11.9-28.7
				c-4-8.9-5.7-18.8-8.4-28c-9.7-31.5-9.7-34.9-15.3-40.8c-6.4-6.7-13.5-9.8-27.2-15.7c-8.6-3.8-10-3.5-32.2-10.5
				c-12.5-4-18.6-6.3-31.8-10.2c-7.9-2.3-13.5-3.8-17.6-4.8c-7.9-1.8-10.2-1.3-12.1,0c-7.9,5.1-2.2,16-11.6,25.4
				c-4.9,4.9-9.7,5.1-13.8,6.8c-2.2,0.8-4.3,2.2-6.2,4.9c-5.9,8.3-4.1,18.6-3.5,22.4c5.6,37-4.9,20.7,7,90.6
				c0.8,4.9,1.4,8.3,2.1,10.9c1.6,8,2.4,9.4,6,29.2c6.2,32.9,8.4,50.5,15.6,79.8c0.3,1.2,0.6,2.4,0.8,3.5
				c3.2,12.7,5.4,21.2,7.8,26.5l0,0c1,2.3,2.1,4,3.2,5.2c13.3,14.4,30.7,9.9,80.1,17.7c11.3,1.8,17.9,7.8,27.6,5.4
				c3.4-0.8,6.4-2.3,9.1-4.1c0,0,0,0,0.1,0c8.1-5.6,13.5-14.6,17.6-21.7c15-25.6,8.4-41.9,22.7-51.8c0.3-0.3,0.8-0.6,1.3-1
				c1-0.8,2.2-1.6,3.4-2.7l0,0c2.1-1.8,4-4.3,4.9-7.5c0-0.1,0.1-0.3,0.1-0.5c0.8-3.3-0.3-6.2-1.3-12.1c0-0.3-0.1-0.3-0.1-0.6
				c-0.1-1.1-0.3-2.1-0.6-3v-0.1L994.1,428.3z"/>
			<path class="st3" d="M835,234.1c0.8,3.5-1.9,5.4-5.1,5.4c-5.7,0.3-8.4-3.8-11-8.1c-0.1-0.1-0.3-0.5-0.6-1.1
				c-1-1.7-1.4-2.5-1.7-2.9c-0.8-1.4-1.1-2.5-1.8-4.8c-0.3-1-0.5-1.4-0.3-1.7c0.8-1.6,7.3-0.6,12.4,2.4c1,0.5,1.6,1.1,2.1,1.4
				C830.5,227.1,834.3,230.7,835,234.1z"/>
			<path class="st4" d="M843,254.2c-0.1,8.7-3.5,14.5-8.3,22.7c-4.3,7.5-9.9,14.6-17,21.2c-4.9-8.1-9.9-16.4-14.9-24.5
				c4.9-5.9,11-14.2,16.1-25.2v-0.1c2.7-5.4,4.1-9.5,4.6-11c0,0,0-0.1,0.1-0.3c0.8-2.5,1.6-5.1,1.9-7.8c0.1-1.1,0.3-2.2,0.3-3.3
				c0-0.6-0.5-2.5,0.1-2.9c0.6-0.5,1.7,0.5,2.2,0.8c5.2,4,7.3,7.6,7.3,7.6C839.2,238.2,843.1,244.9,843,254.2z"/>
		</g>
		<g id="Camada_11_1_" class="st5">
			<path class="st6" d="M675.5,434c-3.5,3-5.9,2.4-10.9,3.8c0,0,4.8-17.2,3-17.9c-1-0.3-3.8,3.8-8.4,12.1c-1.2,2.1-2.5,4.3-4,6.8
				c-1.8,3.2-3.8,6.5-6,10.5c-4.1,6.9-7.3,12.4-10,16.7c-7,11-10.5,14.5-15.7,16c-6.3,1.8-7.5-1.3-19.5-1.1
				c-13.8,0.3-21.3,4.3-28.3,5.9c-10.2,2.3-26.2,0.6-50.5-19.1c29.1-19.4,44.3-40,52.9-55.5c7.9-14.2,8.9-22.1,15.4-39.1
				c3.5-9.4,6.5-16,9.9-23.8c0,0,6.4-14.8,15.1-31c0.5-1,1.1-1.9,1.6-2.9c0.8-1.6,2.1-3.5,4.5-7.3c0-0.1,0.1-0.1,0.1-0.3
				c3.2-4.8,7.1-11.5,12.6-14.2c6.7-3.3,10.7,3.4,13.3,8.9c0.6,1.2,1.1,2.3,1.4,3.3c1.7,3.6,3.3,7.4,4.8,11c0.3,0.8,0.6,1.4,1,2.3
				c1.6,3.8,3.2,7.6,4.6,11.5c6.4,16.5,11.6,33.3,15,50.7C677.5,381,686,424.9,675.5,434z"/>
			<path class="st7" d="M660.8,308.2c-1.1,2.9-2.4,5.7-3.8,8.4c-6,11.1-14.4,20.3-17.7,22.4c-0.6,0.3-1,0.5-1.2,0.3
				c-0.3-0.1-0.3-0.5-0.3-1.2l0,0c0.3-2.4,1.9-8,0.6-16.2c-0.6-4.1-1.8-11.5-6.9-14c-2.8-1.3-4.8-0.5-7-0.1c0-0.1,0.1-0.1,0.1-0.3
				c3.2-4.8,7.1-11.5,12.6-14.2c6.7-3.3,10.7,3.4,13.3,8.9c0.1-0.3,0.1-0.8,0.3-1.1c1.1-5.9,1.1-9.2,1.6-11.9
				c0.5,0.8,0.8,1.6,1.2,2.4c0.1-0.3,0.1-0.8,0.3-1.1c0.6-3.4,0.8-5.9,1.1-8c0.8-1.4,2.1-2.8,3.4-3.8c1.1,1.2,2.1,2.4,2.8,3.8
				C665.4,289.8,664.3,299.3,660.8,308.2z"/>
			<path class="st7" d="M659.1,457.9c-1.3-6.4-2.8-12.7-4-19.1c-1.8,3.2-3.8,6.5-6,10.5c-4.1,6.9-7.3,12.4-10,16.7
				c-3.8-3.5,2.9-9.8,4-27.5c0.6-8.9-0.6-15.5,2.3-27.2c1.1-4.1,1.8-7.1,3-8.1c0.3-0.3,0.5-0.3,0.8-0.3c3.8-0.3,7.9,16.7,9.9,29.3
				c0.3,1.7,0.5,3.2,0.8,4.6C661.5,448.4,660.4,454.6,659.1,457.9z"/>
		</g>
		<g id="Camada_10_1_">
			<path class="st2" d="M749.7,365.8c-1.7,11.6-2.3,10-8.3,36.5c-10.7,48.1-16.1,72.1-17.7,93.1c-1.3,18.3,0.1,25.1-5.9,30.7
				c-10.2,9.4-32.9,7-44-4.8c-7.1-7.6-7.9-17.2-8.6-25.8c-1.2-12.6-3.6-25.1-6.2-37.5c-1.3-6.4-2.8-12.7-4-19.1
				c-1.1-5.1-2.1-10.3-2.9-15.4c-1.2-7.5-2.5-14.2-3.8-20.3c-5.9-28.6-11.4-42.6-12-53.4c-0.3-4,0.3-7.6,1.6-11.5l0,0
				c0.3-1,0.8-1.9,1.2-2.9c2.4-5.2,9.4-22.7,11.5-33.1c0.1-0.3,0.1-0.8,0.3-1.1c1.1-5.9,1.1-9.2,1.6-11.9c0.1-0.8,0.3-1.6,0.5-2.3
				c0.1-0.3,0.1-0.5,0.3-0.8c0,0,0.6-1.4,1.3-2.8c0.1-0.3,0.3-0.6,0.5-0.8c0.8-1.4,2.1-2.8,3.4-3.8c6-5.4,15.9-7.8,22.7-10.5
				c17.3-7,18.3-10.5,39.6-17.5c8.9-2.9,11.6-3,13-2.8c0,0,0.3,0.1,0.6,0.1c6.3,1.9,9.8,12.9,15.1,28.9c3.4,10.3,4.5,13.7,3.5,18.6
				c-1,4.5-2.4,5.7-4.3,9.4c-5.4,10.7,3.8,16.7,3.5,38.3C751.6,352.2,750,363.4,749.7,365.8z"/>
		</g>
		<g id="Camada_20_1_">
		</g>
		<path class="st4" d="M720.8,246.8c-2.5,5.6-1,10.9,1.2,21.6c1.3,6.3,3.8,15.6,9.4,26.3c2.1-2.5,4.3-5.2,7-7.9
			c3.8-3.8,7.4-6.9,10.8-9.5c-3-6.9-6.4-16.7-8.1-28.8c0-0.1,0-0.1,0-0.1c-0.3-2.7,2.7-4.6,5.4-7.8c0.6-0.8,4.9-5.9,3.5-8.3
			c-0.6-1.1-2.3-1.1-3.8-1.2c-3.8-0.1-6.7,1.2-7.5,1.6C731.1,236.1,724,239.6,720.8,246.8z"/>
	</g>
	<g id="CABEÇA_1_">
		<path class="st8" d="M851.6,77.8"/>
		<g>
			<path class="st9" d="M703.9,108.7c-6.2,10.5-3.6,20.1-2.5,36.9c1.8,28.3-3.8,26.7-1.1,42.8c1.2,7.4,8.4,45.1,35.7,53.1
				c13.8,4.1,27.3-1.7,39.6-7.8c9.2-4.6,26.1-12.1,25.6-24.3c-0.3-4.6-3.3-7.3-1.6-11.6c2.1-5.4,9.8-7.3,13.7-11
				c8.4-8.3,19.4-47.2-4.3-41.2c-7,1.8-11.5,9.8-10.8,16.7c-1.7-4.3,1.2-9.8,2.1-14.4c7.6-45.1-42.6-74.7-81.4-52.6
				C714.6,97.7,708.3,101.5,703.9,108.7z"/>
			<path class="st10" d="M697.9,124.4c1,11.1,7,19.2,12.7,19.7c9.4,0.8,18.9-19.6,15.1-23.7c-0.6-0.8-1.7-1.1-2.5-0.8
				c-4,1.8-2.3,23.5,5.9,26.4c9.2,3.2,25.9-17.6,22.7-23.2c-0.8-1.3-2.8-2.1-4-1.4c-4.3,2.2-2.2,23.7,6.5,26.8
				c9.9,3.4,26.5-17.2,23.5-22.4c-1.1-1.9-5.4-2.4-7.8-0.8c-5.9,4.3-2.3,24.7,5.9,27.2c9.4,2.7,24.2-18.3,21.3-22.4
				c-0.8-1.2-3.6-1.4-5.4-0.3c-4.9,3.2-1,12.6,0.3,16.8c2.4,8.7,0.6,19.4-2.5,27.8c-0.8,1.8-1.7,4.1-1.2,6c0.5,2.4,3.3,1.9,4.9,1.1
				c3.8-1.9,3.3-5.9,3.6-9.5c0.3-4.8,2.1-10.7,4-15c1.7-4,4.6-8.1,9.1-9.1c7.4-1.7,13,4.5,13.3,11.4c0.3,6.3-2.5,12.9-5.9,17.9
				c-5.2,7.6-9.8,7.1-11.4,13.3c-1.2,4.8,0.3,10,2.7,14.3c1.4,2.7,3.2,5.2,5.1,7.5c0.6,0.8,2.1,2.8,3.2,2.8c1.4,0,0.5-1.4,0.1-2.3
				c-1-2.7-2.1-5.4-2.3-8.3c-1.1-12.6,10-17.6,18.1-34.8c6.2-13.3,8.3-29.4,5.4-30.7c-2.2-0.8-5.2,3.3-5.6,4.9
				c-0.8,3.6,1.9,5.6,3.5,8.3c2.1,3.6,2.7,7.9,2.8,11.9c4.3-7.1,6.4-15.9,7.5-24.1c0.8-5.4,4.3-21.1-2.7-24
				c-3.2-1.3-6.8,1.7-7.4,4.9c-1.1,6.3,5.4,12.4,7.6,17.9c4.1,10,2.4,17,3.3,17c2.3,0.1,14.8-44.6-2.5-57c-5.9-4.3-14.9-4.6-21-1.4
				c-10.2,5.2-13.3,20.6-12.4,21c1.3,0.6,19.6-24.7,12.9-35c-5.4-8.1-26.5-7-29.3-0.8c-1.8,4.3,4,12.4,7.8,11.9
				c2.8-0.3,4.1-5.4,4.3-6.2c3.2-11-5.2-29.9-17.9-30c-9.1-0.1-17.2,9.4-18.6,18.4c-1.3,8.3,2.8,17.2,5.1,17
				c2.4-0.1,5.1-9.9,3.3-18.1c-3-14.3-20.3-29.3-33.4-24.6c-14.6,5.2-18.1,33.3-9.5,40.1c4.3,3.5,12.7,2.3,14-0.8
				c1.6-4.1-9.9-13.7-21.3-17.8c-2.1-0.8-21.7-7.8-33.3,2.2l-0.1,0.1c-16.5,14.6-12.4,38.6-12.1,40.1c1.7,9.7,5.9,10.7,7.8,23.5
				c1.9,13-1,22.6,1.1,23.2c1.4,0.3,5.4-4.9,7.8-11.9c5.7-17.1-1.3-35.3-2.2-35C697,114.7,697,116.8,697.9,124.4z"/>
		</g>
	</g>
	<g id="FUMAÇA_1_">
		<path class="st2" d="M585.4,244.8"/>
	</g>
	<g id="PLANTAS_1_">
		<path class="st4" d="M990.2,461.3c2.4-10.5,2.9-21.6,3.2-31.4c-2.5,18.1-1.7,36.7-3.8,54.7c-0.6,5.6-1.7,8.3-5.9,20.5
			c-10.5,31-9.5,32-13.7,39c-4.1,7-9.4,16.1-17.6,21.7c0,0,0,0-0.1,0c-2.8,1.7-5.6,2.9-8.1,3.4c-1.6,0.3-3.4,0.6-3.4,0.6
			c-4.1,0.3-8.4-1.8-24.5-5.2c-50.7-10.7-67.1-3.6-80.1-17.7c-1.6-1.7-2.9-3.4-4-5.2c-6.2-9.5-7.5-20.5-7.8-26.5
			c-0.1-1.6,0-2.8,0-3.5c0.6-37.5,39.2-44.8,54.8-87.7c15.6-43-5.2-84.9,0.1-86.1c4-1,13.8,24.2,18.8,43c3.2,11.9,4.8,17.8,4.3,23
			c-2.3,23.5-25.9,40.5-21.7,50.7c1.8,4.3,4.9,8.7,4.9,8.7c1.1,1.6,2.4,3.2,4.5,5.2c2.1,2,4,3.5,5.9,4.8c7.8,5.2,27.8,11.5,35.3,14
			c17.5,5.6,22.2,8.3,30.7,6.5c0.3-0.1,5.9-1.4,10.9-4.8C982.8,482.2,987.6,472.2,990.2,461.3z"/>
		<g id="MESA_1_">
			<g>
				<path class="st11" d="M1071.1,565.8v42.4C989,632.5,907,656.8,824.8,681.1c-109.5-18.8-216-37-222.6-38
					c-1-0.1-70.4-12-72.8-12.5c-137.5-23.5-285.9-48.8-295.4-50.4v-52.7l286.8-32.7l173.6,22.4l180.8,23.2L1071.1,565.8z"/>
			</g>
		</g>
		<g id="objs_x5F_mesa_1_">
			<g id="notebook_1_">
				<g id="SUP_x5F_note_1_" class="st5">
					<path class="st12" d="M533,614.3l-0.8-0.2l-19.8-4.2l-11.4-2.4l-127.1-26.9l-6.2-12.6l-44.7-90.1c-4.5-9.3-1.5-15.2,6.6-13.5
						l129.4,27.5c8.2,1.8,18.5,10.6,23.1,19.8l15.5,31.2l9,18.3l1.3,2.5l4.4,8.9l14.1,28.4l2.9,5.9l3.5,7L533,614.3z"/>
				</g>
			</g>
		</g>
	</g>
	<path class="st13" d="M655.5,625.2c-27.6,3.3-35.1-2.2-46.1,5.7c-7,5.1-9.7,11.4-18.6,13c-4.8,0.8-11.9,0.3-13.7-3.3
		c-1.9-3.6,3-10.5,11.1-22.4c0.6-1,2.3-3.3,1.8-3.6c-0.5-0.5-4,2.4-4.8,3c-9.4,6.9-41.6-6.2-40.5-14.5c0.3-2.8,4.1-4.1,78.8-14
		c0.8-4.3,1.2-10.7-2.4-14.5c-3.8-4.3-9.4-2.3-13.7-6.4c-4.3-4.3-5.9-14-2.4-17.3c10.7-10.5,75.2,32.6,92.6,34.8
		c0.8,0.1,9.8,1.2,21.8,3.2l0,0c16,4,22.9,10.5,61.5,15.4c36.5,4.6,53.5,1.4,69.4,16.1c12.5,11.5,22.3,32.1,16.5,44.1
		c-1.3,2.7-4.3,6.9-6.4,6.4c-2.3-0.6-1.2-6.3-4.6-12.7c-2.2-4.1-4-4.3-9.7-10c-10.5-10.5-10.6-16.1-16.3-17
		c-4.3-0.8-10.5,1.3-11.9,5.2c-3.4,10,30.7,24.1,27.6,38.5c-0.8,4-4.8,8.7-8.3,8.6c-2.2-0.1-3.4-2.3-5.2-4.3
		c-3.6-4.5-6.7-5.4-15-10.2c-14.4-8.4-28.6-19.4-33.9-23.4c-11.1-8.6-9.9-8.9-14.5-11.3c-10.8-5.9-18.6-4.9-33.1-6.4
		c-28.3-3-27.8-9.4-46.9-8.9C674.1,619.1,677.1,622.7,655.5,625.2z"/>
	<g id="BRACO_x5F_ESQ_1_">
		<g id="MAO_x5F_DIR">
			<path class="st13" d="M875.1,540.5L875.1,540.5c-6.8,6.3-14.5,8-18.1,8.9c-49.1,10.7-45.1,13.8-67.8,15.4
				c-26.4,1.7-30.3-2.5-48.2,2.4c-4.9,1.3-3.8,2.3-27.2,9.2c-4,1.2-15.9,4.6-29.1,9.4c-17,6-19.4,8.1-26.2,7.6
				c-1.6-0.1-16-1.4-21-11.6c-3.4-6.9-1.7-16,0.8-16.6c0.8-0.3,1.4,0.8,3.4,1.1c2.5,0.3,4.8-0.8,5.7-1.4c6-3.4,17.8-22.1,22.1-27.8
				c4-5.4,10.5-12.2,21.8-17.9c0.1-0.1,0.3-0.1,0.3-0.3c0,0,1-0.6,2.7-1.4l0,0L875.1,540.5z"/>
			<path class="st9" d="M659.9,529.4c-0.1-0.1-0.1-0.3-0.1-0.3c-0.3-0.8-0.3-2.5,5.4-8.1c5.2-5.1,10.5-10.3,16.5-14.8
				c3.6-2.8,8.4-6.7,13.3-6.2c5.7,0.6,11.6,3.2,16.7,5.6c3.8,1.8,2.2,2.5,0.3,4.8c-3.3,4-6.8,9.4-12,10.3
				c-4.6,0.8-10.5-1.1-14.8,1.1c-2.9,1.4-3.2,2.7-4.8,4.1c-1,0.8-1.8,1.3-2.8,1.9c-7.1,4-7.3,5.2-9.9,5.4
				C664.4,533.2,661.2,531.2,659.9,529.4z"/>
			<path class="st0" d="M669.8,529.4c0.1-1.2,0.8-2.5,1.3-3.4c2.4-3.8,5.4-7.4,8.9-10c2.4-1.9,8.9-5.4,9.9-0.8
				c0.3,1.4-0.3,3.2-1.2,4.3c-0.9,1.2-2.3,2.1-3.6,2.7c-1.3,0.6-2.7,1-4,1.7c-2.3,1.1-4.5,2.7-6.3,4.8c-0.6,0.8-1.2,1.4-1.9,1.9
				c-0.8,0.6-1.6,0.8-2.3,0.6C670,530.9,669.8,530.2,669.8,529.4z"/>
			<path class="st9" d="M632.3,556.1L632.3,556.1c-0.5-0.3-2.2-1.1-2.5-2.7c-0.1-0.8,0-1.6,0.5-2.5c0.8-1.2,1.8-2.1,2.9-2.8
				c11.1-8.1,24.3-12.9,36.4-19.6c5.9-3.3,13.7-8.6,21.8-17.9c1.4-0.8,9.1-5.4,19.1-7.3c17.9-3.5,43.1,0.8,50.7,16.4
				c2.3,4.8,4.3,13,0.6,17.9c-3.8,4.9-8.6,2.3-16.6,8.6c-4.3,3.4-7,8.4-10.9,12.1c-4.8,4.8-10.2,6.3-20.5,9.7
				c-5.9,1.9-9.5,2.9-12.5,3.4c-3.8,0.8-7,1.2-8.9,1.4c-4.8,0.6-5.4,0.5-8.4,0.8c-7.1,1-12.5,3.2-21,4.3c-1.2,0.1-3.6,0.5-5.2-1
				c-0.8-0.8-1.6-2.2-1.2-3.3c0.3-0.6,1-1.2,1.4-1.6c-3.3-0.3-7,1.7-10,2.8c-0.3,0.1-0.8,0.3-1.4,0.3c-1.8,0.1-3.8-0.5-4.8-1.9
				c-0.3-0.6-0.6-1.2-0.6-1.8c0-1.8,2.5-2.3,2.5-3.5c0-1.3-2.8-2.7-5.1-2.9c-1.7-0.3-2.3,0.1-3.5-0.3c-1.1-0.5-1.9-1.7-1.8-2.8
				c0.3-1.6,3-1.7,2.9-2.9C636.2,557.9,633.4,556.6,632.3,556.1z"/>
			<path class="st0" d="M647.4,573.4c0.3-0.3,0.6-0.6,0.8-0.8c1.1-1.1,2.5-1.7,4-2.4c9.5-4.1,19.5-7.1,29.7-9.4
				c1-0.3,1.9-0.3,2.9-0.1c1,0.3,1.8,1,1.9,1.9c0.1,1.1-0.8,1.9-1.7,2.4c-1,0.3-2.1,0.3-3,0.3c-6.8-0.1-13.7,1.3-19.9,4.1
				c-3.8,1.7-5.2,2.8-10.3,4.3c-2.2,0.8-4,1.1-5.2,1.3C646.6,574.7,646.9,574.1,647.4,573.4z"/>
			<path class="st0" d="M640.6,564.2c0.3-0.3,0.8-0.5,0.8-0.6c1.3-1,2.5-1.9,3.8-2.7c9.4-4.6,19-8.4,29.1-11.1
				c1-0.3,1.9-0.5,2.9-0.3c1,0.1,1.9,0.8,2.1,1.8c0.1,1-0.6,2.1-1.6,2.4c-1,0.5-2.1,0.5-3,0.5c-6.8,0.3-13.5,2.2-19.6,5.4
				c-2.5,1.3-3.8,2.3-5.9,3.3c-2.5,1.3-3.5,1.6-4,1.7c-1.7,0.5-3.2,0.8-4.6,0.8c-1.3,0-2.3-0.3-2.3-0.3
				C638.3,564.9,639.3,564.9,640.6,564.2z"/>
			<path class="st0" d="M632.3,556.1c-0.1-0.5,2.5-1.8,10.5-5.7c7.6-3.8,16-6,24-9.2c0.3-0.1,1.6-0.5,2.9-0.1c1,0.3,1.8,1,1.9,1.9
				c0.1,1.1-0.8,1.9-1.7,2.4c-1.3,0.5-2.7,0.3-3,0.3c-3-0.6-6.5,0.6-9.4,1.6c-4.9,1.4-9.7,3.5-14.4,5.6
				C642,553.2,632.9,557.9,632.3,556.1z"/>
		</g>
		<path class="st2" d="M951.2,394.5c6.8,4,13,9.2,17.8,14.4c16.5,17.9,21.4,42.6,22.1,66.4c0.1,4.8-0.8,9.9-3.8,14
			c-4.8,6.7-12.6,6.3-19.6,8.9c-23,8.4-46.4,15.6-69.8,22.9c-21.2,6.5-42.4,13-63.5,19.5c-10.7,3.4-24.2,5.7-33.8,11.9
			c-1.4,1-8,5.2-17.3,7.3c-3.8,0.8-7.4,1-12.1,1.1c-3.5,0.1-7.3-0.3-11.3-1.1c-4.3-1-8.6-2.9-12.6-5.6
			c-22.6-14.9-36.7-52.1-25.9-67.5c4.3-5.9,10.8-6.7,24.3-9.4c0,0,36.2-4.8,89.5-25.6c16.2-6.3,30.7-16.4,43.6-27.8
			c11.8-10.5,21.2-25.4,35.4-32.7C926.4,384.8,939.7,387.9,951.2,394.5z"/>
	</g>
	<g id="braco_x5F_dir">
		<path class="st13" d="M507.3,503.2c-1.6,2.3-3,5.4-2.4,8.4c1.8,8.9,19.7,14.3,33.9,10.9c7.8-1.8,18.1-7.1,17.8-12.5
			c-0.5-7.1-19.6-10.3-20.6-10.5C523.4,497.5,512.8,500.8,507.3,503.2z"/>
		<path class="st2" d="M697,365.4c-2.4,7.6-8.4,10.5-13.5,15.4c-16.4,16.1-33.2,31.4-50,46.7c-12,10.9-24.1,21.7-36.1,32.6
			c-1.7,1.4-3.4,3-4.9,4.5c-1.6,1.4-3.2,2.9-4.8,4.3c-4.3,4-9.7,8.1-14.4,12.6c-3.6,3.4-7,6.9-9.7,10.7c-0.8,1.2-3.8,5.9-9.1,10.5
			c-1,0.8-1.9,1.7-3,2.5c-2.8,2.2-5.7,3.8-9.4,5.6c-2.8,1.4-5.9,2.5-9.1,3.4c-3.6,0.8-7.4,0.8-11.1-0.1c-8.3-1.7-16.1-6.9-22.4-13.7
			c-9.8-10.5-15.7-24.8-12.6-35.5c2.1-6.8,7-9.9,17.1-17.6c0,0,24.8-16.2,59.4-50.9c0.3-0.5,0.8-0.8,1.3-1.3
			c1.4-1.4,2.9-2.9,4.3-4.3c11.5-11.8,20.7-26.1,28.5-41.1c7-13.5,11.1-30.4,20.7-42.1c8.3-10.2,19.4-12.6,29.9-11.1
			c6.2,0.8,12.2,3,17.2,5.9c16.8,9.4,26.2,29.2,31.8,49.7C698.1,356.1,698.4,361,697,365.4z"/>
		<g id="Camada_27">
			<path class="st4" d="M592.2,464.6c-1.6,1.4-3.2,2.9-4.8,4.3c-4.3,4-9.7,8.1-14.4,12.6c-3.6,3.4-7,6.9-9.7,10.7
				c-0.8,1.2-3.8,5.9-9.1,10.5c-7.5-1.1-15-5.1-21.2-10.7c14.4-14.8,31.6-37.5,32.9-66.7c0.5-11-1.3-21.9-2.7-28.9
				c-1-4.8-1.6-7.8-1.2-7.9c0.3-0.1,1.2,2.4,2.4,6.7c2.2,7.3,5.7,19.6,10.9,33.3C581.3,443.9,587.5,456.2,592.2,464.6z"/>
		</g>
		<g>
			<g id="celular_5_">
				<g>
					<path class="st14" d="M654.4,327l-45.3,5.7c-5.2,0.6-9.9-3-10.7-8.3l-12.6-100.6c-0.6-5.2,3-9.9,8.3-10.7l45.3-5.7
						c5.2-0.6,9.9,3,10.7,8.3l12.5,100.6C663.3,321.6,659.7,326.3,654.4,327z"/>
				</g>
			</g>
			<g id="celular_4_">
				<g>
					<path class="st15" d="M601.2,244.4L601.2,244.4c-4,0.5-7.6-2.3-8.1-6.3l-1.6-12.4c-0.5-4,2.3-7.6,6.3-8.1l0,0
						c4-0.5,7.6,2.3,8.1,6.3l1.6,12.4C608,240.3,605.1,243.9,601.2,244.4z"/>
				</g>
			</g>
			<g id="mão">
				<path class="st9" d="M667.7,317.3c-3.8,1.8-8.7,3.4-13.2,4.8l0,0c-1,0.3-1.9,0.6-2.9,1l0,0c-4.1,1.4-7.4,2.8-8.7,4.5
					c-0.5,0.6-0.3,0.3-1,1.3c-0.5,0.6-3.3,2.7-6.7,5.2c0,0-0.1,0-0.1,0.1c-6.5,4.8-15.5,10.9-15.5,10.9c-1.3,1-2.4,1.8-3.4,2.8l0,0
					c-5.1,4.8-5.9,9.4-8,12.1l0,0c-1,1.1-2.1,1.9-4,2.4c-5.9,1.4-12.5-2.1-17.7-6.9c-6.4-5.9-10.9-13.7-9.4-16.5
					c0.6-1.1,3-2.7,3.8-6.3c0.5-1.9,1.3-4.3-2.5-12.1c-1.2-2.4-2.1-4.8-2.7-7.5c-1.1-4.6-1.2-9.5-1-14.3c0-1.4,0.1-2.9,0.3-4.3
					c1.6-20.7,1.2-20.5,1.1-21.4c0-0.5-0.1-1-0.3-1.7c-1.2-5.7-4.8-17.6,1.4-18.1c0.8-0.1,1.9,0,3.3,0.5c6.2,2.1,9.4,10,11.3,18.4
					c1.7,7.1,2.4,14.5,3.3,18.8c0.3,1.8,1.3,3.5,2.1,3.5c1.8-0.1,1-10.5,6.4-23.7c1.1-2.7,1-1.8,2.2-4.9
					c5.4-12.9,4.3-19.2,10.8-28.5c0.5-0.8,0.8-1.2,1.6-2.2c5.4-7,8.9-11.4,12.4-11.1c2.3,0.3,4.8,2.4,5.4,4.8
					c1.3,4.3-2.9,6.9-7.9,16.2c-0.3,0.6-5.1,9.4-6.3,20.8c-0.8,6.7,0.3,7.4,0.6,7.5c1.3,0.6,3.4-2.9,7.1-6.2c5.2-4.5,7.1-3,14-7
					c4.1-2.4,6.7-5.7,9.7-9.2c0.5-0.6,1.1-1.1,1.8-1.6c2.3-1.6,5.4-2.2,7.6-0.1c2.9,2.8,2.2,8.4,0.3,11.5c-0.8,1.4-1.7,2.7-2.5,3.8
					c-3.4,4.5-7.1,7.5-12.5,10.7c-6.7,4-8.6,6.4-10.8,8.7c-3,3.2-4.9,5.2-4.5,6.3c1.1,2.1,12,1.1,20.5-4.8c3.6-2.5,5.9-5.4,8.6-6.8
					c1.3-0.8,2.7-1.1,4.3-1.1c0.6,0,3.2,0.3,4.5,2.1c3.5,4.8-0.3,9.4-4.3,12.9c-1.4,1.2-3,2.2-4.3,3c-3.6,2.3-7.5,4.1-11.4,5.9
					c-1.6,0.8-6.2,3.6-8.4,4c1.1,0.8,2.3,1.9,3.6,2.5c6,2.8,13.2-2.9,19.2-4.6c0.5-0.1,1-0.3,1.6-0.3c3.4-0.6,6.9,0.3,8.4,3.8
					C676.5,311.6,673,314.8,667.7,317.3z"/>
				<g id="Camada_3">
				</g>
				<path class="st0" d="M657.1,320.8c-0.3,0.1-1.1,0.6-2.5,1.6l0,0c-1,0.3-1.9,0.6-2.9,1l0,0c-4.1,1.4-7.4,2.8-8.7,4.5
					c-0.5,0.6-0.3,0.3-1,1.3c-0.5,0.6-3.3,2.7-6.7,5.2c0,0-0.1,0-0.1,0.1c-5.6,3.6-10.9,7.1-14.4,9.8c-2.1,1.6-3.4,2.7-4.5,3.8l0,0
					c-0.6,0.6-1.1,1.1-1.4,1.7c-3.4,4.3-3.8,8.3-6.5,10.3l0,0c-0.8,0.6-1.7,1.1-2.9,1.4c-5.9,1.4-12.5-2.1-17.7-6.9
					c7.8,2.4,10.3,1.8,11,0.8c2.1-3.2-7.6-12.4-5.7-14.6c0.8-1,2.5,0.3,6.5,0c7.1-0.6,14-4.6,18.9-9.8c2.2-2.4,4.3-5.2,5.4-8.4
					c1.2-3.8,1-9.1,4-10.9c1.4-1,3.2-0.8,4.5-0.5c5.6,0.8,7.3,5.6,12.1,8.4C646.7,320.6,650.7,321.8,657.1,320.8z"/>
			</g>
		</g>
		<path class="st2" d="M502.7,504.9c-21.2-16.6-15.3-48.9-13.7-53.3c5.4-14.9,15.1-27.5,24.8-40c21.1-27,42.1-53.9,63.4-80.9
			c16.4,10,32.6,20,48.9,30c-38.8,48.1-54.2,85.6-60.8,111.8c-2.5,9.9-7,30.8-23.2,38.3C529.3,516.9,513.1,513,502.7,504.9z"/>
	</g>
	<g>
		<ellipse class="st14" cx="817.6" cy="168.7" rx="21" ry="25.4"/>
		<ellipse class="st13" cx="821.2" cy="167.9" rx="17.7" ry="21.2"/>
	</g>
	<path class="st2" d="M819.1,177.5c-4-1.7-5.6-6.3-5.6-9.4c0-1.9,0.5-3.4,1-4.8c1.1-3.4,2.8-5.4,3.4-6.4c0.8-1.2,2.8-4.9-1.8-19.1
		c-2.1-6.3-3.8-12-8.7-20.2c-4.6-7.9-11.4-19.2-25.1-28.8c-3.5-2.5-15.5-10.5-32.6-13.5c-10.3-1.7-18.1-0.8-18.1-1.6
		c0-1,14-5.1,28.8-2.9c33.2,4.9,51.5,38.6,52.9,41.5c3.3,6.2,9.4,17.8,10.9,29.7c0.5,4,0.6,8.3,3,14.2c2.2,5.4,4.3,6.5,4.3,10.5
		c0,4.3-2.3,9.9-6.9,11.3C822.2,178.5,820,177.8,819.1,177.5z"/>
	<path class="st10" d="M569.4,621.8"/>
	<g>
		<path class="st16" d="M813.8,627.6c1.6-4.8,12.9-7,21-3.6c7.6,3.2,7.3,6.7,16.7,18.4c8.3,10.3,8.9,11.9,9.4,13.8
			c1.9,6-1.7,13,1.3,18.6c1.9,3.8,6.4,7.4,10,6.5c10.5-2.5,6.8-21.3,4.8-28.6c-3.8-14-17.2-21.8-21.3-35.7
			c-3.3-10.7,0.8-12.2-3.6-23.4c-3.4-8.4-7.4-11.9-6.3-18.1c0.8-4.8,4-5.9,6.3-12.7c1.8-5.6,2.3-10.5,2.3-13.5
			c-2.1-4.8-4.1-9.4-6-14c0.6-6,0.8-13,0.5-20.7c-0.3-4.8-0.8-9.1-1.4-13.2c-2.8,0.8-4.9,1.7-6.7,2.7c-1.7,1-2.7,2.1-3.8,3
			c-5.1,4.8-7.9,9.8-11.6,15.5c-4.5,6.7-9.2,0.3-16.1,0c-5.4-0.1-10.2,1.9-13.7,4.1c-6.5-5.4-13-11.3-20.1-16
			c-2.1,9.2-1.4,16.2-0.6,21.1c0.8,4.8,1.7,5.2,2.3,9.8c1.2,9.9-1.9,12.2-0.5,19.2c1.3,6.4,4.3,13.8,6.5,13.5
			c2.9-0.3,6.8-12.5,2.3-18.8c-4.8-6.8-16.2-3-33.8-3.3c-32.9-0.5-33.7-14-57.3-11.8c-23.4,2.2-28.5,16.1-49.7,12.7
			c-12.4-1.9-22.7-8.6-22.3-11.8c0.8-8,15.4-3.4,17.1-7.4c0.8-1.6-2.7-4.3-2.9-4.6c-4.3-3.6-14.8-4.3-19.9-1.9
			c-9.5,4.6-12.6,18.6-8.7,26.8c4.5,9.5,17.6,9.9,17.3,14.2c-0.3,4-11.3,3.5-27.8,10.9c-15.5,6.9-15.9,11.8-24.8,12.1
			c-11.8,0.5-17.7-7.5-24.2-3.6c-4.1,2.3-6.5,8.1-5.2,12.4c1.6,5.2,9.2,6.9,24.2,10c12.2,2.5,18.3,3.8,24.2,2.8
			c7.6-1.3,13.3-4.8,24.7-11.9c4.8-2.9,8.7-5.7,11.4-7.6c-22.2,3.5-38.8,13.2-45.4,22.4c-1.7,2.4-3.8,6.5-7.9,14.9
			c-3,6.3-4,8.9-3,11.5c1.2,3.2,4.8,4.9,7.3,5.4c5.4,1,10.2-2.5,12.5-5.7c3.4-4.5,1.6-7.8,4-12.5c2.8-5.6,8.9-8.1,15.6-10.3
			c16.7-5.4,29.7-6.2,41.6-7.9c25.1-3.5,22.1-7.5,37-7.9c14.4-0.3,17,3.3,44.8,9.1c34.8,7.3,33.8,2.1,43.6,7.9
			c18.6,11,20.3,28.8,38.5,37c2.8,1.2,7.9,3.8,11.3,8.9c3,4.3,1.8,9.4,3.8,14.2c1.3,2.9,3.8,5.4,7.1,5.6c3.2,0.3,6-1.9,7.6-4.5
			c2.5-4.1,4.3-10.3,2.8-15.1c-2.4-7.5-8-8.7-20.7-19.9C819.5,638.5,812.2,632.1,813.8,627.6z"/>
		<path class="st17" d="M553.3,587.3c-0.8,0.8,1.1,3.8,2.8,5.7c6.2,6.7,17.6,5.6,23.2,5.1c11-1.1,19.2-5.6,24-8.9
			c6.4-4.5,13.7-11.8,12.4-14c-1.3-2.2-10.5,1.2-16.4,3.4c-4.3,1.6-9.7,3.6-15.5,7.9c-3.8,2.8-3.5,3.3-5.7,4.3
			c-6.5,2.8-14.3,0-17.3-1C556.5,588.2,553.9,586.4,553.3,587.3z"/>
		<path class="st17" d="M585.4,612.7c0.3,0.6,8.7-1.3,25.4-5.4c8.9-2.2,10.8-2.7,12.4-3.3c9.5-3.2,11.9-5.4,19.7-8.7
			c14-5.9,25-5.9,24.8-7.5c-0.1-0.8-2.8-0.8-11.3-3c-4.9-1.3-5.1-1.6-6.7-1.8c-6.3-0.8-11.4,3-15.7,6c-2.9,1.9-9.4,5.4-22.1,12.1
			C596.5,609.4,585.2,612,585.4,612.7z"/>
		<path class="st17" d="M665.4,552.1c0.6,2.8,14.9-1.9,35.9,3c19.9,4.8,22.1,12.6,36.9,14c21.2,1.8,41.1-12.6,40-17
			c-1.1-4.1-19.7,3.5-49.1-3.6c-15.5-3.8-19.7-8.3-32.7-7.9C679.5,541.1,664.8,549.2,665.4,552.1z"/>
		<path class="st17" d="M795,536.4c2.2,0.8,4.8-2.2,6.7-3.2c2.5-1.3,5.2-2.3,8.1-2.7c5.4-1,11,0.6,16.2,2.3c1.4,0.5,5.1,2.4,4.8-0.6
			c-0.3-1.6-2.8-2.9-3.8-3.8c-2.5-2.1-4.8-2.5-7.9-3.4c-2.8-0.8-5.2-2.3-8.1-2.7c-2.5-0.3-4.5,0-7.8,0.8c-2.8,0.8-5.6,1.7-7.9,3.5
			c-1.4,1.1-2.9,2.5-3,4.8C792.1,533.4,793.2,535.8,795,536.4z"/>
		<path class="st18" d="M786.6,573.9c0-0.1,0.1-0.3,0.3-0.6c0.3-0.3,1.1-0.1,1.4,0c6.4,2.4,9.1,4.8,9.1,4.8
			c3.8,3.2,7.5,4.8,11.3,6.2c8.4,3.3,15.7,2.4,18.6,1.1c1.8-0.8,2.1-1.4,6.4-3.8c4.5-2.5,8.9-4.8,9.8-3.8c0.5,0.5-0.5,2.7-2.3,7
			c-2.2,4.9-3.3,7.4-3.4,7.5c-3,4.6-6.7,9.5-12.1,10.7c-4.3,0.8-8.4-1.2-12.2-3.3c-4.1-2.3-7.9-5.4-11.6-8.1
			c-4.8-3.8-10-7.6-14-12.5C786.9,577.3,786.1,575.3,786.6,573.9z"/>
		<path class="st18" d="M701.1,594.9c8.9,0.3,14.9,3,19.6,4.8c21.9,7.8,28.5-0.8,43.9,7.9c9.9,5.6,15.6,13.8,15.4,14.2
			c-0.1,0.1-2.8-2.5-7.5-3.6c-2.1-0.5-3.5-0.3-4.6-0.3c-2.1,0-5.9-0.5-13.3-1.6c-14-2.1-21-3-29.6-5.2c-10.9-2.8-11.9-4.3-21.7-6
			c-10-1.8-15.3-1.3-17-1.2c-9.5,1-14.9,4.5-15.4,3.6c-0.6-1.1,6.9-8,17.1-10.8C689.3,595.9,694,594.6,701.1,594.9z"/>
		<path class="st9" d="M778.2,515.8c0.8-0.3,1.3,0.1,8.9,7.9c2.3,2.4,3.4,3.5,3.2,4.8c-0.3,1.7-1.8,2.1-4.6,4.6
			c-3.8,3.5-3.8,5.9-5.2,5.9c-2.5-0.1-4-8.4-4.1-14.4C776.5,520.9,776.4,516.5,778.2,515.8z"/>
		<path class="st9" d="M845.4,532.8c-1,0.6-2.5-1.9-6-4.1c-5.4-3.2-9.2-1.6-10.2-3.8c-0.3-0.6-0.6-2.1,6.2-10.2
			c5.1-6,7.8-9.1,9.2-8.4c1.1,0.5,1.1,3.8,1.1,10.8c0,5.9-0.5,5.7-0.3,9.5S846.3,532.3,845.4,532.8z"/>
	</g>
</g>
</svg>
