<?xml version="1.0" encoding="utf-8"?>
<!-- Generator: Adobe Illustrator 22.0.1, SVG Export Plug-In . SVG Version: 6.00 Build 0)  -->
<svg version="1.1" id="Camada_1" xmlns="http://www.w3.org/2000/svg" xmlns:xlink="http://www.w3.org/1999/xlink" x="0px" y="0px"
	 viewBox="0 0 1366 768" style="enable-background:new 0 0 1366 768;" xml:space="preserve">
<style type="text/css">
	.st0{display:none;fill:#269DC6;}
	.st1{display:none;fill:#29ABE2;}
	.st2{fill:#FF9370;}
	.st3{fill:#FF561F;}
	.st4{fill:#8D1CFF;}
	.st5{fill:#470E80;}
	.st6{fill:#6A15BF;}
	.st7{display:none;}
	.st8{display:inline;fill:#8D1CFF;}
	.st9{display:inline;fill:#6A15BF;}
	.st10{fill:#8C1AFF;}
	.st11{fill:#FFB096;}
	.st12{fill:#4D4D4D;}
	.st13{fill:#FF926E;}
	.st14{opacity:0.2;enable-background:new    ;}
	.st15{fill:#FFFF00;}
	.st16{opacity:0.3;fill:#AABF00;enable-background:new    ;}
	.st17{fill:none;}
	.st18{fill:#889900;}
	.st19{fill:#FFFFFF;}
	.st20{fill:#E0FBF5;}
	.st21{display:inline;fill:#4D4D4D;}
	.st22{fill:#6EEDCF;}
</style>
<g>
	<g id="ENFEITES">
		<polygon class="st0" points="1344.9,541.6 673.2,411.1 673.2,-43.5 1344.9,87 		"/>
		<polygon class="st1" points="1.5,543.6 673.2,413 673.2,-41.5 1.5,89 		"/>
	</g>
	<g id="PESCOÇO">
		<path class="st2" d="M846.6,313c-9.1,8-15.8,4.4-61.6,6.5c-39.1,1.8-49.9,5.2-54.5-1.8c-6.2-9.3,11.1-19.8,15.5-52.2
			c2-14,1.8-34.9,0.8-48.2c-0.3-4.6-1.5-17.6,4.3-32.2c0.5-1.1,0.9-2.3,1.5-3.5c10.8-19.8,47.9-28.9,62.2-16.1
			c11.4,10.2,0.9,27.7,8.5,48.7c1.1,3.1,2.6,6.2,4.7,9.4c1,1.5,2,2.9,2.9,4.1c0.6,0.8,1.2,1.5,1.8,2.3c-1.5,4.4-3.2,8.4-4.7,11.4
			v0.1c-5.2,11.4-11.4,19.8-16.4,25.7c5,8.2,10.1,16.6,15.2,24.9c14.3-13.3,23.3-29.4,25.7-44.7c0.6,1,1.4,2.1,2,3.3
			C864.5,269.6,862.5,299.1,846.6,313z"/>
	</g>
	<g id="roupa">
		<g id="Camada_9">
			<g>
				<path class="st3" d="M722.7,498.6c5.9,28.6,92.5,83.8,140.3,59.6c63.3-31.9,66.5-204.1-9.6-246.8c-21-11.7-46.2-9-69.4-9.9
					c-15.5-0.6-47.9-15.9-59.9-3.3c-11.1,11.4,12.3,35.7,10.6,86.4C733.9,406.5,733.5,421.6,722.7,498.6z"/>
			</g>
		</g>
		<g id="Camada_7">
			<path class="st4" d="M1006.2,424.4c0-1.2-0.1-2.4-0.3-3.7c-1.4-15.3-4.4-30.6-9.3-45.2c-3.3-10.1-7.8-19.5-12-29.2
				c-4.1-9-5.8-19.1-8.7-28.5c-9.9-32.1-9.9-35.5-15.5-41.5c-6.5-6.8-13.7-10-27.6-16c-8.8-3.8-10.2-3.6-32.8-10.7
				c-12.7-4.1-19-6.4-32.3-10.3c-8-2.3-13.7-4-17.9-4.9c-8-1.8-10.3-1.4-12.3,0c-8,5.2-2.3,16.3-11.9,25.9c-5,5-9.9,5.2-14,6.9
				c-2.3,0.9-4.3,2.3-6.3,5c-5.9,8.4-4.2,18.9-3.6,22.8c5.6,37.7-5,21.1,7.1,92.2c0.9,5,1.5,8.4,2.1,11.1c1.6,8.1,2.4,9.5,6.2,29.7
				c6.3,33.5,8.5,51.4,15.9,81.2c0.3,1.2,0.6,2.4,0.9,3.6c3.2,12.9,5.5,21.6,7.9,27l0,0c1,2.3,2.1,4.1,3.2,5.3
				c13.5,14.6,31.2,10.1,81.5,18c11.4,1.8,18.2,7.9,28.1,5.5c3.5-0.9,6.5-2.3,9.3-4.2c0,0,0,0,0.1,0c8.2-5.6,13.7-14.9,17.9-22.1
				c15.3-26,8.7-42.6,23.1-52.8c0.3-0.3,0.9-0.6,1.4-1c1-0.8,2.3-1.6,3.5-2.7l0,0c2.1-1.8,4.1-4.3,5-7.6c0-0.1,0.1-0.3,0.1-0.5
				c0.9-3.3-0.3-6.3-1.4-12.3c0-0.3-0.1-0.3-0.1-0.6c-0.1-1.1-0.3-2.1-0.6-3.1v-0.1L1006.2,424.4z"/>
			<path class="st5" d="M844.3,226.8c0.9,3.6-2,5.5-5.2,5.5c-5.8,0.3-8.7-3.8-11.2-8.2c-0.1-0.1-0.3-0.5-0.6-1.1
				c-1-1.7-1.5-2.6-1.7-2.9c-0.8-1.5-1.1-2.6-1.8-4.8c-0.3-1-0.5-1.5-0.3-1.7c0.8-1.6,7.4-0.6,12.6,2.4c1,0.5,1.6,1.1,2.1,1.5
				C839.7,219.6,843.6,223.4,844.3,226.8z"/>
			<path class="st6" d="M852.4,247.2c-0.1,8.8-3.6,14.8-8.4,23.1c-4.3,7.6-10.1,14.9-17.2,21.6c-5-8.2-10.1-16.6-15.2-24.9
				c5-5.9,11.2-14.4,16.4-25.7v-0.1c2.7-5.5,4.2-9.7,4.7-11.2c0,0,0-0.1,0.1-0.3c0.9-2.6,1.6-5.2,2-7.9c0.1-1.1,0.3-2.3,0.3-3.3
				c0-0.6-0.5-2.6,0.1-2.9c0.6-0.5,1.7,0.5,2.3,0.9c5.3,4.1,7.4,7.8,7.4,7.8C848.6,231,852.6,237.8,852.4,247.2z"/>
		</g>
		<g id="Camada_11" class="st7">
			<path class="st8" d="M681.9,430.2c-3.6,3.1-5.9,2.4-11.1,3.8c0,0,4.9-17.5,3.1-18.2c-1-0.3-3.8,4-8.7,12.3
				c-1.2,2.1-2.6,4.3-4.1,6.9c-1.8,3.2-4,6.7-6.2,10.6c-4.2,7-7.4,12.6-10.2,17c-7.1,11.2-10.6,14.8-16,16.3
				c-6.4,1.8-7.6-1.4-19.8-1.1c-14,0.3-21.7,4.4-28.7,6.1c-10.3,2.3-26.6,0.6-51.4-19.5c29.6-19.8,45.2-40.6,53.9-56.4
				c8-14.4,9.1-22.4,15.7-39.8c3.6-9.6,6.7-16.3,10.1-24.3c0,0,6.5-15.1,15.4-31.5c0.5-1,1.1-2,1.6-2.9c0.9-1.6,2.1-3.6,4.6-7.4
				c0-0.1,0.1-0.1,0.1-0.3c3.2-4.9,7.3-11.7,12.8-14.4c6.8-3.3,10.8,3.5,13.5,9c0.6,1.2,1.1,2.3,1.5,3.3c1.7,3.7,3.3,7.5,4.9,11.2
				c0.3,0.8,0.6,1.5,1,2.3c1.6,3.8,3.2,7.8,4.7,11.7c6.5,16.7,11.9,33.9,15.3,51.6C684,376.2,692.7,420.9,681.9,430.2z"/>
			<path class="st9" d="M667,302.2c-1.1,2.9-2.4,5.8-4,8.5c-6.2,11.4-14.6,20.7-18,22.8c-0.6,0.3-1,0.5-1.2,0.3
				c-0.3-0.1-0.3-0.5-0.3-1.2l0,0c0.3-2.4,2-8.1,0.6-16.6c-0.6-4.2-1.8-11.7-7-14.3c-2.9-1.4-4.9-0.5-7.1-0.1c0-0.1,0.1-0.1,0.1-0.3
				c3.2-4.9,7.3-11.7,12.8-14.4c6.8-3.3,10.8,3.5,13.5,9c0.1-0.3,0.1-0.8,0.3-1.1c1.1-5.9,1.1-9.4,1.6-12c0.5,0.9,0.9,1.6,1.2,2.4
				c0.1-0.3,0.1-0.8,0.3-1.1c0.6-3.5,0.9-6.1,1.1-8.1c0.9-1.5,2.1-2.9,3.5-4c1.1,1.2,2.1,2.4,2.9,3.8
				C671.7,283.5,670.6,293.1,667,302.2z"/>
			<path class="st9" d="M665.3,454.4c-1.4-6.5-2.9-12.9-4.1-19.5c-1.8,3.2-4,6.7-6.2,10.6c-4.2,7-7.4,12.6-10.2,17
				c-3.8-3.6,2.9-10,4.1-28c0.6-9.1-0.6-15.8,2.3-27.6c1.1-4.2,1.8-7.3,3.1-8.2c0.3-0.3,0.5-0.3,0.8-0.3c3.8-0.3,8,17,10.1,29.8
				c0.3,1.7,0.5,3.2,0.8,4.7C667.8,444.8,666.7,451.1,665.3,454.4z"/>
		</g>
		<g id="Camada_10">
			<path class="st4" d="M757.5,360.7c-1.7,11.9-2.3,10.2-8.4,37.1c-10.8,49-16.4,73.3-18,94.6c-1.4,18.6,0.1,25.5-6.1,31.2
				c-10.3,9.5-33.4,7.1-44.7-4.9c-7.3-7.8-8-17.5-8.8-26.3c-1.2-12.8-3.7-25.5-6.3-38c-1.4-6.5-2.9-12.9-4.1-19.5
				c-1.1-5.2-2.1-10.5-2.9-15.7c-1.2-7.6-2.6-14.4-4-20.7c-6.1-29.1-11.6-43.2-12.2-54.3c-0.3-4.1,0.3-7.8,1.6-11.7l0,0
				c0.3-1,0.8-2,1.2-2.9c2.4-5.3,9.6-23.1,11.7-33.6c0.1-0.3,0.1-0.8,0.3-1.1c1.1-5.9,1.1-9.4,1.6-12c0.1-0.9,0.3-1.6,0.5-2.3
				c0.1-0.3,0.1-0.5,0.3-0.8c0,0,0.6-1.5,1.4-2.9c0.1-0.3,0.3-0.6,0.5-0.9c0.9-1.5,2.1-2.9,3.5-4c6.2-5.5,16.1-7.9,23.1-10.6
				c17.6-7.1,18.6-10.6,40.3-17.8c9.1-2.9,11.9-3.1,13.2-2.9c0,0,0.3,0.1,0.6,0.1c6.4,2,10,13.1,15.4,29.5c3.5,10.5,4.6,14,3.6,19
				c-1,4.6-2.4,5.8-4.4,9.6c-5.5,10.8,3.8,17,3.6,38.9C759.5,347,757.8,358.3,757.5,360.7z"/>
		</g>
		<g id="Camada_20">
		</g>
		<path class="st6" d="M728,239.8c-2.6,5.6-1,11.1,1.2,21.9c1.4,6.4,4,15.9,9.6,26.8c2.1-2.6,4.4-5.3,7.1-8c3.8-3.8,7.5-7,11-9.7
			c-3.1-7-6.5-17-8.2-29.4c0-0.1,0-0.1,0-0.1c-0.3-2.7,2.7-4.7,5.5-7.9c0.6-0.8,5-6.1,3.6-8.4c-0.6-1.1-2.3-1.1-4-1.2
			c-3.8-0.1-6.8,1.2-7.6,1.6C738.5,228.9,731.4,232.3,728,239.8z"/>
	</g>
	<g id="CABEÇA">
		<path class="st10" d="M861.2,67.8"/>
		<g>
			<path class="st11" d="M711,99.2c-6.3,10.6-3.7,20.5-2.6,37.4c1.8,28.9-3.8,27.1-1.1,43.5c1.2,7.5,8.7,45.8,36.4,54
				c14,4.2,27.8-1.7,40.3-7.9c9.4-4.7,26.5-12.3,26-24.8c-0.3-4.7-3.3-7.4-1.6-11.9c2.1-5.5,10-7.4,14-11.2
				c8.7-8.4,19.8-47.9-4.4-41.9c-7.1,1.8-11.7,10-11,17c-1.7-4.4,1.2-10,2.1-14.6c7.8-45.8-43.4-75.9-82.9-53.5
				C721.8,88,715.4,91.8,711,99.2z"/>
			<path class="st12" d="M704.9,115.2c1,11.4,7.1,19.6,12.9,20.1c9.6,0.8,19.2-19.9,15.4-24.2c-0.6-0.8-1.7-1.1-2.6-0.8
				c-4.1,1.8-2.3,23.9,5.9,26.9c9.4,3.2,26.3-17.9,23.1-23.6c-0.8-1.4-2.9-2.1-4.1-1.5c-4.4,2.3-2.3,24.2,6.7,27.2
				c10.1,3.5,27-17.5,23.9-22.8c-1.1-2-5.5-2.4-7.9-0.8c-5.9,4.3-2.3,25.1,5.9,27.6c9.5,2.7,24.6-18.6,21.7-22.8
				c-0.9-1.2-3.7-1.5-5.5-0.3c-5,3.2-1,12.8,0.3,17.2c2.4,8.8,0.6,19.8-2.6,28.3c-0.8,1.8-1.7,4.2-1.2,6.2c0.5,2.4,3.3,2,5,1.1
				c4-2,3.3-6.1,3.7-9.7c0.3-4.9,2.1-10.8,4.1-15.3c1.7-4.1,4.7-8.2,9.3-9.3c7.5-1.7,13.3,4.6,13.5,11.6c0.3,6.4-2.6,13.1-6.1,18.2
				c-5.3,7.8-10,7.3-11.6,13.5c-1.2,4.9,0.3,10.2,2.7,14.6c1.5,2.7,3.2,5.3,5.2,7.6c0.6,0.8,2.1,2.9,3.2,2.9c1.5,0,0.5-1.5,0.1-2.3
				c-1-2.7-2.1-5.5-2.3-8.4c-1.1-12.8,10.2-17.9,18.4-35.4c6.3-13.5,8.4-30,5.5-31.2c-2.3-0.9-5.3,3.3-5.6,5c-0.9,3.7,2,5.6,3.6,8.4
				c2.1,3.7,2.7,8,2.9,12c4.4-7.3,6.5-16.1,7.6-24.5c0.8-5.5,4.4-21.4-2.7-24.4c-3.2-1.4-6.9,1.7-7.5,5c-1.1,6.4,5.5,12.6,7.8,18.2
				c4.2,10.2,2.4,17.2,3.3,17.2c2.3,0.1,15.1-45.3-2.6-58.1c-5.9-4.3-15.2-4.7-21.3-1.5c-10.3,5.3-13.5,21-12.6,21.3
				c1.4,0.6,19.9-25.1,13.1-35.6c-5.5-8.2-27-7.1-29.8-0.8c-1.8,4.3,4.1,12.6,7.9,12c2.9-0.3,4.2-5.5,4.4-6.3
				c3.2-11.2-5.3-30.4-18.2-30.6c-9.3-0.1-17.5,9.6-19,18.7c-1.4,8.4,2.9,17.5,5.2,17.2c2.4-0.1,5.2-10.1,3.3-18.4
				c-3-14.2-20.6-29.5-34-24.7c-14.9,5.3-18.4,33.9-9.7,40.8c4.2,3.3,12.2,2.7,14.2-0.8c2.9-5.3-7.3-20.2-21.3-24.6
				c-17.8-5.5-33.5,8.1-34.4,8.8c-16.7,14.9-12.6,39.3-12.3,40.8c1.7,9.9,5.9,10.8,7.9,23.9c2,13.3-1,23,1.1,23.6
				c1.5,0.3,5.5-5,7.9-12c5.8-17.4-1.4-35.9-2.3-35.6C703.8,105.2,703.8,107.3,704.9,115.2z"/>
		</g>
	</g>
	<g id="FUMAÇA">
		<path class="st4" d="M590.4,237.7"/>
	</g>
	<g id="PLANTAS">
		<path class="st6" d="M1002.2,457.9c2.4-10.6,2.9-21.9,3.2-31.9c-2.6,18.5-1.7,37.4-3.8,55.6c-0.6,5.6-1.7,8.4-5.9,20.8
			c-10.7,31.5-9.7,32.5-14,39.7c-4.2,7.1-9.6,16.4-17.9,22.1c0,0,0,0-0.1,0c-2.9,1.7-5.6,2.9-8.2,3.5c-1.6,0.3-3.5,0.6-3.5,0.6
			c-4.2,0.3-8.5-1.8-24.9-5.3c-51.6-10.8-68.3-3.7-81.5-18c-1.6-1.7-2.9-3.5-4.1-5.3c-6.3-9.7-7.6-20.8-7.9-27c-0.1-1.6,0-2.9,0-3.6
			c0.6-38,40-45.6,55.8-89.3c15.9-43.8-5.3-86.4,0.1-87.6c4.1-1,14,24.6,19.1,43.8c3.2,12,4.8,18.1,4.3,23.4
			c-2.3,23.9-26.3,41.2-22.1,51.6c1.8,4.4,5,8.8,5,8.8c1.1,1.6,2.4,3.2,4.6,5.3c2.1,2.1,4.1,3.6,6.1,4.9
			c7.9,5.3,28.3,11.7,35.9,14.2c17.8,5.6,22.5,8.4,31.2,6.7c0.3-0.1,5.9-1.5,11.1-4.9C994.7,479.2,999.6,469,1002.2,457.9z"/>
		<g id="MESA">
			<g>
				<path class="st13" d="M1084.5,564.3v43.2c-83.6,24.8-167,49.4-250.6,74.2C633.6,647.5,433.2,613.3,232.9,579v-53.6l291.8-33.3
					l176.6,22.8l0,0l183.9,23.7L1084.5,564.3z"/>
			</g>
		</g>
		<g id="objs_x5F_mesa">
			<g id="notebook">
				<g id="inf_x5F_note">
					<path class="st14" d="M964.8,616.2c0,1.7-2.1,3.6-6.1,5.5c-1.6,0.8-3.6,1.5-5.8,2.1l-143.4,43.5c-59-16-127.6-38.7-186.6-54.7
						l155.2-30.9c12.8-3.8,30.6-4.8,39.7-2.3l141.6,32.9C963.1,613.2,964.8,614.6,964.8,616.2z"/>
					<path class="st15" d="M961.3,600v9.5c0,2.3-4.1,5.2-11.9,7.4l-142.7,42.2L629.5,611l16.7-4.9l160.6,43.6l142.7-42.3
						c2.3-0.6,4.2-1.4,5.8-2.1C959.2,603.5,961.3,601.6,961.3,600z"/>
					<path class="st15" d="M961.3,600c0,1.7-2.1,3.6-6.1,5.5c-1.6,0.8-3.6,1.5-5.8,2.1l-142.7,42.3L646,606.2l-16.7-4.6l142.7-42.3
						c12.8-3.8,30.6-4.8,39.7-2.3l144.1,39.1C959.5,597.1,961.3,598.5,961.3,600z"/>
					<path class="st16" d="M899.4,586.6c0,0.6-0.9,1.4-2.3,2.1c-0.6,0.3-1.4,0.6-2.3,0.9l-56.1,16.6L775.6,589l-6.5-1.7l56.1-16.6
						c5-1.5,12-1.8,15.7-1l56.6,15.4C898.8,585.4,899.4,586,899.4,586.6z"/>
					<line class="st17" x1="961.3" y1="642.6" x2="961.3" y2="634.5"/>
					<line class="st17" x1="961.3" y1="625.1" x2="961.3" y2="620"/>
					<path class="st12" d="M961,600c0,1.7-2.1,3.6-6.1,5.5c-1.6,0.8-3.6,1.5-5.8,2.1l-142.7,42.3l-160.6-43.6l-16.7-4.6l142.7-42.3
						c12.8-3.8,30.6-4.8,39.7-2.3l144.1,39.1C959.3,597.1,961,598.5,961,600z"/>
					<polygon class="st18" points="806.7,659.2 629.4,611.1 629.4,601.5 806.7,649.7 					"/>
				</g>
				<g id="book">
					<path class="st14" d="M534.1,501.1c21.8,8.8,105.4,24.2,127.2,33c21.8,8.8,43.6,14,65.4,23c-31.8,9.1-64.8,18-96.7,27.1
						c-34.2-11.6-159.1-43.8-193.5-55.4C459.1,513.3,511.6,516.3,534.1,501.1z"/>
					<path class="st12" d="M717.5,552.6c0,0.9-1.2,1.7-3.5,2.6c-0.9,0.3-2,0.8-3.3,1l-81.2,20.4l-91.4-21l-9.5-2.3l81.2-20.4
						c7.3-1.8,17.4-2.3,22.5-1.1l82.1,18.9C716.5,551.1,717.5,551.9,717.5,552.6z"/>
					<path class="st12" d="M435.2,528.2c0,0.9,1.2,1.7,3.5,2.6c0.9,0.3,2,0.8,3.3,1l81.2,20.4l91.4-21l9.5-2.3l-81.2-20.4
						c-7.3-1.8-17.4-2.3-22.5-1.1l-82.1,18.9C436.1,526.7,435.2,527.4,435.2,528.2z"/>
					<path class="st19" d="M622,526.8l-9.5,2.3l-91.4,21l-81.2-20.4c-1.2-0.3-2.3-0.6-3.3-1c-2.3-0.9-3.5-1.7-3.5-2.6
						c0-0.3,0.3-0.6,0.6-1c0.5-0.3,1.2-0.6,2.3-0.9l0,0h0.1l82.1-18.9c5.2-1.2,15.3-0.8,22.5,1.1l72.2,18.1l0.3,0.1l0,0l4.3,1.1l0,0
						L622,526.8z"/>
					<path class="st19" d="M622,524.7l-4.4,1l0,0l-5,1.2l-91.4,21h-0.1l-81.1-20.4c-1.2-0.3-2.3-0.6-3.3-1c-1.2-0.5-2.3-1-2.9-1.5
						c-0.5-0.3-0.6-0.8-0.6-1.1s0.3-0.8,0.6-1c0.5-0.3,1.2-0.6,2.3-0.9l82.1-18.9c5.2-1.2,15.3-0.8,22.5,1.1l76.7,19.2h0.1
						L622,524.7z"/>
					<path class="st19" d="M622,522.7l-4.3,1l-4.4,1l-0.8,0.1l-91.4,21l-0.3-0.1l-81-20.4c-1.2-0.3-2.3-0.6-3.3-1
						c-0.3-0.1-0.3-0.1-0.5-0.3c-1-0.3-1.7-0.9-2.3-1.2c-0.5-0.3-0.6-0.8-0.6-1.1c0-0.8,1-1.4,3.1-1.8l82.1-18.9
						c5.2-1.2,15.3-0.8,22.5,1.1L622,522.7z"/>
					<polygon class="st14" points="622,524.7 617.6,525.7 622,526.8 622,528.5 521.1,550 521,547.9 520.8,545.7 520.7,544.2 
						612.9,524.6 617.4,523.6 622,522.7 617.7,523.6 					"/>
					<path class="st19" d="M717.5,546.6c0,0.9-1.2,1.7-3.5,2.6c-0.9,0.3-2,0.8-3.3,1l-81.2,20.4l-91.4-21l-9.5-2.3l81.2-20.4
						c7.3-1.8,17.4-2.3,22.5-1.1l82.1,18.9C716.5,545.2,717.5,545.8,717.5,546.6z"/>
					<path class="st19" d="M717.5,548.7c0,0.9-1.2,1.7-3.5,2.6c-0.9,0.3-2,0.8-3.3,1l-81.2,20.4l-91.5-21l-9.5-2.3l81.2-20.4
						c7.3-1.8,17.4-2.3,22.5-1.1l82.1,18.9C716.5,547.3,717.5,547.9,717.5,548.7z"/>
					<path class="st19" d="M717.5,550.7c0,0.9-1.2,1.7-3.5,2.6c-0.9,0.3-2,0.8-3.3,1l-81.2,20.4l-91.4-21l-9.5-2.1l81.2-20.4
						c7.3-1.8,17.4-2.3,22.5-1.1l82.1,18.9C716.5,549.3,717.5,550,717.5,550.7z"/>
					<path class="st20" d="M535.9,534.4c0,0.3-0.3,0.5-0.9,0.6c-0.3,0.1-0.5,0.1-0.9,0.3l-21.2,5.3l-67.2-16.1l-2.4-0.6l21.2-5.3
						c1.8-0.5,4.6-0.6,5.9-0.3l64.7,15.8C535.6,534.1,535.9,534.4,535.9,534.4z"/>
					<path class="st20" d="M594.2,518.9c0,0.3-0.3,0.5-0.9,0.6c-0.3,0.1-0.5,0.1-0.9,0.3l-21.2,5.3l-67.2-16.3l-2.4-0.6l21.2-5.3
						c1.8-0.5,4.6-0.6,5.9-0.3l64.7,15.8C593.9,518.6,594.2,518.8,594.2,518.9z"/>
					<path class="st20" d="M538.3,520c-7.8,2-15.5,4.1-23.3,6.1l-39.2-9.1l-2.4-0.6c8.5-2.3,17.2-4.3,25.7-6.5
						C512.2,513.3,525.3,516.6,538.3,520z"/>
					<path class="st20" d="M566,527c0,0.3-0.3,0.5-0.9,0.6c-0.3,0.1-0.5,0.1-0.9,0.3l-21.2,5.3l-23.7-5.5l-2.4-0.6l21.2-5.3
						c1.8-0.5,4.6-0.6,5.9-0.3l21.3,4.9C565.7,526.6,566,526.8,566,527z"/>
					<path class="st20" d="M640.4,560.7c0,0.3-0.3,0.5-0.9,0.6c-0.3,0.1-0.5,0.1-0.9,0.3l-21.2,5.3l-67.2-16.3l-2.4-0.6l21.2-5.3
						c1.8-0.5,4.6-0.6,5.9-0.3l64.7,15.9C640.1,560.4,640.4,560.4,640.4,560.7z"/>
					<path class="st20" d="M698.6,545.8c0,0.3-0.3,0.5-0.9,0.6c-0.3,0.1-0.5,0.1-0.9,0.3l-21.2,5.3l-67.2-16.3L606,535l21.2-5.3
						c1.8-0.5,4.6-0.6,5.9-0.3l64.7,15.8C698.3,545.4,698.6,545.7,698.6,545.8z"/>
					<path class="st20" d="M670.6,553.2c0,0.3-0.3,0.5-0.9,0.6c-0.3,0.1-0.5,0.1-0.9,0.3l-21.2,5.3l-67.2-16.3l-2.4-0.6l21.2-5.3
						c1.8-0.5,4.6-0.6,5.9-0.3l64.7,15.8C670.2,553,670.6,553.1,670.6,553.2z"/>
					<line class="st17" x1="766.9" y1="592.2" x2="766.9" y2="585.2"/>
					<line class="st17" x1="766.9" y1="577.3" x2="766.9" y2="573.1"/>
					<path d="M718.6,606.1"/>
					<path class="st20" d="M489.9,576.4"/>
				</g>
				<g id="SUP_x5F_note" class="st7">
					<path class="st21" d="M621.7,576.3l-1.1-0.3l-26.5-5.6l-15.3-3.2l-169.9-36l-8.4-16.9L340.9,394c-6.1-12.3-2.1-20.4,8.8-18
						l172.9,36.7c11,2.3,24.8,14.2,30.9,26.5l20.7,41.8l12,24.4l1.7,3.3l5.9,12l18.9,38l4,7.9l4.7,9.4L621.7,576.3z"/>
				</g>
			</g>
		</g>
	</g>
	<g id="BRACO_x5F_ESQ">
		<g id="MAO_x5F_DIR_1_">
			<path class="st14" d="M885.1,538.5L885.1,538.5c-6.9,6.4-14.8,8.1-18.5,9c-49.9,10.8-45.8,14-69,15.7
				c-26.9,1.7-30.9-2.6-49.1,2.4c-5,1.4-3.8,2.3-27.6,9.4c-4.1,1.2-16.1,4.7-29.6,9.5c-17.2,6.2-19.8,8.2-26.6,7.8
				c-1.6-0.1-16.3-1.5-21.3-11.9c-3.5-7-1.7-16.3,0.8-16.9c0.9-0.3,1.5,0.9,3.5,1.1c2.6,0.3,4.8-0.9,5.8-1.5
				c6.2-3.5,18.1-22.4,22.4-28.3c4.1-5.5,10.7-12.5,22.2-18.2c0.1-0.1,0.3-0.1,0.3-0.3c0,0,1-0.6,2.7-1.5l0,0L885.1,538.5z"/>
			<path class="st11" d="M666.1,527.2c-0.1-0.1-0.1-0.3-0.1-0.3c-0.3-0.8-0.3-2.6,5.5-8.2c5.3-5.2,10.7-10.5,16.7-15.1
				c3.7-2.9,8.5-6.8,13.5-6.3c5.8,0.6,11.9,3.2,17,5.6c3.8,1.8,2.3,2.6,0.3,4.9c-3.3,4.1-6.9,9.5-12.2,10.5
				c-4.7,0.9-10.7-1.1-15.1,1.1c-2.9,1.5-3.2,2.7-4.8,4.2c-1,0.9-1.8,1.4-2.9,2c-7.3,4.1-7.4,5.3-10.1,5.5
				C670.7,531.1,667.4,529.1,666.1,527.2z"/>
			<path class="st2" d="M676.1,527.3c0.1-1.2,0.9-2.6,1.4-3.5c2.4-3.8,5.5-7.5,9-10.2c2.4-2,9-5.5,10.1-0.9c0.3,1.5-0.3,3.2-1.2,4.4
				c-1,1.2-2.3,2.1-3.7,2.7c-1.4,0.6-2.7,1-4.1,1.7c-2.3,1.1-4.6,2.7-6.4,4.8c-0.6,0.8-1.2,1.5-2,2c-0.8,0.6-1.6,0.9-2.3,0.6
				C676.4,528.8,676.1,528,676.1,527.3z"/>
			<path class="st11" d="M638.1,554.5L638.1,554.5c-0.5-0.3-2.3-1.1-2.6-2.7c-0.1-0.8,0-1.6,0.5-2.6c0.8-1.2,1.8-2.1,2.9-2.9
				c11.4-8.2,24.8-13.1,37-19.9c5.9-3.3,14-8.8,22.2-18.2c1.5-0.9,9.3-5.5,19.5-7.4c18.2-3.6,43.9,0.9,51.7,16.6
				c2.3,4.8,4.3,13.2,0.6,18.2c-3.8,5-8.8,2.3-16.9,8.8c-4.4,3.5-7.1,8.5-11.1,12.3c-4.8,4.8-10.3,6.4-20.8,9.9
				c-5.9,2-9.7,2.9-12.7,3.5c-4,0.8-7.1,1.2-9.1,1.5c-4.9,0.6-5.5,0.5-8.7,0.9c-7.3,1-12.7,3.2-21.3,4.3c-1.2,0.1-3.7,0.5-5.3-1
				c-0.9-0.8-1.6-2.3-1.2-3.3c0.3-0.6,1-1.2,1.5-1.6c-3.3-0.3-7.1,1.7-10.2,2.9c-0.3,0.1-0.8,0.3-1.5,0.3c-1.8,0.1-3.8-0.5-4.9-2
				c-0.3-0.6-0.6-1.2-0.6-1.8c0-1.8,2.6-2.3,2.6-3.6c0-1.4-2.9-2.7-5.2-2.9c-1.7-0.3-2.3,0.1-3.6-0.3c-1.1-0.5-2-1.7-1.8-2.9
				c0.3-1.6,3.1-1.7,2.9-2.9C642,556.2,639.2,554.9,638.1,554.5z"/>
			<path class="st2" d="M653.3,572.1c0.3-0.3,0.6-0.6,0.8-0.8c1.1-1.1,2.6-1.7,4.1-2.4c9.7-4.2,19.8-7.3,30.2-9.5
				c1-0.3,2-0.3,2.9-0.1c1,0.3,1.8,1,2,2c0.1,1.1-0.8,2-1.7,2.4c-1,0.3-2.1,0.3-3.1,0.3c-6.9-0.1-14,1.4-20.2,4.2
				c-4,1.7-5.3,2.9-10.5,4.4c-2.3,0.8-4.1,1.1-5.3,1.4C652.6,573.4,652.9,572.7,653.3,572.1z"/>
			<path class="st2" d="M646.5,562.7c0.3-0.3,0.8-0.5,0.9-0.6c1.4-1,2.6-2,4-2.7c9.5-4.7,19.3-8.5,29.6-11.4c1-0.3,2-0.5,2.9-0.3
				c1,0.1,2,0.9,2.1,1.8s-0.6,2.1-1.6,2.4c-1,0.5-2.1,0.5-3.1,0.5c-6.9,0.3-13.8,2.3-19.9,5.5c-2.6,1.4-4,2.3-6.1,3.3
				c-2.6,1.4-3.6,1.6-4.1,1.7c-1.7,0.5-3.2,0.9-4.7,0.8c-1.4,0-2.3-0.3-2.3-0.3C644.2,563.3,645.2,563.3,646.5,562.7z"/>
			<path class="st2" d="M638.1,554.5c-0.1-0.5,2.6-1.8,10.7-5.8c7.8-3.8,16.3-6.2,24.4-9.4c0.3-0.1,1.6-0.5,2.9-0.1c1,0.3,1.8,1,2,2
				c0.1,1.1-0.8,2-1.7,2.4c-1.4,0.5-2.7,0.3-3.1,0.3c-3.1-0.6-6.7,0.6-9.6,1.6c-5,1.5-9.9,3.6-14.6,5.6
				C647.9,551.5,638.7,556.2,638.1,554.5z"/>
		</g>
		<path class="st4" d="M962.5,390c6.9,4.1,13.2,9.4,18.1,14.6c16.7,18.2,21.8,43.4,22.4,67.5c0.1,4.9-0.9,10.1-3.8,14.2
			c-4.9,6.8-12.8,6.4-19.9,9.1c-23.4,8.5-47.2,15.9-71,23.3c-21.6,6.7-43.2,13.2-64.6,19.8c-10.8,3.5-24.6,5.8-34.4,12
			c-1.5,1-8.1,5.3-17.6,7.4c-4,0.9-7.5,1-12.3,1.1c-3.6,0.1-7.4-0.3-11.4-1.1c-4.4-1-8.8-2.9-12.8-5.6c-23-15.2-37.4-53-26.3-68.6
			c4.3-6.1,11-6.8,24.8-9.6c0,0,36.8-4.8,91.1-26c16.6-6.4,31.2-16.6,44.4-28.3c12-10.6,21.6-25.9,36-33.3
			C937.3,380.2,950.8,383.2,962.5,390z"/>
	</g>
	<g id="braco_x5F_dir_1_">
		<path class="st14" d="M510.8,500.5c-1.6,2.3-3.1,5.5-2.4,8.7c1.8,9.1,20.1,14.6,34.5,11.1c7.9-1.8,18.5-7.3,18.1-12.7
			c-0.5-7.3-19.9-10.5-21-10.7C527.2,494.7,516.5,498.2,510.8,500.5z"/>
		<path class="st4" d="M703.8,360.4c-2.4,7.8-8.7,10.6-13.8,15.7c-16.6,16.4-33.8,31.9-50.9,47.6c-12.2,11.1-24.5,22.1-36.7,33.2
			c-1.7,1.5-3.5,3.1-5,4.6s-3.2,2.9-4.8,4.4c-4.4,4.1-9.9,8.2-14.6,12.8c-3.7,3.5-7.1,7-9.9,10.8c-0.9,1.2-4,5.9-9.3,10.6
			c-1,0.9-2,1.7-3.1,2.6c-2.9,2.3-5.8,3.8-9.5,5.6c-2.9,1.5-5.9,2.6-9.3,3.5c-3.7,0.8-7.5,0.8-11.4-0.1c-8.4-1.7-16.4-7-22.8-14
			c-10-10.7-16-25.3-12.8-36.1c2.1-6.9,7.1-10.1,17.4-17.9c0,0,25.3-16.6,60.5-51.7c0.3-0.5,0.9-0.9,1.4-1.4
			c1.5-1.5,2.9-2.9,4.4-4.4c11.7-12,21.1-26.5,28.9-41.8c7.1-13.8,11.4-30.9,21.1-42.9c8.4-10.3,19.8-12.8,30.4-11.4
			c6.3,0.9,12.5,3.1,17.5,5.9c17.2,9.5,26.6,29.7,32.3,50.5C705,351,705.2,355.8,703.8,360.4z"/>
		<g id="Camada_27_1_">
			<path class="st6" d="M597.2,461.4c-1.6,1.5-3.2,2.9-4.8,4.4c-4.4,4.1-9.9,8.2-14.6,12.8c-3.7,3.5-7.1,7-9.9,10.8
				c-0.9,1.2-4,5.9-9.3,10.6c-7.6-1.1-15.3-5.2-21.6-10.8c14.6-15.1,32.2-38.2,33.4-68c0.5-11.2-1.4-22.3-2.7-29.5
				c-1-4.9-1.6-7.9-1.2-8s1.2,2.4,2.4,6.8c2.3,7.4,5.8,19.9,11.1,33.9C586.1,440.3,592.5,452.7,597.2,461.4z"/>
		</g>
		<g>
			<g id="celular">
				<g>
					<path class="st15" d="M660.5,321.3l-46.1,5.8c-5.3,0.6-10.1-3.1-10.8-8.4l-12.8-102.3c-0.6-5.3,3.1-10.1,8.4-10.8l46.1-5.8
						c5.3-0.6,10.1,3.1,10.8,8.4l12.7,102.3C669.6,315.8,665.9,320.6,660.5,321.3z"/>
				</g>
			</g>
			<g id="celular_1_">
				<g>
					<path class="st22" d="M606.3,237.2L606.3,237.2c-4.1,0.5-7.8-2.3-8.2-6.4l-1.6-12.6c-0.5-4.1,2.3-7.8,6.4-8.2l0,0
						c4.1-0.5,7.8,2.3,8.2,6.4l1.6,12.6C613.3,233.1,610.4,236.8,606.3,237.2z"/>
				</g>
			</g>
			<g id="mão_1_">
				<path class="st11" d="M674,311.4c-4,1.8-8.8,3.5-13.4,4.9l0,0c-1,0.3-2,0.6-2.9,1l0,0c-4.2,1.5-7.5,2.9-8.8,4.6
					c-0.5,0.6-0.3,0.3-1,1.4c-0.5,0.6-3.3,2.7-6.8,5.3c0,0-0.1,0-0.1,0.1c-6.7,4.8-15.8,11.1-15.8,11.1c-1.4,1-2.4,1.8-3.5,2.9l0,0
					c-5.2,4.9-5.9,9.5-8.1,12.3l0,0c-1,1.1-2.1,2-4.1,2.4c-5.9,1.5-12.7-2.1-18-7c-6.5-6.1-11.1-14-9.5-16.7c0.6-1.1,3.1-2.7,4-6.4
					c0.5-2,1.4-4.4-2.6-12.3c-1.2-2.4-2.1-4.9-2.7-7.6c-1.1-4.7-1.2-9.7-1-14.6c0-1.5,0.1-2.9,0.3-4.3c1.6-21.1,1.2-20.8,1.1-21.8
					c0-0.5-0.1-1-0.3-1.7c-1.2-5.8-4.8-17.9,1.5-18.4c0.9-0.1,2,0,3.3,0.5c6.3,2.1,9.5,10.2,11.4,18.7c1.7,7.3,2.4,14.8,3.3,19.1
					c0.3,1.8,1.4,3.6,2.1,3.6c1.8-0.1,1-10.7,6.5-24.2c1.1-2.7,1-1.8,2.3-5c5.5-13.1,4.4-19.6,11-28.9c0.5-0.8,0.9-1.2,1.6-2.3
					c5.5-7.1,9-11.6,12.6-11.4c2.3,0.3,4.8,2.4,5.5,4.9c1.4,4.3-2.9,7-8,16.6c-0.3,0.6-5.2,9.5-6.4,21.2c-0.8,6.8,0.3,7.5,0.6,7.6
					c1.4,0.6,3.5-2.9,7.3-6.3c5.3-4.6,7.3-3.1,14.2-7.1c4.2-2.4,6.8-5.8,9.9-9.4c0.5-0.6,1.1-1.1,1.8-1.6c2.3-1.6,5.5-2.3,7.8-0.1
					c2.9,2.9,2.3,8.7,0.3,11.7c-0.9,1.5-1.7,2.7-2.6,4c-3.5,4.6-7.3,7.6-12.7,10.8c-6.8,4.1-8.8,6.5-11,8.8c-3.1,3.2-5,5.3-4.6,6.4
					c1.1,2.1,12.2,1.1,20.8-4.9c3.7-2.6,6.1-5.5,8.8-6.9c1.4-0.8,2.7-1.1,4.3-1.1c0.6,0,3.2,0.3,4.6,2.1c3.6,4.9-0.3,9.6-4.4,13.1
					c-1.5,1.2-3.1,2.3-4.3,3.1c-3.7,2.3-7.6,4.2-11.6,6.1c-1.6,0.8-6.3,3.7-8.7,4.1c1.1,0.9,2.3,2,3.7,2.6
					c6.2,2.9,13.4-2.9,19.6-4.7c0.5-0.1,1-0.3,1.6-0.3c3.5-0.6,7,0.3,8.5,4C683,305.5,679.5,308.9,674,311.4z"/>
				<g id="Camada_3_1_">
				</g>
				<path class="st2" d="M663.2,314.9c-0.3,0.1-1.1,0.6-2.6,1.6l0,0c-1,0.3-2,0.6-2.9,1l0,0c-4.2,1.5-7.5,2.9-8.8,4.6
					c-0.5,0.6-0.3,0.3-1,1.4c-0.5,0.6-3.3,2.7-6.8,5.3c0,0-0.1,0-0.1,0.1c-5.6,3.7-11.1,7.3-14.6,10c-2.1,1.6-3.5,2.7-4.6,3.8l0,0
					c-0.6,0.6-1.1,1.1-1.5,1.7c-3.5,4.4-4,8.4-6.7,10.5l0,0c-0.8,0.6-1.7,1.1-2.9,1.5c-5.9,1.5-12.7-2.1-18-7
					c7.9,2.4,10.5,1.8,11.2,0.8c2.1-3.2-7.8-12.6-5.8-14.9c0.9-1,2.6,0.3,6.7,0c7.3-0.6,14.3-4.7,19.2-10c2.3-2.4,4.4-5.3,5.5-8.5
					c1.2-3.8,1-9.3,4.1-11.1c1.5-1,3.2-0.8,4.6-0.5c5.6,0.8,7.4,5.6,12.3,8.5C652.7,314.8,656.8,316,663.2,314.9z"/>
			</g>
		</g>
		<path class="st4" d="M506.1,502.3c-21.6-16.9-15.5-49.8-14-54.3c5.5-15.2,15.4-28,25.3-40.6c21.4-27.5,42.9-54.9,64.5-82.3
			c16.6,10.2,33.2,20.4,49.8,30.6c-39.4,49-55.1,87.2-61.9,113.8c-2.6,10.1-7.1,31.3-23.6,38.9C533.3,514.5,516.7,510.5,506.1,502.3
			z"/>
	</g>
</g>
</svg>
