<?xml version="1.0" encoding="utf-8"?>
<!-- Generator: Adobe Illustrator 22.0.1, SVG Export Plug-In . SVG Version: 6.00 Build 0)  -->
<svg version="1.1" id="Camada_1" xmlns="http://www.w3.org/2000/svg" xmlns:xlink="http://www.w3.org/1999/xlink" x="0px" y="0px"
	 viewBox="0 0 1366 768" style="enable-background:new 0 0 1366 768;" xml:space="preserve">
<style type="text/css">
	.st0{display:none;fill:#269DC6;}
	.st1{display:none;fill:#29ABE2;}
	.st2{fill:#8D1CFF;}
	.st3{fill:#FF9370;}
	.st4{fill:#FF561F;}
	.st5{fill:#470E80;}
	.st6{fill:#6A15BF;}
	.st7{fill:#8C1AFF;}
	.st8{fill:#FFB096;}
	.st9{fill:#4D4D4D;}
	.st10{fill:#FF926E;}
	.st11{fill:#FF1CFF;}
	.st12{fill:#E3FBF6;}
	.st13{fill:#00DFAA;}
	.st14{fill:#61EBCA;}
</style>
<g>
	<g>
		<g id="ENFEITES_1_">
			<polygon class="st0" points="1478.5,589.9 688.5,436.3 688.5,-98.4 1478.5,55.2 			"/>
			<polygon class="st1" points="-101.5,592.2 688.5,438.5 688.5,-96 -101.5,57.5 			"/>
		</g>
		<path class="st2" d="M572.9,347.3c17.2-14.3,34-37.2,55.1-39.3c19-1.9,34.3,16.9,36,19c17.2,21.8,14.2,55.2,0,76
			c-8.2,12-17.4,15.9-45,29c-83.6,39.6-87.4,45.8-101,42c-39.3-10.9-59.9-76.5-46-91c4.6-4.8,13.1-3.2,19-3.9
			c26-3.1,51.3-11.8,73.5-25.7C567.3,351.7,570.1,349.6,572.9,347.3z"/>
		<g id="PESCOÇO_1_">
			<path class="st3" d="M859.3,339.6c-10.7,9.4-18.6,5.2-72.5,7.7c-46,2.2-58.7,6.1-64.1-2.2c-7.2-10.9,13-23.2,18.3-61.3
				c2.3-16.5,2.2-41,0.9-56.7c-0.4-5.4-1.7-20.7,5.1-37.8c0.6-1.3,1-2.8,1.7-4.1c12.8-23.3,56.4-34.1,73.2-19
				c13.5,12,1,32.6,10,57.3c1.3,3.6,3,7.2,5.5,11c1.2,1.7,2.3,3.3,3.3,4.8c0.7,0.9,1.4,1.7,2.2,2.6c-1.7,5.2-3.8,9.9-5.5,13.5v0.1
				c-6.1,13.3-13.5,23.3-19.3,30.2c5.9,9.7,11.9,19.6,17.8,29.3c16.8-15.7,27.4-34.5,30.2-52.6c0.7,1.2,1.6,2.5,2.3,3.9
				C880.3,288.6,878,323.4,859.3,339.6z"/>
		</g>
		<g>
			<path class="st4" d="M883.5,625.4c-1.6,1-3.2,1.9-4.9,2.8C827.6,655,758.5,621,718,596c1.9-18.6,3.9-34,5.5-45.1
				c0,0,7.2-49,21.2-111.3c7.1-31.6,7.8-29.7,9.9-43.6c0-0.1,0-0.3,0-0.6c0-0.1,0-0.3,0.1-0.6c0-0.1,0-0.4,0.1-0.6
				c0-0.3,0.1-0.4,0.1-0.6c0-0.3,0-0.4,0.1-0.7c0-0.1,0-0.1,0-0.3c0.7-5.4,1.9-15.2,2.3-23.6c0.3-25.8-10.6-33.1-4.2-45.8
				c0.7-1.3,1.3-2.5,1.9-3.3c11.6,2.8,22.9,6.1,30.7,6.4c7.2,0.3,14.5,0.3,22,0.3c4.1,34.1-6.1,22.3,7.2,100.3c1,5.9,1.7,9.9,2.5,13
				c1.9,9.6,2.9,11.2,7.2,34.9c7.4,39.4,10,60.5,18.7,95.5c0.4,1.4,0.7,2.9,1,4.2c3.8,15.2,6.4,25.4,9.3,31.8
				c1.2,2.8,2.5,4.8,3.8,6.2C864.2,620,872,623.3,883.5,625.4z"/>
			<path class="st2" d="M1055.7,518.8c0-0.3-0.1-0.4-0.1-0.7c-0.1-1.3-0.4-2.5-0.7-3.6v-0.1l-8-43.6c0-1.4-0.1-2.9-0.3-4.3
				c-1.6-18-5.2-36-10.9-53.1c-3.9-11.9-9.1-22.9-14.2-34.4c-4.8-10.6-6.8-22.5-10.1-33.5c-11.6-37.7-11.6-41.8-18.3-48.9
				c-7.7-8-16.1-11.7-32.5-18.8c-10.3-4.5-12-4.2-38.6-12.6c-14.9-4.8-22.3-7.5-38-12.2c-9.3-2.8-15.9-4.6-20.9-5.8
				c1.7,4.5,3,9.4,2.9,15.2c-0.1,10.4-4.2,17.4-9.9,27.3c-5.1,9-11.9,17.5-20.3,25.4c-5.9-9.7-11.9-19.6-17.8-29.3
				c-2.6,1-5.1,2.6-7.4,5.9c-7,9.9-4.9,22.2-4.2,26.8c0.4,3,0.9,5.7,1.2,8.1c20.6,0.1,41.5,1.2,59.6,11.3
				c87.4,49,85.8,243.6,16.2,287.5c14.9,2.6,36.1,3.2,69.7,8.4c13.5,2.2,21.5,9.3,33.1,6.4c4.1-1,7.7-2.8,10.9-4.9c0,0,0,0,0.1,0
				c9.7-6.7,16.1-17.5,21-26c18-30.6,10.1-50.2,27.3-62.1c0.4-0.3,1-0.7,1.6-1.2c1.2-0.9,2.6-1.9,4.1-3.2c2.5-2.2,4.8-5.1,5.9-9
				c0-0.1,0.1-0.3,0.1-0.6C1058.3,529.4,1056.9,525.9,1055.7,518.8z"/>
			<path class="st2" d="M884.9,329.6c-6.5-2-23.8-5.7-44.2-5.8c-13.5-0.1-24.8,1.3-33.1,2.8c4.1,34.1-6.1,22.3,7.2,100.3
				c1,5.9,1.7,9.9,2.5,13c1.9,9.6,2.9,11.2,7.2,34.9c7.4,39.4,10,60.5,18.7,95.5c0.4,1.4,0.7,2.9,1,4.2c3.8,15.2,6.4,25.4,9.3,31.8
				c1.2,2.8,2.5,4.8,3.8,6.2c7,7.4,14.6,10.7,26.1,12.8c11.9-2,28.9-6.8,42.6-20c28.6-27,24.6-70,18.8-124.4
				C940.9,442.1,930.5,344.1,884.9,329.6z"/>
			<path class="st5" d="M843,241.9c1-3,1.9-6.1,2.3-9.3c0.1-1.3,0.4-2.6,0.4-3.9c0-0.7-0.6-3,0.1-3.5h0.1
				c-5.9-3.3-13.3-4.3-14.2-2.6c-0.1,0.3,0,0.9,0.4,2c0.9,2.6,1.3,3.9,2.2,5.7c0.3,0.4,0.9,1.4,2,3.5c0.3,0.7,0.6,1.2,0.7,1.3
				c1.6,2.8,3.3,5.4,5.7,7.2v-0.1C842.9,242.2,842.9,242,843,241.9z"/>
			<path class="st6" d="M848.6,247.1c2.3-1.6,5.1-2.2,14.5,0h0.1c-1.6-4.2-3.8-8-5.9-11.7c0,0-2.5-4.3-8.7-9.1
				c-0.6-0.4-1.7-1.4-2.5-1c0.1,0.1,0.4,0.3,0.6,0.3c1.2,0.6,1.9,1.3,2.5,1.7c2,2.6,6.5,7,7.4,11c1,4.2-2.3,6.4-6.1,6.5
				c-3.2,0.1-5.7-0.9-7.5-2.5c-0.6,1.9-2.3,6.8-5.5,13v0.1c-6.1,13.2-13.3,23.2-19.3,30.2c4.9-2,10.6-2.2,16.5-8.1
				C845.9,266.3,839.1,253.2,848.6,247.1z"/>
			<path class="st6" d="M856.2,289.6c5.7-9.9,9.7-16.8,9.9-27.3c0.1-5.8-1.2-10.7-2.9-15.2h-0.1c-1.6-1.1-7.2-4.4-12.9-2.6
				c-2,0.6-3.4,1.7-4.5,2.8c-7.7,7.2-6,17.8-11.3,26.5c-2.3,3.9-6.8,8.6-16.3,11.9c5.9,9.7,11.9,19.6,17.8,29.3
				C844.4,307.1,851.2,298.6,856.2,289.6z"/>
			<path class="st6" d="M856.5,238.3c-0.9-4.1-5.4-8.4-7.4-11c-0.6-0.4-1.3-1.2-2.5-1.7c-0.1-0.1-0.4-0.3-0.6-0.3h-0.1
				c-0.7,0.4-0.1,2.8-0.1,3.5c0,1.3-0.3,2.6-0.4,3.9c-0.4,3.2-1.3,6.2-2.3,9.3c-0.1,0.1-0.1,0.3-0.1,0.3v0.1c2,1.6,4.3,2.6,7.5,2.5
				C854.2,244.7,857.5,242.5,856.5,238.3z"/>
			<path class="st6" d="M735.2,254.8c0,0,0.4,0.1,0.7,0.1c4.5,1.3,7.7,6.5,11,14.5c-1.2-4.3-2-9-2.8-14.1c0-0.1,0-0.1,0-0.1
				c-0.4-3.2,3.2-5.5,6.4-9.3c0.7-0.9,5.9-7.1,4.2-9.9c-0.7-1.3-2.8-1.3-4.6-1.4c-4.5-0.1-8,1.4-9,1.9c-9,4.2-17.4,8.3-21.3,17
				c-0.7,1.7-1.2,3.3-1.4,5.1c0.4-0.1,0.9-0.3,1.3-0.4C730.4,254.7,733.6,254.5,735.2,254.8z"/>
			<path class="st6" d="M753.9,289.9c-4.1,3.2-8.4,7-12.9,11.5c-3.2,3.2-5.9,6.4-8.4,9.4c-6.7-12.8-9.7-23.9-11.3-31.5
				c-2-9.6-3.5-15.5-2.9-20.7c0.4-0.1,0.9-0.3,1.3-0.4c10.7-3.5,13.9-3.6,15.5-3.3c0,0,0.4,0.1,0.7,0.1c4.5,1.4,7.7,6.5,11,14.5
				C749,277.6,751.6,284.5,753.9,289.9z"/>
			<path class="st2" d="M639.4,307L639.4,307C639.4,307,639.4,307.1,639.4,307C639.4,307.1,639.4,307,639.4,307z"/>
			<path class="st2" d="M753,323.2c-6.4,12.8,4.5,20,4.2,45.8c-0.3,8.3-1.6,18.3-2.3,23.6c0,0.1,0,0.1,0,0.3c0,0.3,0,0.4-0.1,0.7
				c0,0.1,0,0.4-0.1,0.6c0,0.1,0,0.4-0.1,0.6l0,0c0,0.1,0,0.4-0.1,0.6c0,0.1,0,0.4,0,0.6c-2,13.9-2.8,12-9.9,43.6
				c-12.8,57.6-19.3,86.3-21.2,111.3c-0.7,10.4-0.7,17.7-1.3,23.2c-0.6,6.1-1.9,10-5.8,13.5c-12.2,11.2-39.3,8.4-52.6-5.8
				c-8.6-9.1-9.4-20.6-10.3-30.9c-1.6-19.4-3-39-4.5-58.4c-1-13.5-2.2-27-3.5-40.4c-2.2-22.8,0.7-46.2,1.4-69.6l0,0
				c0.1-6.7,0.3-13.5,0-20c-0.6-13.5-1.7-26.8-3.3-40.3c-1.2-9.6-6.8-23.2,1.6-30.6c7.2-6.4,19-9.3,27.1-12.5
				c20.4-8.3,21.9-12.3,46.1-20.4c-0.6,5.2,0.9,11.2,2.9,20.7c1.6,7.5,4.6,18.7,11.3,31.5c2.5-3,5.2-6.2,8.4-9.4
				c4.5-4.5,8.8-8.3,12.9-11.5c-2.3-5.4-4.9-12.3-7-20.4c2.3,5.5,4.5,12.3,7.1,20.2c4.1,12.3,5.4,16.4,4.2,22.3
				c-0.3,1.6-0.7,2.9-1.2,4.1c-0.9,2.2-1.9,3.6-2,3.9C754.3,320.8,753.7,321.9,753,323.2z"/>
			<path class="st2" d="M754.9,392.7c0.7-5.4,1.9-15.2,2.3-23.6C757.1,377,755.8,386.4,754.9,392.7z"/>
			<path class="st2" d="M757.2,369c0.3-25.8-10.6-33.1-4.2-45.8c0.7-1.3,1.3-2.5,1.9-3.3C751.9,324.5,757.7,350.1,757.2,369z"/>
		</g>
		<g id="CABEÇA_1_">
			<path class="st7" d="M823.9,50.1"/>
			<g>
				<path class="st8" d="M672.3,148c-2.5,14.4,4.6,24.1,12.9,42.2c14.2,30.9,7.2,31.3,17.1,48.3c4.5,7.7,28.9,46.7,62.6,43.9
					c17.3-1.3,29.9-13.6,40.9-25.7c8.3-9.1,23.9-24.6,18.1-38.1c-2.2-5.1-6.8-6.7-6.8-12.3c0-6.8,7.8-12.3,10.6-18.1
					c5.9-12.9,1.4-61-22.6-44.1c-7.1,5.1-8.7,15.9-4.9,23.3c-3.8-4.2-2.9-11.5-3.9-17c-10.9-53.6-79.6-65.1-113.5-23.8
					C679.4,131.1,674,137.9,672.3,148z"/>
				<path class="st9" d="M672.3,168.1c5.8,12,16.1,18.6,22.6,16.7c10.9-3.2,12.8-30,6.7-33.1c-1-0.6-2.3-0.4-3.2,0.3
					c-3.6,3.8,7.5,27.3,17.8,27c11.6-0.4,21.5-30.7,15.5-35.7c-1.4-1.2-4.1-1.2-5.1,0.1c-3.9,4.3,7.7,27.4,18.8,27.1
					c12.6-0.4,22.3-30.6,16.7-35.1c-2-1.7-7.1-0.4-9,2.5c-4.6,7.2,8,28.6,18.1,27.8c11.6-1,19.3-30.9,14.2-34.2
					c-1.4-1-4.6,0-6.2,1.9c-4.2,5.7,4.3,14.5,7.5,18.7c6.4,8.7,9,21.5,9,32c0,2.3-0.1,5.4,1.3,7.2c1.6,2.5,4.5,0.7,6.1-0.9
					c3.5-3.8,1.2-8,0-12.3c-1.7-5.5-2.3-12.8-2-18.6c0.1-5.2,1.6-11,6.2-14.1c7.5-5.1,16.5-0.6,19.7,7c3,7,2.6,15.4,1,22.6
					c-2.6,10.7-7.8,12.2-7,19.7c0.7,5.9,4.8,11,9.1,14.8c2.8,2.3,5.8,4.5,8.8,6.2c1,0.6,3.5,2.2,4.8,1.7c1.6-0.6-0.1-1.9-0.9-2.6
					c-2.2-2.6-4.6-5.1-6.1-8.3c-6.7-13.6,3.6-23.9,5.2-46.5c1.2-17.5-3.5-36.4-7.1-36.5c-2.8,0-4.3,5.9-4.1,8
					c0.6,4.5,4.5,5.4,7.4,7.7c3.9,3.2,6.4,7.7,8.3,12c1.7-9.9,0.4-20.4-1.9-30.2c-1.4-6.2-4.2-25.4-13.3-25.7
					c-4.1-0.1-6.8,4.8-6.1,8.7c1.4,7.5,11.3,11.5,16.2,16.8c8.8,9.4,10,18,10.9,17.5c2.6-0.9-2.6-56.1-27.3-62.6
					c-8.3-2.2-18.6,1.3-24.1,7.4c-9.1,10.1-6.1,28.7-4.8,28.7c1.7,0.1,11.3-36.1-0.7-44.7c-9.6-6.7-32.6,3.5-33.1,11.7
					c-0.1,5.5,9.7,12,13.8,10c2.9-1.6,2.3-7.7,2.2-8.8c-1.2-13.6-18.7-31.2-32.9-25.8c-10.1,3.8-15.2,18-12.9,28.6
					c2,9.7,10.4,18,12.9,16.8c2.6-1.2,1.4-13.3-4.1-21.6c-9.6-14.6-35.4-24.1-47.8-13.2c-14.2,12.2-5.8,44.9,6.5,48.9
					c5.9,1.9,14.5-2.2,15.2-6.8c1-7.1-16.5-19.1-33.8-18.1c-21.9,1.4-33.3,23.1-34.1,24.2c-12.2,23.5,2.8,48.4,3.6,50
					c6.1,10.1,11,9.4,18.7,22.9c7.8,13.8,8.6,25.7,11.2,25.4c1.7-0.3,3.9-7.8,3.6-16.5c-1-21.5-16.7-38.9-17.4-38.1
					C667,157.5,667.9,159.8,672.3,168.1z"/>
			</g>
		</g>
		<g id="FUMAÇA_1_">
			<path class="st2" d="M557.9,251"/>
		</g>
		<g id="PLANTAS_1_">
			<path class="st6" d="M1042.3,510.1c2.9-12.5,3.5-25.8,3.8-37.6c-3,21.7-2,43.9-4.5,65.4c-0.7,6.7-2,9.9-7,24.5
				c-12.6,37.1-11.5,38.3-16.4,46.7s-11.3,19.3-21,26c0,0,0,0-0.1,0c-3.3,2-6.7,3.5-9.7,4.1c-1.9,0.4-4.1,0.7-4.1,0.7
				c-4.9,0.3-10-2.2-29.3-6.2c-60.6-12.8-80.3-4.3-95.8-21.2c-1.9-2-3.5-4.1-4.8-6.2c-7.4-11.5-9-24.5-9.3-31.8
				c-0.1-1.9,0-3.3,0-4.2c0.7-44.8,47-53.6,65.7-105c18.7-51.5-6.2-101.6,0.1-103.1c4.8-1.2,16.5,29,22.5,51.5
				c3.8,14.2,5.7,21.3,5.1,27.5c-2.8,28.1-31,48.4-26,60.6c2.2,5.2,5.9,10.4,5.9,10.4c1.3,1.9,2.9,3.8,5.4,6.2
				c2.5,2.5,4.8,4.2,7.1,5.8c9.3,6.2,33.3,13.8,42.2,16.7c20.9,6.7,26.5,9.9,36.7,7.8c0.3-0.1,7-1.7,13-5.8
				C1033.4,535.2,1039.2,523.2,1042.3,510.1z"/>
			<g id="MESA_1_">
				<g>
					<path class="st10" d="M1139.1,635.2V686c-98.3,29.1-196.4,58.1-294.7,87.3C608.8,733,373,692.8,137.4,652.5v-63.1l343.2-39.1
						l207.8,26.8l0,0l216.3,27.8L1139.1,635.2z"/>
				</g>
			</g>
		</g>
		<g>
			<path class="st3" d="M1478.1,225.4c-6.6,0.9-14.2-14.4-16.5-26.1c-1.1-5.8-2.9-15.8,3.3-22.2c3.4-3.5,9.5-6.3,14.4-4.4
				c8.5,3.3,8.5,18.8,8.4,24.5C1487.7,207.4,1484.8,224.5,1478.1,225.4z"/>
			<path class="st8" d="M1548.2,311.7c-10.6-7.5-19.2-13.1-25.1-17c-11.9-7.8-20.8-19.7-27.2-32.9c-6.3-13.1-8.4-29.9-18.3-40.7
				c-6.8-7.4-9.2-9.7-11.3-16.4c-4.1-12.7-0.2-30.6,8.3-33.8c17.7-6.7,55,50.1,55.8,49.4c0.6-0.5-18.1-20.9-15.5-23.9
				c2.2-2.5,21.8,5.8,30.9,22.2c3.2,5.8,5.9,13.4,8.1,22c1.7,6.8,3.6,15.3,8.9,20.3c4.6,4.3,10.6,3,12.9,10.6
				c0.2,1.8-0.5,2.2-6.3,11.7c-5,8.2-5.8,10.5-7.6,13.3c0,0-0.8,1.2-1.6,2.5C1556.7,304.2,1548.9,311.1,1548.2,311.7z"/>
			<path class="st2" d="M1767.7,367.1c-0.6-0.9-1.3-1.8-2-2.6c-13.9-17.2-33.6-16.2-51.6-26.5c-12.3-7-23.3-16.1-34.9-24.2
				c-26.9-18.8-54.2-35.9-83.9-49c-16.6-7.4-19-11.3-25.2-10.7c-8.6,0.9-10.5,9.1-22.9,22.2c-5,5.3-9.5,9-13.4,11.8
				c-15.4,11.1-16.9,11.6-17.7,14.4c-3.3,12,36.7,29.3,72.1,56c26.4,19.9,44.2,40.5,54.7,54.1c25.6,32.9,47.4,40.9,65.5,41
				C1749.7,454.1,1796.5,407.2,1767.7,367.1z"/>
		</g>
		<g>
			<path class="st8" d="M814.6,386.9c-9.9-8.3-18.1-14.7-23.5-19c-15.9-12.5-21.3-28.4-24.3-35.1c-3.1-6.8-9-21.6-6.6-23
				c2-1.2,10,6.2,8.8,8.8c-1.5,3.1-19.7,3.3-25.4-8.2c-5.1-10.1,3.2-22.2,10.7-26.2c3.8-2,3.8,0,17.3-3.1c5.8-1.3,9.3-2.4,15.3-2.7
				c1.4-0.1,5-0.2,8.5,0.2c8.9,1.2,19,6.6,24.7,15.3c1.8,2.8,4,9.3,6.2,22.6c1.2,6.9,2.3,15.6,7.2,21c4.2,4.7,10.3,3.9,12,11.6
				c0.1,1.8-0.7,2.2-7.2,11.2c-5.6,7.8-6.7,9.9-8.7,12.6c0,0-0.9,1.2-1.9,2.3C823.7,380.1,815.4,386.3,814.6,386.9z"/>
			<path class="st2" d="M1028.7,460.4c-0.6-0.9-1.2-1.9-1.8-2.8c-12.4-18.4-32.1-19-49.2-30.7c-11.7-8-21.9-18-32.8-27
				c-25.2-21-51-40.3-79.5-55.9c-15.9-8.7-18-12.8-24.2-12.8c-8.6,0.2-11.2,8.2-24.7,20.2c-5.4,4.9-10.2,8.2-14.3,10.7
				c-16.3,9.7-17.8,10.1-18.9,12.9c-4.3,11.6,34.1,32.3,67.2,61.9c24.6,22,40.7,44.1,50,58.5c22.7,35,43.8,44.7,61.8,46.3
				C1003.5,545.6,1054,502.7,1028.7,460.4z"/>
		</g>
		<g id="BRACO_x5F_ESQ_1_">
			<g id="MAO_x5F_DIR">
				<path class="st8" d="M661.9,149.4c0.1,0,0.2,0.2,0.2,0.2c0.7,0.3,1.9,1.6,1.9,9.3c0,7.1-0.2,14.3-1.3,21.4
					c-0.6,4.4-1.1,10.3-4.9,13.5c-4.3,3.3-10.1,5.9-15.2,7.6c-3.8,1.4-3.3-0.3-3.5-3c-0.5-4.9-1.8-11.1,1.3-15.4
					c2.6-3.8,8.1-6.4,9.4-10.9c1.1-2.9,0.5-3.9,0.5-6c-0.1-1.3,0.3-2.3,0.6-3.3c2.2-7.7,1.5-8.5,3.1-10.5
					C656.2,149.7,659.9,148.8,661.9,149.4z"/>
				<path class="st3" d="M655,156c0.7,0.9,1.2,2.4,1.4,3.3c1,4.3,1.3,8.8,0.8,13c-0.4,3-2.4,9.8-6.3,7.3c-1.2-0.7-2-2.3-2.2-3.8
					c-0.2-1.4,0.2-3,0.7-4.3c0.4-1.4,1.2-2.3,1.7-4c0.7-2.2,1.2-5,1.2-7.6c-0.1-0.9-0.2-1.8,0-2.7c0-1,0.4-1.7,1.2-1.9
					C653.9,155.2,654.6,155.5,655,156z"/>
				<path class="st8" d="M675.2,122.1c0.1,0,0.1,0,0.4,0.1c0.1,0,16.9-0.7,18.2,1.7c1.5,3-18.7,16.6-22,18.8
					c-1.9,1.3-8.1,5.4-12.9,11.7c-1.5,2-3.2,4.6-4.4,8.3c-0.6,2.2-0.7,4-1,6.4c-0.5,4.3-0.6,9.2-0.3,14.5c-0.3,1.7-2.6,9.9-8.2,18.1
					c-9.9,14.7-30.2,28.9-46.3,23.6c-4.8-1.8-11.8-6-12.6-11.9c-0.8-6,4.3-7.5,5.4-17.3c1.1-7.9-2.4-8.6-0.8-15.8
					c2.3-10.4,11.6-17.1,19.4-23.7c9.7-8.2,19.4-16.4,29.9-23.7C650.8,125.7,661.9,119.8,675.2,122.1z"/>
				<path class="st11" d="M840.7,120.3"/>
				<path class="st3" d="M636.4,199.3c-4-6.2-9-14.3-20.6-16.5c-8.4-1.6-23.9-0.8-31.2,7.9c-8.2,9.6-2,24.3,7,30.9
					c14.7,10.9,43.6,5.8,49.6-3.7C644.8,212.7,640.9,206.5,636.4,199.3z"/>
			</g>
			<path class="st2" d="M552.2,419.9c-4.2,1-9.7,1.5-20.7,1.7c-19.3,0.5-29,0.7-36.5-1.6c-5.2-1.6-21.6-6.8-27-20
				c-3.4-8.4-1.1-17,8.4-37.7c10.7-23.3,20.4-38.8,31.4-58.7c9.7-17.5,19.6-35.2,29.4-52.6c5-8.9,12.2-19,14.8-29
				c0.4-1.6,2.1-8.5,6.9-15.7c1.9-3,4.3-5.4,7.2-8.3c2.3-2.3,4.9-4.4,8.1-6.4c3.5-2.2,7.4-3.5,11.7-4.2c24.2-4.3,56.7,11.1,59.3,28
				c1,6.5-2.9,11.1-10,21.5c0,0-20.7,25.8-42.6,72.8c-6.8,14.4-9.9,29.9-11.1,45.6c-1.2,14.2,2.1,30.1-2.7,43.6
				C574.6,410.7,564.1,417,552.2,419.9z"/>
		</g>
		<g id="Camada_24_1_">
			<g>
				<path class="st12" d="M167.1,439.2"/>
				<g id="XMLID_2_">
					<path class="st13" d="M225.3,630.9c0-2.9-1.4-7.2-4.3-8.7c-31.9-15.9-55.1-37.7-78.3-63.8c-2.9-2.9-4.3-7.2-7.2-10.1
						c-7.2-10.1-14.5-20.3-13-33.3c8.7-7.2,15.9,2.9,21.7,7.2c8.7,10.1,18.8,18.8,31.9,20.3c2.9,0,5.8-4.3,4.3-7.2
						c-17.4-21.7-37.7-37.7-52.2-60.9c-7.2-11.6-13-26.1-5.8-37.7c1.4-1.4,5.8,0,7.2,0c10.1,5.8,17.4,13,27.5,17.4
						c4.3,1.4,8.7,0,11.6-2.9c1.4-4.3-1.4-8.7-2.9-13c-17.4-26.1-36.2-52.2-34.8-82.6c11.6-10.1,27.5,1.4,37.7,10.1c0,0,1.4,0,2.9,0
						c2.9-1.4,1.4-4.3,2.9-5.8c1.4-20.3-1.4-42,11.6-60.9c17.4-23.2,43.5-36.2,71-37.7c13,0,26.1,4.3,34.8,14.5
						c10.1,13,14.5,29,7.2,43.5c-4.3,8.7-10.1,15.9-15.9,23.2c-2.9,5.8-10.1,11.6-8.7,18.8c1.4,1.4,2.9,4.3,5.8,4.3
						c13-2.9,24.6-8.7,37.7-8.7c4.3,1.4,2.9,7.2,0,10.1c-18.8,21.7-39.1,37.7-56.5,60.9c-2.9,4.3-4.3,8.7-4.3,13
						c0,0,1.4,1.4,2.9,1.4c13-5.8,24.6-14.5,37.7-20.3c11.6-4.3,24.6-2.9,37.7-2.9c4.3,0,7.2,1.4,10.1,4.3
						c4.3,4.3,1.4,10.1-1.4,14.5c-14.5,15.9-31.9,29-46.4,44.9c-8.7,10.1-15.9,20.3-21.7,33.3c-1.4,2.9,0,7.2,0,11.6
						c1.4,2.9,0,8.7,7.2,4.3c17.4-8.7,33.3-23.2,53.6-20.3c2.9,1.4,5.8,2.9,7.2,7.2c0,4.3,1.4,8.7,0,11.6
						c-17.4,34.8-37.7,63.8-58,97.1c0,1.4,2.9,4.3,4.3,4.3c18.8-14.5,34.8-27.5,55.1-39.1c4.3-1.4,8.7-2.9,13,0
						c14.5,14.5,5.8,37.7-4.3,53.6c-14.5,18.8-29,33.3-46.4,49.3c-1.4,1.4-2.9,4.3-2.9,5.8l1.4,1.4c14.5-1.4,24.6-13,36.2-20.3
						c4.3-2.9,10.1-1.4,13,2.9c8.7,15.9-1.4,33.3-14.5,43.5c-39.1,31.9-79.7,59.4-124.7,79.7c-1.4-8.7-7.2-15.9-10.1-24.6
						c-2.9-5.8-7.2-11.6-10.1-18.8c-11.6-21.7-26.1-39.1-40.6-60.9c-2.9-4.3-4.3-8.7-2.9-13c0-10.1,13-11.6,21.7-11.6
						c14.5,1.4,23.2,13,33.3,21.7c2.9,1.4,5.8-1.4,4.3-5.8c-24.6-29-66.7-49.3-65.2-89.9c0-7.2,10.1-7.2,15.9-5.8
						c21.7,7.2,37.7,21.7,58,33.3C222.4,633.8,225.3,633.8,225.3,630.9L225.3,630.9z"/>
				</g>
				<g>
					<path class="st14" d="M106.4,665.7c-1.4-2.9-1.4-5.8-2.9-8.7c-23.2-23.2-34.8-52.2-52.2-79.7c-1.4-4.3-4.3-8.7-4.3-13
						c0-7.2,7.2-11.6,13-8.7c5.8,4.3,10.1,8.7,14.5,14.5c5.8,4.3,13,10.1,21.7,5.8c-1.4-10.1-8.7-17.4-14.5-26.1
						c-8.7-10.1-20.3-17.4-29-27.5c-2.9-4.3-7.2-8.7-4.3-15.9c15.9-7.2,30.4,5.8,46.4,7.2c2.9,0,5.8-2.9,5.8-4.3
						c-14.5-23.2-40.6-30.4-62.3-44.9c-2.9-2.9-8.7-7.2-2.9-10.1c14.5-5.8,29-2.9,43.5,1.4c0,0,1.4-1.4,2.9-1.4
						c-1.4-1.4-1.4-2.9-1.4-4.3c-14.5-15.9-42-33.3-26.1-56.5c23.2-31.9,63.8-21.7,91.3-1.4c15.9,13,20.3,31.9,21.7,50.7
						c0,7.2,5.8,11.6,13,10.1c7.2-1.4,10.1-8.7,17.4-10.1c8.7,7.2,5.8,20.3,1.4,30.4c0,1.4,0,2.9,0,4.3
						c-5.8,14.5-11.6,27.5-20.3,39.1c4.3,2.9-5.8,5.8,5.8,7.2c2.9,0,4.3-4.3,7.2-5.8c1.4-1.4,4.3,0,5.8-1.4
						c11.6-8.7,24.6-10.1,37.7-8.7c4.3,1.4,5.8,8.7,4.3,13c-10.1,34.8-43.5,50.7-66.7,76.8c-1.4,2.9-5.8,11.6,1.4,10.1
						c17.4,0,33.3-11.6,50.7-7.2c5.8,1.4,2.9,10.1,0,14.5c-20.3,26.1-47.8,39.1-68.1,63.8l1.4,2.9c1.4,0,4.3,0,5.8,0
						c18.8-8.7,39.1-15.9,59.4-23.2c2.9,0,7.2,1.4,10.1,2.9c8.7,10.1,1.4,24.6-5.8,34.8c-11.6,13-23.2,23.2-33.3,36.2
						c13,4.3,23.2-8.7,33.3-14.5c5.8-2.9,13-1.4,18.8,1.4c5.8,2.9,8.7,10.1,5.8,15.9c-17.4,27.5-39.1,50.7-47.8,81.2
						c-43.5-13-82.6-34.8-116-65.2c-7.2-8.7-17.4-15.9-20.3-27.5c-1.4-8.7,7.2-11.6,13-11.6c11.6,2.9,17.4,11.6,26.1,18.8
						c1.4,1.4,2.9,2.9,4.3,1.4c1.4-2.9-1.4-5.8-2.9-7.2c-13-11.6-24.6-21.7-36.2-34.8c-10.1-11.6-17.4-24.6-20.3-40.6
						c-1.4-7.2-2.9-18.8,7.2-21.7c20.3,5.8,29,26.1,43.5,40.6h2.9C106.4,668.6,106.4,667.1,106.4,665.7L106.4,665.7z"/>
				</g>
			</g>
			<g>
				<path class="st13" d="M1061.5,640.9c1.3-6.7-4.9-12.6-8.8-17.3c-14.8-18.4-26.8-39.6-36.1-61.6c-3-7.1-6.2-14.2-9-21.5
					c-3.3-8.8-8.3-20.7-7.8-30.3c0.1-3.8,2.3-7.8,5.8-9c4.9-1.6,9.9,2.5,12.9,6.7c6.8,9.1,11.5,20.4,21.3,26.4
					c3.3,2,11.5,6.2,13.6,1.2c1.4-3.5-2.5-10.3-3.9-13.3c-5.2-11.7-11.6-23.1-18.6-33.8c-8.1-12.8-17.1-28.9-18-44.2
					c-0.1-3,0.1-6.5,2.3-8.7c5.5-5.4,15.9,2,20.6,5.2c5.8,3.9,21.5,18,28.9,15.1c11.2-4.5-5.5-24.5-8.8-30
					c-5.9-9.4-12.3-18.6-17.7-28.3c-10.6-19.4-14.6-29.3-10.9-33.5c4.6-5.1,19.3,0.3,23.1,1.6c15.1,5.5,19.6,14.2,23.5,12.6
					c7.4-3.2-9.9-33.9,1.3-58.9c9.3-20.4,36.5-36.4,64.7-32.3c30.6,4.3,51.6,31,53.9,53.9c2.6,27.4-21.7,47.1-13.9,56.5
					c7.7,9.3,34.1-5.7,39.1,1.2c7.5,10.1-33.2,45.7-39,51.5c-3.8,3.8-25.5,19.4-21.5,24.9c1.3,1.7,3.8,2.5,6.1,2.2
					c2.2-0.3,4.2-1.3,6.2-2.3c18-8.3,42-10.3,60.6-3.2c28,10.7-17.8,39.3-27.5,46.2c-17.1,12.2-37.1,21.9-52.5,36.2
					c-3.5,3.2-11,14.1-7.1,18.8c2.9,3.6,11-0.1,14.5-0.9c10.9-2.2,21.7-5.4,32.9-5.1c5.2,0.1,11.6,0.6,16.1,3.6
					c7.2,4.6,3.3,13.5-1,19.1c-3.3,4.3-7.7,7.8-12,11.3c-14.4,11.3-28.9,22.8-43.2,34.1c-9.6,7.5-19.4,14.1-28.6,22
					c-1.7,1.4-3.6,3.8-2.6,5.8c0.6,1.2,1.9,1.7,3.2,1.9c1.3,0,2.6-0.4,3.8-0.9c18.8-6.5,37.8-11.9,57.1-17.3c6.7-1.9,14.6-3.5,20,1
					c4.6,3.9,5.2,11,4.1,17c-3.3,16.8-16.5,29.9-30.6,39.6c-9.3,6.5-19,12.5-28.3,19c-2.6,1.9-11,5.5-11.7,8.8
					c-2.2,11.3,27.8-3.2,29.7-4.1c6.5-3.2,14.8-6.2,21.7-2.6c8,4.2,9.7,15.7,6.1,23.8c-4.3,9.4-13.5,14.8-21.7,20.3
					c-10.7,7.1-21.6,14.1-32.3,21.2c-5.4,3.5-63.2,42.2-63.8,41.5c-25.7-33.6-51.8-67.7-72.8-104.5c-4.9-8.4-18.8-31-11.5-40.3
					c3.6-4.5,10.9-4.2,12.2-4.2c13,0.4,22.2,12.5,29.1,22.2c1.6,2.2,7.1,13.2,9.4,5.5c1.3-4.6-9.6-15.7-12.2-19.6
					c-11.6-16.4-23.3-33.1-30-52c-3-8.4-12.6-43.8,1.3-48c11.9-3.6,24.8,14.6,31.2,22.3c5.4,6.2,10,13,14.6,19.9
					C1050.2,635.4,1059.5,650.6,1061.5,640.9z"/>
				<g>
					<path class="st14" d="M1109.1,650c0-1.4,1.4-4.3,1.4-5.8c-10.1-36.2-7.2-71-7.2-107.3c0-2.9,1.4-5.8,4.3-8.7
						c4.3-2.9,10.1,0,13,2.9c5.8,11.6,5.8,29,18.8,34.8c1.4,0,2.9-1.4,2.9-1.4c4.3-10.1,0-18.8-1.4-29c-2.9-17.4-17.4-36.2-8.7-53.6
						c8.7-1.4,13,4.3,18.8,8.7c5.8,7.2,13,13,20.3,20.3c1.4,0,4.3,0,5.8,0c4.3-4.3,0-8.7-1.4-13c-5.8-15.9-14.5-30.4-23.2-44.9
						c-4.3-5.8-13-14.5-8.7-21.7c15.9,0,29,10.1,40.6,20.3h2.9c0-2.9,0-4.3,0-7.2c-7.2-18.8-17.4-49.3,7.2-59.4
						c33.3-13,66.7,14.5,79.7,44.9c7.2,18.8,1.4,37.7-4.3,55.1c-5.8,15.9,15.9,11.6,26.1,13c2.9,1.4,1.4,5.8,1.4,8.7
						c-7.2,15.9-20.3,27.5-34.8,34.8c-7.2,4.3-13,8.7-20.3,13c-1.4,1.4-4.3,4.3,2.9,8.7c18.8-4.3,39.1-1.4,53.6,11.6
						c1.4,7.2-2.9,13-8.7,17.4c-27.5,18.8-56.5,20.3-87,27.5c-4.3,1.4-7.2,4.3-10.1,7.2c-1.4,1.4,0,4.3,2.9,5.8
						c13,4.3,27.5,5.8,40.6,10.1c4.3,1.4,8.7,4.3,8.7,10.1c-1.4,10.1-13,11.6-21.7,14.5c-24.6,7.2-49.3,8.7-73.9,15.9
						c-1.4,0-2.9,2.9-2.9,4.3s1.4,2.9,1.4,2.9c21.7,1.4,42,4.3,63.8,7.2c2.9,1.4,7.2,2.9,8.7,5.8c8.7,17.4-13,27.5-26.1,33.3
						c-13,4.3-26.1,5.8-39.1,13c-1.4,1.4,0,2.9,1.4,4.3c13,4.3,24.6-2.9,37.7,0c10.1,2.9,15.9,13,13,21.7
						c-1.4,7.2-8.7,8.7-14.5,10.1c-1.4,0-1.4,2.9-2.9,2.9c-14.5,4.3-26.1,11.6-39.1,18.8c-1.4,1.4-2.9,2.9-4.3,4.3
						c-8.7,4.3-14.5,13-23.2,17.4c-7.2-5.8-11.6-13-17.4-18.8c-2.9-4.3-5.8-8.7-10.1-13c-18.8-27.5-33.3-53.6-43.5-84.1
						c-2.9-11.6-10.1-27.5,1.4-36.2c18.8-1.4,18.8,20.3,27.5,33.3c1.4,1.4,2.9,0,2.9-1.4c-8.7-24.6-18.8-47.8-17.4-73.9
						c0-4.3-1.4-10.1,0-14.5c2.9-5.8,1.4-13,5.8-18.8c2.9-1.4,2.9-5.8,5.8-7.2c4.3-1.4,10.1,0,13,4.3c7.2,15.9,7.2,33.3,13,49.3
						c0,1.4,0,2.9,2.9,2.9L1109.1,650L1109.1,650z"/>
				</g>
			</g>
		</g>
		<path class="st6" d="M648.5,412c0.1,0.8,0.6,3.3-0.8,5.5c-1.2,2-3.1,2.3-7.3,4c-7.5,3-10.4,5.7-11.8,4.5c-0.7-0.6-0.5-2-0.3-2.9
			c2.2-11.4,3.4-17.1,3.5-17.6c2.1-6.8,1.4-6.4,3.3-12.5c2.6-8.6,9.3-26.9,12.8-26.3C652.5,367.6,646.5,399.7,648.5,412z"/>
	</g>
</g>
</svg>
