<?xml version="1.0" encoding="utf-8"?>
<!-- Generator: Adobe Illustrator 22.0.1, SVG Export Plug-In . SVG Version: 6.00 Build 0)  -->
<svg version="1.1" id="Camada_1" xmlns="http://www.w3.org/2000/svg" xmlns:xlink="http://www.w3.org/1999/xlink" x="0px" y="0px"
	 viewBox="0 0 1366 768" style="enable-background:new 0 0 1366 768;" xml:space="preserve">
<style type="text/css">
	.st0{fill:#E3FBF6;}
	.st1{fill:#00DFAA;}
</style>
<g id="Camada_24">
	<g>
		<path class="st0" d="M211.3,410.2"/>
		<g id="XMLID_1_">
			<path class="st1" d="M260,571c0-2.4-1.2-6.1-3.6-7.3c-26.7-13.4-46.2-31.6-65.7-53.6c-2.4-2.4-3.6-6.1-6.1-8.5
				c-6.1-8.5-12.1-17-11-28c7.3-6.1,13.4,2.4,18.2,6.1c7.3,8.5,15.8,15.8,26.7,17c2.4,0,4.9-3.6,3.6-6.1
				c-14.6-18.2-31.6-31.6-43.8-51.1c-6.1-9.7-11-21.9-4.9-31.6c1.2-1.2,4.9,0,6.1,0c8.5,4.9,14.6,11,23.1,14.6
				c3.6,1.2,7.3,0,9.7-2.4c1.2-3.6-1.2-7.3-2.4-11c-14.6-21.9-30.4-43.8-29.2-69.3c9.7-8.5,23.1,1.2,31.6,8.5c0,0,1.2,0,2.4,0
				c2.4-1.2,1.2-3.6,2.4-4.9c1.2-17-1.2-35.2,9.7-51.1c14.6-19.5,36.5-30.4,59.6-31.6c11,0,21.9,3.6,29.2,12.1
				c8.5,11,12.1,24.3,6.1,36.5c-3.6,7.3-8.5,13.4-13.4,19.5c-2.4,4.9-8.5,9.7-7.3,15.8c1.2,1.2,2.4,3.6,4.9,3.6
				c11-2.4,20.7-7.3,31.6-7.3c3.6,1.2,2.4,6.1,0,8.5c-15.8,18.2-32.8,31.6-47.5,51.1c-2.4,3.6-3.6,7.3-3.6,11c0,0,1.2,1.2,2.4,1.2
				c11-4.9,20.7-12.1,31.6-17c9.7-3.6,20.7-2.4,31.6-2.4c3.6,0,6.1,1.2,8.5,3.6c3.6,3.6,1.2,8.5-1.2,12.1
				c-12.1,13.4-26.7,24.3-39,37.7c-7.3,8.5-13.4,17-18.2,28c-1.2,2.4,0,6.1,0,9.7c1.2,2.4,0,7.3,6.1,3.6c14.6-7.3,28-19.5,45-17
				c2.4,1.2,4.9,2.4,6.1,6.1c0,3.6,1.2,7.3,0,9.7c-14.6,29.2-31.6,53.6-48.7,81.5c0,1.2,2.4,3.6,3.6,3.6
				c15.8-12.1,29.2-23.1,46.2-32.8c3.6-1.2,7.3-2.4,11,0c12.1,12.1,4.9,31.6-3.6,45c-12.1,15.8-24.3,28-39,41.3
				c-1.2,1.2-2.4,3.6-2.4,4.9l1.2,1.2c12.1-1.2,20.7-11,30.4-17c3.6-2.4,8.5-1.2,11,2.4c7.3,13.4-1.2,28-12.1,36.5
				c-32.8,26.7-66.9,49.8-104.6,66.9c-1.2-7.3-6.1-13.4-8.5-20.7c-2.4-4.9-6.1-9.7-8.5-15.8c-9.7-18.2-21.9-32.8-34.1-51.1
				c-2.4-3.6-3.6-7.3-2.4-11c0-8.5,11-9.7,18.2-9.7c12.1,1.2,19.5,11,28,18.2c2.4,1.2,4.9-1.2,3.6-4.9
				c-20.7-24.3-55.9-41.3-54.7-75.4c0-6.1,8.5-6.1,13.4-4.9c18.2,6.1,31.6,18.2,48.7,28C257.6,573.5,260,573.5,260,571L260,571z"/>
		</g>
	</g>
	<g>
		<path class="st1" d="M1047.1,571.9c1.1-5.6-4.2-10.6-7.4-14.4c-12.4-15.4-22.5-33.2-30.3-51.7c-2.6-5.9-5.2-12-7.5-18
			c-2.8-7.4-6.9-17.4-6.6-25.4c0.1-3.2,1.9-6.6,4.9-7.5c4.2-1.3,8.2,2,10.8,5.6c5.8,7.7,9.6,17.2,17.9,22.1c2.8,1.7,9.6,5.2,11.4,1
			c1.2-2.9-2-8.7-3.3-11.2c-4.3-9.8-9.7-19.3-15.6-28.3c-6.8-10.7-14.3-24.2-15-37.1c-0.1-2.6,0.1-5.5,1.9-7.3
			c4.6-4.5,13.4,1.7,17.3,4.3c4.9,3.3,18,15,24.2,12.7c9.4-3.8-4.6-20.5-7.4-25.1c-5-7.9-10.4-15.6-14.9-23.7
			c-8.9-16.3-12.3-24.6-9.1-28.1c3.9-4.2,16.2,0.3,19.3,1.3c12.7,4.6,16.4,12,19.7,10.6c6.2-2.7-8.2-28.4,1.1-49.4
			c7.8-17.2,30.6-30.5,54.3-27.1c25.7,3.6,43.3,26,45.2,45.2c2.2,23-18.2,39.6-11.7,47.5c6.5,7.8,28.6-4.8,32.8,1
			c6.3,8.5-27.9,38.3-32.8,43.2c-3.2,3.2-21.4,16.3-18,20.9c1.1,1.4,3.2,2,5.1,1.9c1.9-0.3,3.5-1.1,5.2-1.9
			c15-6.9,35.2-8.7,50.8-2.7c23.5,9-15,32.9-23.1,38.8c-14.3,10.2-31.2,18.3-44,30.4c-2.9,2.7-9.2,11.8-5.9,15.8
			c2.4,3,9.2-0.1,12.1-0.7c9.1-1.9,18.2-4.5,27.6-4.2c4.3,0.1,9.7,0.4,13.5,3c6.1,3.9,2.8,11.3-0.9,16c-2.8,3.6-6.5,6.6-10.1,9.5
			c-12,9.5-24.2,19.1-36.2,28.6c-8.1,6.3-16.3,11.8-24,18.5c-1.4,1.2-3,3.2-2.2,4.9c0.4,1,1.6,1.4,2.7,1.6c1.1,0,2.2-0.4,3.2-0.7
			c15.8-5.5,31.8-10,47.9-14.4c5.6-1.6,12.3-2.9,16.8,0.9c3.9,3.3,4.3,9.2,3.4,14.3c-2.8,14.1-13.9,25.1-25.7,33.2
			c-7.8,5.5-15.9,10.4-23.7,15.9c-2.2,1.6-9.2,4.6-9.8,7.4c-1.9,9.5,23.4-2.7,25-3.4c5.5-2.7,12.4-5.2,18.2-2.2
			c6.7,3.5,8.1,13.1,5.1,19.9c-3.6,7.9-11.3,12.4-18.2,17c-9,5.9-18.1,11.8-27.1,17.8c-4.5,2.9-53,35.4-53.6,34.8
			c-21.5-28.2-43.3-56.8-60.9-87.7c-4.2-7.1-15.8-26-9.6-33.8c3-3.8,9.1-3.5,10.2-3.5c11,0.4,18.6,10.4,24.4,18.6
			c1.3,1.9,5.9,11.1,7.9,4.6c1.1-3.9-8.1-13.1-10.2-16.4c-9.7-13.7-19.6-27.7-25.1-43.6c-2.6-7.1-10.6-36.7,1.1-40.3
			c10-3,20.8,12.3,26.1,18.8c4.5,5.2,8.4,11,12.3,16.6C1037.7,567.4,1045.5,580.1,1047.1,571.9z"/>
	</g>
</g>
</svg>
