<?xml version="1.0" encoding="utf-8"?>
<!-- Generator: Adobe Illustrator 22.0.1, SVG Export Plug-In . SVG Version: 6.00 Build 0)  -->
<svg version="1.1" id="Camada_1" xmlns="http://www.w3.org/2000/svg" xmlns:xlink="http://www.w3.org/1999/xlink" x="0px" y="0px"
	 viewBox="0 0 1366 768" style="enable-background:new 0 0 1366 768;" xml:space="preserve">
<style type="text/css">
	.st0{display:none;fill:#269DC6;}
	.st1{display:none;fill:#29ABE2;}
	.st2{fill:#FF9370;}
	.st3{fill:#FF561F;}
	.st4{fill:#8D1CFF;}
	.st5{fill:#470E80;}
	.st6{fill:#6A15BF;}
	.st7{fill:#8C1AFF;}
	.st8{fill:#FFB096;}
	.st9{fill:#4D4D4D;}
	.st10{opacity:0.6;fill:#FFFFFF;enable-background:new    ;}
	.st11{fill:#FF9F80;}
	.st12{fill:#FFF3F0;}
	.st13{opacity:0.1;enable-background:new    ;}
	.st14{fill:#FF926E;}
	.st15{opacity:0.2;enable-background:new    ;}
	.st16{fill:#AABF00;}
	.st17{fill:#FFFF00;}
	.st18{opacity:0.3;enable-background:new    ;}
	.st19{opacity:0.3;fill:#AABF00;enable-background:new    ;}
	.st20{fill:none;}
	.st21{fill:#FFFFFF;}
	.st22{fill:#E0FBF5;}
	.st23{opacity:0.2;}
	.st24{fill:#6EEDCF;}
	.st25{display:none;}
	.st26{display:inline;fill:#FFFFFF;}
	.st27{display:inline;}
	.st28{fill:#D4DF00;}
</style>
<g id="ENFEITES">
	<polygon class="st0" points="1345.8,501.5 683,372.7 683,-75.9 1345.8,52.9 	"/>
	<polygon class="st1" points="20.2,503.4 683,374.6 683,-73.9 20.2,54.9 	"/>
</g>
<g id="PESCOÇO">
	<path class="st2" d="M837.9,316.1c-9,7.9-15.6,4.3-60.8,6.5c-38.6,1.9-49.2,5.1-53.7-1.9c-6.1-9.1,11-19.5,15.3-51.4
		c1.9-13.9,1.9-34.4,0.7-47.5c-0.4-4.5-1.4-17.4,4.2-31.8c0.4-1.1,0.9-2.3,1.4-3.4c10.7-19.6,47.3-28.6,61.4-15.9
		c11.3,10.1,0.9,27.4,8.4,48.1c1.1,3,2.6,6.1,4.6,9.2c1,1.4,1.9,2.8,2.8,4c0.6,0.7,1.2,1.4,1.9,2.2c-1.4,4.3-3.2,8.2-4.6,11.3v0.1
		c-5.1,11.2-11.3,19.6-16.2,25.3c5,8.1,10,16.4,15,24.6c14.1-13.1,23-28.9,25.3-44.2c0.6,1,1.3,2,1.9,3.3
		C855.5,273.3,853.5,302.5,837.9,316.1z"/>
</g>
<g id="roupa">
	<g id="Camada_9">
		<g>
			<path class="st3" d="M715.6,499.3c5.8,28.2,91.2,82.7,138.5,58.9c62.4-31.5,65.6-201.4-9.5-243.5c-20.7-11.6-45.6-8.9-68.5-9.7
				c-15.3-0.6-47.3-15.7-59.1-3.3c-11,11.3,12.1,35.2,10.4,85.3C726.7,408.4,726.2,423.2,715.6,499.3z"/>
		</g>
	</g>
	<g id="Camada_7">
		<path class="st4" d="M1004.1,478.6c-1.7,6.5-7.4,9.7-10,11.6c-14.3,10-7.8,26.4-22.8,52.1c-5.5,9.4-13.3,22.5-26.7,25.9
			c-9.7,2.4-16.4-3.5-27.7-5.3c-49.7-7.8-67-3.2-80.4-17.8c-4-4.3-6.7-14.9-11.8-35.4c-7.3-29.4-9.5-46.9-15.7-80
			c-3.8-19.9-4.5-21.2-6.1-29.3c-0.4-2.7-1.1-5.9-2-11c-12-70.3-1.4-53.7-7.1-91c-0.6-3.9-2.2-14.3,3.5-22.5
			c5.5-7.9,12.4-4.2,20.1-11.8c9.5-9.6,3.9-20.5,11.7-25.6c3-1.9,6.6-2,29.8,4.9c13.3,4,19.3,6.2,31.9,10.2
			c22.2,7.2,23.6,6.9,32.3,10.6c13.7,5.9,20.8,9,27.1,15.8c5.8,5.9,5.6,9.2,15.3,41c2.9,9.2,4.6,19.2,8.5,28.1
			c4.2,9.6,8.7,18.9,12,28.9c4.8,14.4,7.8,29.4,9,44.5c0.6,7.2,0.4,14.3,2,21.2c1.9,7.5,4.5,15,5.8,22.8
			C1003.7,472.4,1005,475.3,1004.1,478.6z"/>
		<path class="st5" d="M835.6,231.1c0.9,3.5-1.9,5.3-5.1,5.5c-5.8,0.3-8.5-3.8-11.1-8.1c-0.1-0.1-0.4-0.4-0.6-1.1
			c-1-1.7-1.4-2.6-1.7-2.9c-0.7-1.4-1.1-2.6-1.9-4.8c-0.4-1-0.4-1.4-0.4-1.7c0.7-1.6,7.3-0.6,12.4,2.4c1,0.4,1.6,1.1,2,1.4
			C831.1,224.1,834.9,227.7,835.6,231.1z"/>
		<path class="st6" d="M843.5,251.2c-0.1,8.8-3.5,14.6-8.2,22.8c-4.2,7.5-10,14.7-17,21.2c-5-8.1-10-16.4-15-24.6
			c5-5.8,11.1-14.3,16.2-25.3v-0.1c2.7-5.3,4.2-9.6,4.6-11.1c0,0,0-0.1,0.1-0.3c0.9-2.6,1.6-5.1,1.9-7.8c0.1-1.1,0.4-2.2,0.4-3.3
			c0-0.6-0.4-2.6,0.1-2.9c0.6-0.4,1.7,0.4,2.2,0.9c5.2,4,7.3,7.7,7.3,7.7C839.8,235.2,843.7,241.9,843.5,251.2z"/>
	</g>
	<g id="Camada_11">
		<path class="st4" d="M675.3,431.7c-3.5,3-5.8,2.4-11,3.8c0,0,4.9-17.3,3-18c-1-0.4-3.8,3.9-8.5,12.1c-1.2,2-2.6,4.2-4,6.8
			c-1.9,3.2-3.9,6.6-6.1,10.4c-4.2,6.9-7.3,12.4-10.1,16.8c-7.1,11.1-10.4,14.6-15.8,16c-6.3,1.9-7.5-1.3-19.6-1.1
			c-13.9,0.3-21.4,4.3-28.3,5.9c-10.2,2.3-26.3,0.6-50.7-19.2c29.2-19.5,44.5-40.1,53.1-55.7c7.9-14.3,9-22.1,15.4-39.3
			c3.5-9.5,6.6-16,10-24c0,0,6.5-14.9,15.2-31.2c0.4-1,1.1-1.9,1.6-2.9c0.9-1.6,2-3.5,4.5-7.3c0-0.1,0.1-0.1,0.1-0.3
			c3.2-4.9,7.2-11.6,12.7-14.3c6.7-3.3,10.7,3.4,13.4,8.9c0.6,1.2,1.1,2.3,1.4,3.3c1.7,3.6,3.3,7.4,4.9,11.1c0.4,0.7,0.6,1.4,1,2.3
			c1.6,3.8,3.2,7.7,4.6,11.6c6.5,16.6,11.7,33.5,15,50.8C677.5,378.4,686,422.6,675.3,431.7z"/>
		<path class="st6" d="M660.6,305.5c-1.1,2.9-2.4,5.8-3.9,8.4c-6.1,11.2-14.4,20.4-17.8,22.5c-0.6,0.4-1,0.4-1.2,0.4
			c-0.3-0.1-0.3-0.4-0.3-1.2l0,0c0.4-2.4,1.9-8.1,0.6-16.3c-0.6-4.2-1.9-11.6-6.9-14.1c-2.8-1.3-4.9-0.4-7.1-0.1
			c0-0.1,0.1-0.1,0.1-0.3c3.2-4.9,7.2-11.6,12.7-14.3c6.7-3.3,10.7,3.4,13.4,8.9c0.1-0.4,0.1-0.7,0.3-1.1c1.1-5.8,1.1-9.2,1.6-12
			c0.4,0.9,0.9,1.6,1.2,2.4c0.1-0.4,0.1-0.7,0.3-1.1c0.6-3.4,0.9-5.9,1.1-8.1c0.9-1.4,2-2.8,3.4-3.9c1.1,1.2,2,2.4,2.8,3.8
			C665.3,287,664.2,296.5,660.6,305.5z"/>
		<path class="st6" d="M659,455.7c-1.3-6.5-2.8-12.7-4-19.2c-1.9,3.2-3.9,6.6-6.1,10.4c-4.2,6.9-7.3,12.4-10.1,16.8
			c-3.8-3.5,2.9-9.8,4-27.6c0.6-9-0.6-15.6,2.3-27.3c1.1-4.2,1.9-7.2,3-8.1c0.3-0.3,0.4-0.4,0.7-0.4c3.8-0.4,7.9,16.8,10,29.4
			c0.3,1.7,0.4,3.2,0.7,4.6C661.4,446.3,660.3,452.5,659,455.7z"/>
	</g>
	<g id="Camada_10">
		<path class="st4" d="M750,363.3c-1.7,11.7-2.3,10.1-8.2,36.7c-10.7,48.2-16.2,72.3-17.8,93.4c-1.3,18.3,0.1,25.1-5.9,30.8
			c-10.2,9.4-32.9,7.1-44.2-4.9c-7.2-7.7-7.9-17.3-8.7-25.9c-1.2-12.7-3.6-25.1-6.2-37.6c-1.3-6.5-2.8-12.7-4-19.2
			c-1.1-5.1-2-10.4-2.9-15.4c-1.2-7.5-2.6-14.3-3.9-20.4c-5.9-28.7-11.4-42.7-12-53.6c-0.3-4,0.3-7.7,1.6-11.6l0,0
			c0.4-1,0.7-1.9,1.2-2.9c2.4-5.2,9.5-22.8,11.6-33.2c0.1-0.4,0.1-0.7,0.3-1.1c1.1-5.8,1.1-9.2,1.6-12c0.1-0.9,0.3-1.6,0.4-2.3
			c0.1-0.3,0.1-0.4,0.3-0.7c0,0,0.6-1.4,1.3-2.8c0.1-0.3,0.4-0.6,0.4-0.9c0.9-1.4,2-2.8,3.4-3.9c6.1-5.3,15.9-7.8,22.8-10.4
			c17.4-7.1,18.3-10.4,39.7-17.5c9-2.9,11.7-3,13-2.8c0,0,0.4,0.1,0.6,0.1c6.3,1.9,9.8,12.9,15.2,29c3.4,10.4,4.5,13.7,3.5,18.8
			c-1,4.5-2.4,5.8-4.3,9.5c-5.3,10.7,3.8,16.8,3.5,38.4C751.9,349.7,750.3,360.8,750,363.3z"/>
	</g>
	<g id="Camada_20">
	</g>
	<path class="st6" d="M720.8,243.8c-2.6,5.6-1,11,1.2,21.7c1.3,6.3,3.9,15.7,9.5,26.4c2-2.6,4.3-5.2,7.1-7.9
		c3.8-3.8,7.4-6.9,10.8-9.6c-3-6.9-6.5-16.8-8.1-28.9c0-0.1,0-0.1,0-0.1c-0.4-2.7,2.7-4.6,5.3-7.8c0.6-0.7,5-5.9,3.5-8.2
		c-0.6-1.1-2.3-1.1-3.9-1.2c-3.8-0.1-6.7,1.2-7.5,1.6C731.2,233.2,724.1,236.5,720.8,243.8z"/>
</g>
<g id="CABEÇA">
	<path class="st7" d="M852.2,74.2"/>
	<g>
		<path class="st8" d="M703.9,105.2c-6.2,10.4-3.6,20.2-2.6,37c1.9,28.4-3.8,26.7-1.1,42.9c1.2,7.4,8.5,45.2,35.9,53.3
			c13.9,4.2,27.5-1.7,39.7-7.8c9.2-4.6,26.1-12.1,25.7-24.4c-0.3-4.6-3.3-7.3-1.6-11.7c2-5.3,9.8-7.3,13.7-11.1
			c8.5-8.2,19.5-47.3-4.3-41.3c-7.1,1.9-11.6,9.8-10.8,16.8c-1.7-4.3,1.2-9.8,2-14.4c7.7-45.2-42.8-74.9-81.7-52.8
			C714.6,94.1,708.4,97.9,703.9,105.2z"/>
		<path class="st9" d="M698,121c1,11.2,7.1,19.3,12.7,19.8c9.5,0.7,18.9-19.7,15.2-23.8c-0.6-0.7-1.7-1.1-2.6-0.7
			c-4,1.9-2.3,23.6,5.8,26.6c9.2,3.2,26-17.6,22.8-23.2c-0.7-1.3-2.8-2-4-1.4c-4.3,2.2-2.2,23.8,6.6,26.9
			c10,3.4,26.6-17.3,23.6-22.5c-1.1-1.9-5.5-2.4-7.8-0.7c-5.8,4.2-2.3,24.8,5.8,27.3c9.4,2.7,24.3-18.3,21.4-22.5
			c-0.9-1.2-3.6-1.4-5.5-0.4c-5,3.2-1,12.7,0.3,16.9c2.4,8.8,0.6,19.5-2.6,27.9c-0.7,1.9-1.7,4.2-1.2,6.1c0.4,2.4,3.3,1.9,5,1.1
			c3.9-1.9,3.3-5.9,3.6-9.6c0.4-4.9,2-10.7,4-15c1.7-4,4.6-8.1,9.1-9.1c7.4-1.7,13.1,4.5,13.4,11.4c0.3,6.3-2.6,12.9-5.9,18
			c-5.2,7.7-9.8,7.2-11.4,13.4c-1.2,4.9,0.4,10.1,2.7,14.3c1.4,2.7,3.2,5.2,5.1,7.5c0.6,0.7,2,2.8,3.2,2.8c1.4,0,0.4-1.4,0.1-2.3
			c-1-2.7-2-5.3-2.3-8.2c-1.1-12.7,10.1-17.6,18.1-34.9c6.2-13.4,8.2-29.6,5.5-30.8c-2.2-0.9-5.2,3.3-5.6,5
			c-0.9,3.6,1.9,5.6,3.5,8.2c2,3.6,2.7,7.9,2.8,12c4.3-7.2,6.5-15.9,7.5-24.2c0.7-5.3,4.3-21.2-2.7-24.1c-3.2-1.3-6.8,1.7-7.4,5
			c-1.1,6.3,5.3,12.4,7.7,18c4.2,10.1,2.4,17,3.3,17c2.3,0.1,14.9-44.8-2.6-57.3c-5.8-4.2-15-4.6-21.1-1.4
			c-10.2,5.2-13.4,20.7-12.4,21.1c1.3,0.6,19.7-24.8,12.9-35.1c-5.5-8.1-26.6-7.1-29.4-0.7c-1.9,4.2,4,12.4,7.8,12
			c2.8-0.4,4.2-5.3,4.3-6.2c3.2-11.1-5.2-30-18-30.2c-9.1-0.1-17.3,9.5-18.8,18.5c-1.3,8.2,2.8,17.3,5.1,17c2.4-0.1,5.1-10,3.3-18.1
			c-3-14.3-20.4-29.4-33.6-24.7c-14.7,5.2-18.1,33.5-9.6,40.3c4.2,3.3,12,2.7,14-0.7c2.9-5.2-7.2-19.9-21.1-24.3
			c-17.5-5.5-33.1,8.1-33.9,8.8c-16.6,14.7-12.4,38.8-12.1,40.3c1.7,9.7,5.8,10.7,7.8,23.6c1.9,13.1-1,22.7,1.1,23.2
			c1.4,0.4,5.5-5,7.8-12c5.8-17.2-1.3-35.4-2.2-35.1C697,111.2,697,113.2,698,121z"/>
	</g>
</g>
<g id="FUMAÇA">
	<path class="st4" d="M585,241.8"/>
	<path class="st10" d="M724,322.1c-0.7-0.4-1.3-1-1.9-1.6c-3.2-3.5-4.6-8.4-7.5-12c-4.6-5.8-12.4-7.9-19.7-7.9
		c-7.3-0.1-14.4,1.6-21.8,2.3c-5.3,0.4-31.3-1.4-18.2-10.8c2.3-1.7,5.1-2.4,7.9-3.2c10-2.7,19.9-5.5,29.9-8.1
		c3.9-1.1,8.8-3.4,8.2-7.4c-0.3-2.2-2.2-3.8-4.3-4.5c-2-0.6-4.3-0.4-6.6-0.4c-11.8,0.3-23.6-2.2-34.3-7.2c-5.5-2.6-11.2-6.5-12-12.4
		c-0.7-5.1,2.6-10,6.9-12.7c4.3-2.7,9.5-3.6,14.6-4.3c5.1-0.7,10.2-1.3,14.9-3.5c2.9-1.3,5.8-4.5,4.3-7.3c-1.6-3.2-6.3-2.2-9.7-1.4
		c-11.3,2.4-23.8-4.9-27.3-15.9c-1-3.2-1.3-6.6-0.1-9.6c1.2-3.1,4.2-5.6,7.3-5.6c4.9,0,8.1,4.9,11.8,8.1c6.2,5.2,15,6.2,23.2,5.9
		s16.6-1.2,24.3,1.1c7.8,2.3,15,9.2,14.6,17.4c-0.4,5.6-4.3,10.4-9.2,13.1s-10.6,3.5-16.2,3.9c-3.6,0.3-7.5,0.3-10.8,2
		c-3.3,1.9-5.5,6.1-3.5,9.4c2,3.6,7.4,3.4,11.6,2.8c15-1.9,30.3-1.3,45.1,1.7c5.6,1.2,12.3,3.8,13.1,9.5c0.7,5-3.5,9.4-8.1,11.4
		c-4.5,2-9.7,2.8-14,5.2c-8.8,5-12,17.8-6.8,26.4c1.6,2.6,3.6,4.8,5,7.3c1.3,2.6,1.9,6.1,0.1,8.4C732.3,325.1,727.4,324.4,724,322.1
		z"/>
</g>
<g id="POLGAR">
	<path class="st11" d="M778,341.6c-5.1-1.4-6.3-7.8-8.9-11.7c-3.4-5.5-21.2-12.4-14.4-19.8c5.1-5.6,13.4-1.4,18.1,2
		c12.6,9.5,21.5,16.2,19.6,22.4C790.8,339.4,783.3,343.2,778,341.6z"/>
</g>
<g id="CANECA">
	<path class="st12" d="M777.9,331.3c-4.3,16.2-14.4,30.8-28.1,40.6c-0.1,0.1-0.4,0.3-0.4,0.4c-6.8,4.9-14.7,8.5-23,9.2
		c-3,0.3-10,0.6-17.4-3.2c-1.3-0.6-2.4-1.3-3.4-1.9c-0.4-0.3-0.9-0.6-1.2-0.9c-1.1-3.3-1.9-5.8-2.2-7.3c-2.8-10.8-3-19.2-3.3-48.9
		c0-1.3,0-4.2,0-5.5c1.6-0.4,3.9-1.2,6.8-1.9c3.3-0.9,9.4-2.3,27.1-4.3c9.8-1.1,12-1.1,14.6,0.4c4,2.4,5.6,6.8,6.3,9.6
		c6.6,1.6,11.8,2.7,15.6,3.3c4.2,0.6,7.2,1,8.7,3.3C779.4,326.4,778.4,329.3,777.9,331.3z"/>
	<path class="st13" d="M749.4,372.2c-6.8,4.9-14.7,8.5-23,9.2c-3,0.3-10,0.6-17.4-3.2c-1.3-0.6-2.4-1.3-3.4-1.9
		c4-2.2,10-4.2,15.3-5.3C732.1,368.6,742,370.1,749.4,372.2z"/>
</g>
<g id="BRACO_x5F_ESQ">
	<path class="st8" d="M761.5,333.7c-2.9-1.9-5.8-4.2-5.6-6.7c0.3-5.2,12.9-9.8,23.4-9.6c1,0,18.1,0.9,28.7,14.6
		c15,19.5,1.4,45.8-0.4,49.2c-2.3,4.5-9.5,18.3-19.7,18.1c-3.5-0.1-9.4-1.9-12.1-6.3c-1.9-3-0.9-4.9-3.2-7.5
		c-1.9-2-3.4-1.9-10.6-4.3c-8.1-2.8-9.2-4-9.8-5.1c-1.3-2.3-1.6-5.8,0-8.1c1.1-1.6,3.6-1.4,4.5-2.8c2.6-3.6-6.1-7.5-2.6-12.9
		c0.7-1.1,4.6-2.6,4.8-3.4c0.1-1-2.7-2-3.3-2.7c-1.6-1.7-2.8-4.6-2.3-6.9C753.9,335.8,758.1,333.1,761.5,333.7z"/>
	<path class="st6" d="M988.2,483.5c-4.8,28.9-15.9,77.5-43.6,83.8c-6.3,1.4-8.2-0.4-27.9-4.6c-50.8-10.7-67.4-3.5-80.4-17.8
		c-4-4.3-6.7-14.9-11.8-35.4c-7.3-29.4-9.5-46.9-15.7-80c-3.8-19.9-4.5-21.2-6.1-29.3c7.4,6.3,18.3,12.1,34.7,20.9
		c17.4,9.4,27.7,12,39,24.8c8.4,9.6,6.2,12.3,14.3,20.1c9.7,9.5,16.8,9.4,41.3,18.9c24.4,9.5,30.8,15,38.1,15.6
		c1.4,0.1,3.5,0.7,5.6-0.3c10.1-4.8,4.3-34.2,6.7-34.5C983.1,465.8,984.8,469.7,988.2,483.5z"/>
	<path class="st4" d="M1003.5,475.6c-0.4,1-0.7,1.9-1.1,2.8c-30.4,68.1-122.9-21.4-155.9-39c-15.3-8.1-37-13.7-46.8-29
		c-2.4-3.8-4.2-8.1-5.1-12.7c-5.8-26.6,10.1-63.2,28.7-66.7c7.2-1.3,12.4,2.7,24.1,10.2c1.9,1.1,28.6,15.6,82.3,44.4
		c42.9,23.1,48.1,21.5,58.2,34.2C992.4,425.3,1011.9,451.3,1003.5,475.6z"/>
</g>
<g id="PLANTAS">
	<g id="MESA">
		<g>
			<path class="st14" d="M1072.7,564.1v42.6c-82.5,24.4-164.8,48.8-247.3,73.2c-197.7-33.8-395.5-67.5-593-101.3v-52.9l287.8-32.8
				L1072.7,564.1z"/>
		</g>
	</g>
	<g id="objs_x5F_mesa">
		<g id="notebook">
			<g id="inf_x5F_note">
				<path class="st15" d="M795.6,540.7c0,1.6-2.3,3.4-6.9,5.1c-1.9,0.7-4,1.3-6.6,1.9l-159.6,42.6c-66.9-15.3-149.8-43.7-216.5-59
					l175.6-29.6c14.4-3.6,34.5-4.6,44.9-2.3l163,37.4C793.6,538,795.6,539.3,795.6,540.7z"/>
				<path class="st16" d="M788.7,519.3v9.1c0,2.3-4.6,5-13.4,7.2l-161.6,40.3l-200.6-45.9l18.9-4.8l181.6,41.7l161.5-40.4
					c2.6-0.6,4.8-1.3,6.6-1.9C786.3,522.7,788.7,520.9,788.7,519.3z"/>
				<path class="st17" d="M788.7,519.3c0,1.6-2.3,3.4-6.9,5.1c-1.9,0.7-4,1.3-6.6,1.9l-161.4,40.4L432.3,525l-18.9-4.3l161.4-40.4
					c14.4-3.6,34.5-4.6,44.9-2.3l163,37.4C786.8,516.6,788.7,517.9,788.7,519.3z"/>
				<path class="st18" d="M686.1,540.6c0,1.6-2.3,3.4-6.9,5.1c-1.9,0.7-4,1.3-6.6,1.9l-43,10.8l-14.3,3.5l-18.9,4.8l-0.4,0.1
					l-167.5-35.7l-8.2-16.6l52-13c14.4-3.6,34.5-4.6,44.9-2.3l2.2,0.4l91.8,21.1l69,15.8C684.1,537.8,686.1,539.1,686.1,540.6z"/>
				<path class="st19" d="M718.8,506.5c0,0.6-1,1.3-2.7,2c-0.7,0.3-1.6,0.4-2.6,0.7l-63.4,15.9l-71.4-16.4l-7.4-1.7l63.4-15.9
					c5.8-1.4,13.6-1.9,17.6-0.9l64.1,14.7C718.1,505.5,718.8,505.9,718.8,506.5z"/>
				<line class="st20" x1="788.7" y1="560.1" x2="788.7" y2="552.3"/>
				<line class="st20" x1="788.7" y1="543.3" x2="788.7" y2="538.5"/>
			</g>
			<g id="book">
				<path class="st15" d="M903.6,628.4c-35.8,10.2-71.4,20.4-107.1,30.8c-38.4-13-76.8-26-115.3-39c29.6-4.5,59.9-9.7,91.2-15.8
					c18.8-3.6,37.2-7.4,55.2-11.4C852.8,604.7,878.2,616.6,903.6,628.4z"/>
				<path class="st9" d="M893.2,619.2c0,1-1.3,1.9-3.9,2.9c-1.1,0.4-2.3,0.7-3.6,1.1L794.5,646l-102.7-23.5l-10.7-2.4l91.2-22.8
					c8.1-2,19.6-2.6,25.4-1.2l92.1,21.2C892.1,617.6,893.2,618.4,893.2,619.2z"/>
				<path class="st21" d="M893.2,612.5c0,1-1.3,1.9-3.9,2.9c-1.1,0.4-2.3,0.7-3.6,1.1l-91.2,22.8l-102.7-23.6l-10.7-2.4l91.2-22.8
					c8.1-2,19.6-2.6,25.4-1.2l92.1,21.2C892.1,610.9,893.2,611.6,893.2,612.5z"/>
				<path class="st21" d="M893.2,610.2c0,1-1.3,1.9-3.9,2.9c-1.1,0.4-2.3,0.7-3.6,1.1L794.5,637l-102.7-23.6l-10.7-2.4l91.2-22.8
					c8.1-2,19.6-2.6,25.4-1.2l92.1,21.2C892.1,608.6,893.2,609.3,893.2,610.2z"/>
				<path class="st21" d="M893.2,607.7c0,1-1.3,1.9-3.9,2.9c-1.1,0.4-2.3,0.7-3.6,1.1l-91.2,22.8l-102.7-23.6l-10.7-2.4l91.2-22.8
					c8.1-2,19.6-2.6,25.4-1.2l92.1,21.2C892.1,606.1,893.2,606.9,893.2,607.7z"/>
				<path class="st21" d="M893.2,605.4c0,1-1.3,1.9-3.9,2.9c-1.1,0.4-2.3,0.7-3.6,1.1l-91.2,22.8l-102.7-23.6l-10.7-2.4l91.2-22.8
					c8.1-2,19.6-2.6,25.4-1.2l92.1,21.2C892.1,603.8,893.2,604.5,893.2,605.4z"/>
				<path class="st21" d="M893.2,614.8c0,1-1.3,1.9-3.9,2.9c-1.1,0.4-2.3,0.7-3.6,1.1l-91.2,22.8l-102.7-23.5l-10.7-2.4l91.2-22.8
					c8.1-2,19.6-2.6,25.4-1.2l92.1,21.2C892.1,613.2,893.2,614.1,893.2,614.8z"/>
				<path class="st21" d="M893.2,617.2c0,1-1.3,1.9-3.9,2.9c-1.1,0.4-2.3,0.7-3.6,1.1L794.5,644l-102.7-23.6l-10.7-2.4l91.2-22.8
					c8.1-2,19.6-2.6,25.4-1.2l92.1,21.2C892.1,615.7,893.2,616.4,893.2,617.2z"/>
				<path class="st9" d="M893.2,603.6c0,1-1.3,1.9-3.9,2.9c-1.1,0.4-2.3,0.7-3.6,1.1l-91.2,22.8l-102.7-23.6l-10.7-2.4l91.2-22.8
					c8.1-2,19.6-2.6,25.4-1.2l92.1,21.2C892.1,602.1,893.2,602.8,893.2,603.6z"/>
				<path class="st22" d="M819.9,617.8c0,0.3-0.4,0.4-1,0.7c-0.3,0.1-0.6,0.3-1,0.3l-23.7,5.9l-26.7-6.1l-2.8-0.6l23.7-5.9
					c2-0.4,5.1-0.7,6.6-0.4l24,5.5C819.5,617.4,819.9,617.6,819.9,617.8z"/>
				<line class="st20" x1="948.8" y1="663.7" x2="948.8" y2="655.9"/>
				<line class="st20" x1="948.8" y1="647" x2="948.8" y2="642.2"/>
				<path d="M894.5,679.3"/>
			</g>
			<g id="MAODIR">
				<g id="Camada_18">
					<path class="st8" d="M623.8,516.6c-0.9,3.2-2.7,10.8-6.7,11.3c-0.7,0.1-1.3,0-1.9-0.3c-1.2-0.4-2.2-1.3-2.4-1.7
						c-4.3-4.3,0-10.8-3.8-15c-1.3-1.6-1.7-0.4-12-3.8c-5.3-1.9-6.1-2.3-8.2-2.2c-2.7,0.3-3.9,1.3-8.5,2.2c-0.4,0.1-1.7,0.4-3.3,0.9
						c-0.9,0.3-1.9,0.6-3,1.2c-4.5,2.4-8.1,6.5-10.2,11.1c-1.1,2.3-1.9,4.9-2.4,7.3c-0.9,4,1.2,13.3-4.6,14.3
						c-1.9,0.4-3.9-0.4-5.8-1c-6.3-2.3-24.1-5.2-27.1-11.2c-2.6-5-0.3-10.7,3-18.9c4.6-11.3,10.2-12.3,16.4-23
						c7.2-12.4,3.3-16.6,8.2-22.2c12-13.6,52.8-11.2,68.1,13C629.5,493.8,624.9,512.1,623.8,516.6z"/>
				</g>
				<path class="st2" d="M618.6,517.9c-0.3,1.7-0.4,3.2-1,4.6c-0.4,1.7-1.2,3.4-2.3,5c-1.2-0.4-2.2-1.3-2.4-1.7
					c-4.3-4.3,0-10.8-3.8-15c-1.3-1.6-1.7-0.4-12-3.8c-5.3-1.9-6.1-2.3-8.2-2.2c-2.7,0.3-3.9,1.3-8.5,2.2c-0.4,0.1-1.7,0.4-3.3,0.9
					c-0.9,0.3-1.9,0.6-3,1.2c-4.5,2.4-8.1,6.5-10.2,11.1c-0.4-0.6-0.6-1.2-0.7-1.6c-1.4-5,4.2-9.6,7.1-17.4c0.6-1.9,0.9-3,1-4
					c0.4-3-0.4-3.9,0-5.1c1-2.8,6.8-2.2,9.1-2.6c3.5-0.6,7.2-1.7,10.2-3.5c2.8-1.7,6.8-5.9,10-1.9c1,1.3,1.2,3.2,1.7,4.8
					c1.2,3.9,5.3,3.9,8.5,5.6C617.8,498,619.6,509.5,618.6,517.9z"/>
			</g>
			<g id="SUP_x5F_note">
				<path class="st9" d="M615.9,575.9l-1.1-0.3l-26.1-5.6l-15-3.2L406,531.3l-8.2-16.6L338.9,396c-5.9-12.1-2-20.1,8.8-17.8
					l170.7,36.2c10.8,2.3,24.4,14,30.5,26.1l20.4,41.3l12,24.1l1.7,3.3l5.8,11.8l18.6,37.4l3.9,7.8l4.6,9.2L615.9,575.9z"/>
			</g>
		</g>
	</g>
</g>
<g id="Camada_25">
	<g>
		<polygon points="851,560.6 850.9,560.6 850.9,560.6 		"/>
		<g id="celular_2_">
			<g>
				<path d="M855.6,559C855.6,559,855.6,559.1,855.6,559L855.6,559C855.6,559.1,855.6,559,855.6,559z M855.6,558.9L855.6,558.9
					L855.6,558.9L855.6,558.9z M855.6,559C855.6,559,855.6,559.1,855.6,559L855.6,559C855.6,559.1,855.6,559,855.6,559z
					 M855.6,558.9L855.6,558.9L855.6,558.9L855.6,558.9z M855.6,559C855.6,559,855.6,559.1,855.6,559L855.6,559
					C855.6,559.1,855.6,559,855.6,559z M855.6,558.9L855.6,558.9L855.6,558.9L855.6,558.9z"/>
				<path d="M873,557.3c-4.5-1.2-11.8-1.6-16.4-0.7l-32.9,5.8l-2,0.4l80.9,22.4c4.3,1.2,11.8,1.6,16.3,0.7l35.1-6.2l-2.4-0.7
					L873,557.3z"/>
				<path d="M855.6,559.1L855.6,559.1L855.6,559.1C855.6,559,855.6,559.1,855.6,559.1z"/>
				<path d="M855.6,558.9L855.6,558.9L855.6,558.9L855.6,558.9z"/>
				<path d="M854.2,558L854.2,558C854.3,558,854.3,558,854.2,558L854.2,558L854.2,558z"/>
				<polygon points="850.9,560.6 851,560.6 851,560.6 				"/>
				<path d="M824.2,563.2L824.2,563.2c0.4,0,0.7,0.1,1.1,0.3C825,563.5,824.6,563.4,824.2,563.2z"/>
				<path class="st20" d="M813.6,564.7v0.9C813.4,565.3,813.4,565,813.6,564.7z"/>
				<path d="M825.3,563.5c-0.4,0-0.7-0.1-1.1-0.3l0,0C824.6,563.4,825,563.4,825.3,563.5z"/>
				<path d="M829.5,563.8c0.7,0,1.4,0,2.2,0C831,563.8,830.2,563.8,829.5,563.8z"/>
				<path d="M827.3,563.7c0.7,0.1,1.4,0.1,2.2,0.1C828.8,563.8,828.1,563.7,827.3,563.7z"/>
				<path d="M831.8,563.8c0.6,0,1.3,0,1.9-0.1C833.1,563.7,832.5,563.8,831.8,563.8z"/>
				<path d="M851,560.6L851,560.6L851,560.6z"/>
				<path d="M855.6,559.1L855.6,559.1C855.6,559.1,855.6,559,855.6,559.1C855.6,559,855.6,559.1,855.6,559.1z"/>
				<path d="M855.6,559L855.6,559L855.6,559L855.6,559z"/>
				<path d="M855.6,558.9L855.6,558.9L855.6,558.9L855.6,558.9z"/>
				<path d="M854.4,558L854.4,558L854.4,558C854.3,558,854.3,558,854.4,558z"/>
				<polygon points="851,560.6 850.9,560.6 850.9,560.6 				"/>
				<path d="M854.3,558L854.3,558C854.3,558,854.2,558,854.3,558L854.3,558z"/>
			</g>
		</g>
	</g>
	<g class="st23">
		<path d="M852,561.4L852,561.4L852,561.4z"/>
		<g id="celular_3_">
			<g>
				<path d="M856.6,559.8C856.7,559.8,856.7,559.8,856.6,559.8L856.6,559.8C856.7,559.8,856.7,559.8,856.6,559.8z M856.6,559.6
					L856.6,559.6L856.6,559.6L856.6,559.6z M856.6,559.8C856.7,559.8,856.7,559.8,856.6,559.8L856.6,559.8
					C856.7,559.8,856.7,559.8,856.6,559.8z M856.6,559.6L856.6,559.6L856.6,559.6L856.6,559.6z M856.6,559.8
					C856.7,559.8,856.7,559.8,856.6,559.8L856.6,559.8C856.7,559.8,856.7,559.8,856.6,559.8z M856.6,559.6L856.6,559.6L856.6,559.6
					L856.6,559.6z"/>
				<path d="M959.8,581.6L874,557.9c-4.5-1.2-11.8-1.6-16.4-0.7l-39.7,6.9c-4.6,0.9-4.8,5.8-0.3,6.9l82.2,24.2
					c4.5,1.2,16.9,3.3,21.5,2.6l46.2-10.6C972.3,586.5,964.2,582.9,959.8,581.6z M825.2,564L825.2,564c0.4,0,0.7,0.1,1.1,0.3
					C825.9,564.1,825.6,564.1,825.2,564z M851.9,561.4L851.9,561.4L851.9,561.4L851.9,561.4L851.9,561.4z M855.2,558.8L855.2,558.8
					L855.2,558.8L855.2,558.8L855.2,558.8z M856.6,559.6L856.6,559.6L856.6,559.6L856.6,559.6z M856.7,559.8
					C856.7,559.8,856.7,559.8,856.7,559.8C856.7,559.8,856.7,559.8,856.7,559.8L856.7,559.8z"/>
				<path d="M826.3,564.2c-0.4,0-0.7-0.1-1.1-0.3l0,0C825.6,564.1,825.9,564.1,826.3,564.2z"/>
				<path d="M830.4,564.5c0.7,0,1.4,0,2.2,0C831.9,564.5,831.2,564.5,830.4,564.5z"/>
				<path d="M828.2,564.4c0.7,0.1,1.4,0.1,2.2,0.1C829.7,564.5,829,564.4,828.2,564.4z"/>
				<path d="M832.9,564.5c0.6,0,1.3,0,1.9-0.1C834.1,564.4,833.5,564.5,832.9,564.5z"/>
				<path d="M852,561.4L852,561.4L852,561.4z"/>
				<path d="M856.7,559.8L856.7,559.8C856.7,559.8,856.7,559.8,856.7,559.8C856.7,559.8,856.7,559.8,856.7,559.8z"/>
				<path d="M856.7,559.8L856.7,559.8L856.7,559.8L856.7,559.8z"/>
				<path d="M856.6,559.6L856.6,559.6L856.6,559.6L856.6,559.6z"/>
				<path d="M855.4,558.8L855.4,558.8L855.4,558.8L855.4,558.8z"/>
				<path d="M852,561.4L852,561.4L852,561.4z"/>
				<path d="M855.2,558.8L855.2,558.8L855.2,558.8L855.2,558.8z"/>
			</g>
		</g>
	</g>
	<g>
		<polygon class="st21" points="851,554.9 851,554.9 850.9,554.9 850.9,554.9 		"/>
		<g id="celular">
			<g>
				<path d="M855.6,553L855.6,553L855.6,553L855.6,553z M855.6,553.1L855.6,553.1L855.6,553.1L855.6,553.1z M855.6,553.3
					L855.6,553.3L855.6,553.3L855.6,553.3z M854.8,552.4C854.8,552.4,854.9,552.4,854.8,552.4C854.9,552.5,854.9,552.4,854.8,552.4
					L854.8,552.4L854.8,552.4z M854.8,552.4C854.8,552.4,854.9,552.4,854.8,552.4C854.9,552.5,854.9,552.4,854.8,552.4L854.8,552.4
					L854.8,552.4z M855.6,553L855.6,553L855.6,553L855.6,553z M855.6,553.1L855.6,553.1L855.6,553.1L855.6,553.1z M855.6,553.3
					L855.6,553.3L855.6,553.3L855.6,553.3z M854.8,552.4C854.8,552.4,854.9,552.4,854.8,552.4C854.9,552.5,854.9,552.4,854.8,552.4
					L854.8,552.4L854.8,552.4z M855.6,553L855.6,553L855.6,553L855.6,553z M855.6,553.1L855.6,553.1L855.6,553.1L855.6,553.1z
					 M855.6,553.3L855.6,553.3L855.6,553.3L855.6,553.3z"/>
				<path d="M855.4,553.7c-0.4,0.3-1.1,0.6-2.2,0.7l-18.6,3.3c-2.9,0.4-7.3,0.4-10.4-0.3l0,0c3.2,0.6,7.5,0.9,10.4,0.3l18.6-3.3
					C854.3,554.3,855.1,554,855.4,553.7z"/>
				<path d="M855.6,553.1C855.6,553.3,855.6,553.3,855.6,553.1L855.6,553.1C855.6,553.3,855.6,553.3,855.6,553.1z"/>
				<path d="M855.6,553.1L855.6,553.1L855.6,553.1L855.6,553.1z"/>
				<path d="M855.6,553L855.6,553L855.6,553L855.6,553z"/>
				<path d="M854.8,552.4C854.8,552.4,854.9,552.4,854.8,552.4C854.9,552.4,854.9,552.4,854.8,552.4
					C854.9,552.5,854.9,552.4,854.8,552.4z"/>
				<path d="M854.3,552.1L854.3,552.1L854.3,552.1L854.3,552.1z"/>
				<path d="M961.8,576.5c-0.4-0.4-1.4-1-3-1.4L873,551.4c-4.5-1.2-11.8-1.6-16.3-0.7l-39.7,6.9c-1.6,0.3-2.7,0.6-3.2,1.1
					c-0.1,0.1-0.3,0.3-0.3,0.4c-0.1,0.1-0.1,0.4,0,0.4c0,0.1,0.1,0.3,0.3,0.4c0.4,0.4,1.4,1,2.9,1.3l4.9,1.3l80.9,22.4
					c4.3,1.2,11.8,1.6,16.3,0.7l35.1-6.2l4.6-0.9c1.7-0.4,2.8-0.7,3.3-1.2C962.1,577.2,962.1,576.8,961.8,576.5z M953.9,578.4
					l-35.5,6.2c-4.6,0.9-12,0.4-16.3-0.7l-80.7-22.4c-4.5-1.2-4.3-2.9,0.3-3.6l2.7-0.4l0,0c1.9,0.4,4.2,0.6,6.5,0.6
					c0.7,0,1.4,0,2-0.1l0,0c0.4,0,0.6,0,1-0.1c0.4,0,0.6-0.1,1-0.1l13.1-2.3l3.2-0.6l0,0l0,0l0,0l0,0l2.2-0.4
					c1.1-0.3,1.9-0.4,2.2-0.7l0.1-0.1l0.1-0.1v-0.4l0,0v-0.1l0,0c0,0,0,0,0-0.1l0,0c-0.1-0.1-0.3-0.4-0.4-0.4h-0.1l0,0
					c0,0,0,0-0.1,0l0,0l0,0c0,0-0.1,0-0.1-0.1c-0.1,0-0.1-0.1-0.3-0.1h-0.1l2.8-0.4c4.6-0.9,12-0.4,16.3,0.7l80.7,22.4
					C958.5,576,958.5,577.5,953.9,578.4z"/>
				<path class="st24" d="M873.4,552.4l80.7,22.2c4.5,1.2,4.3,2.9-0.3,3.6l-35.5,6.2c-4.6,0.9-12,0.4-16.3-0.7l-80.7-22.2
					c-4.5-1.2-4.3-2.9,0.3-3.6l2.7-0.4l0,0l0,0c3.2,0.6,7.5,0.9,10.4,0.3l18.6-3.3c1.1-0.3,1.9-0.4,2.2-0.7l0.1-0.1l0.1-0.1v-0.3
					l0,0v-0.1l0,0v-0.1l0,0l0,0c-0.1-0.1-0.3-0.4-0.4-0.4c0,0,0,0-0.1,0l0,0c0,0-0.1,0-0.1-0.1c0,0,0,0-0.1,0c0,0-0.1,0-0.1-0.1
					c-0.1,0-0.1-0.1-0.3-0.1h-0.1l0,0l0,0l2.8-0.4C861.6,550.8,868.9,551.2,873.4,552.4z"/>
				<path d="M854.8,552.4L854.8,552.4c0.1,0.1,0.1,0.1,0.3,0.1C854.9,552.5,854.9,552.4,854.8,552.4L854.8,552.4z"/>
			</g>
		</g>
	</g>
	<g class="st25">
		<path class="st26" d="M709.1,1478.5H484.7c-71.9,0-130.1-58.3-130.1-130.1V710.8c0-71.9,58.3-130.1,130.1-130.1h224.4
			c71.9,0,130.1,58.3,130.1,130.1v637.6C839.1,1420.2,781,1478.5,709.1,1478.5z"/>
		<g id="celular_1_" class="st27">
			<g>
				<path d="M767.9,579.7H427.3c-39.3,0-71.2,31.9-71.2,71.2v756.6c0,39.3,31.9,71.2,71.2,71.2h340.7c39.3,0,71.2-31.9,71.2-71.2
					V650.8C839.1,611.5,807.2,579.7,767.9,579.7z M821,1385.4c0,39.3-31.9,71.2-71.2,71.2H445.3c-39.3,0-71.2-31.9-71.2-71.2V672.5
					c0-39.3,31.9-71.2,71.2-71.2h22.8c3.9,23.6,24.4,41.6,49.1,41.6h159.3c24.7,0,45.2-18,49.1-41.6h24c39.3,0,71.2,31.9,71.2,71.2
					V1385.4z"/>
				<path class="st21" d="M725.9,601.5c-4,23.6-24.4,41.6-49.1,41.6H517.4c-24.7,0-45.2-18-49.1-41.6H725.9z"/>
				<path d="M726.6,580.1v13c0,2.8-0.3,5.6-0.7,8.2c-4,23.6-24.4,41.6-49.1,41.6H517.4c-24.7,0-45.2-18-49.1-41.6
					c-0.4-2.7-0.7-5.5-0.7-8.2v-13H726.6z"/>
			</g>
		</g>
	</g>
	<line class="st20" x1="813.6" y1="565.5" x2="813.4" y2="570.4"/>
	<path class="st28" d="M961.8,577.5v5.8c-0.4,0.4-1.6,0.9-3.3,1.2l-39.7,6.9c-4.6,0.9-12,0.4-16.3-0.7l-85.8-23.7
		c-1.7-0.4-2.8-1-3.2-1.6v-0.9l0.1-4.8c0.4,0.4,1.4,1,2.9,1.3l4.9,1.3l80.9,22.4c4.3,1.2,11.8,1.6,16.3,0.7l35.1-6.2l4.6-0.9
		C960.2,578.4,961.3,578.1,961.8,577.5z"/>
	<polyline class="st20" points="961.8,577.5 961.8,576.5 961.8,574.6 	"/>
</g>
</svg>
