<?xml version="1.0" encoding="utf-8"?>
<!-- Generator: Adobe Illustrator 22.0.1, SVG Export Plug-In . SVG Version: 6.00 Build 0)  -->
<svg version="1.1" id="Camada_1" xmlns="http://www.w3.org/2000/svg" xmlns:xlink="http://www.w3.org/1999/xlink" x="0px" y="0px"
	 viewBox="0 0 1366 768" style="enable-background:new 0 0 1366 768;" xml:space="preserve">
<style type="text/css">
	.st0{display:none;fill:#269DC6;}
	.st1{display:none;fill:#29ABE2;}
	.st2{fill:#8D1CFF;}
	.st3{fill:#FF9370;}
	.st4{fill:#FF561F;}
	.st5{fill:#470E80;}
	.st6{fill:#6A15BF;}
	.st7{fill:#8C1AFF;}
	.st8{fill:#FFB096;}
	.st9{fill:#4D4D4D;}
	.st10{fill:#FF926E;}
	.st11{fill:none;}
	.st12{opacity:0.2;}
	.st13{fill:#FFFFFF;}
	.st14{fill:#6EEDCF;}
	.st15{display:none;}
	.st16{display:inline;fill:#FFFFFF;}
	.st17{display:inline;}
	.st18{fill:#D4DF00;}
	.st19{opacity:0.2;enable-background:new    ;}
	.st20{fill:#E0FBF5;}
	.st21{opacity:0.1;enable-background:new    ;}
	.st22{fill:#53EF20;}
	.st23{fill:#22B4F4;}
	.st24{fill:#F9D212;}
	.st25{fill:#EA15EA;}
	.st26{opacity:0.5;}
	.st27{fill:none;stroke:#000000;stroke-width:0.75;stroke-miterlimit:10;}
	.st28{fill:#FF1CFF;}
	.st29{fill:#FFE217;}
	.st30{opacity:0.3;enable-background:new    ;}
	.st31{opacity:0.6;fill:#FFFFFF;enable-background:new    ;}
	.st32{fill:#06FF67;}
	.st33{fill:#F63B89;}
	.st34{fill:#BA7213;}
	.st35{fill:#FF6500;}
	.st36{fill:#E8B86B;}
</style>
<g>
	<g id="ENFEITES_1_">
		<polygon class="st0" points="1419.9,611.3 707.8,472.9 707.8,-9.1 1419.9,129.4 		"/>
		<polygon class="st1" points="-4.2,613.4 707.8,474.9 707.8,-6.9 -4.2,131.5 		"/>
	</g>
	<path class="st2" d="M636.4,362.4c0.1-11.5-3-26.8-0.6-52.4c0.6-6.5,1.7-14.9,8-21.6c5.2-5.4,13.3-9,20.8-8.6
		c3.7,0.1,6,1.2,6.8,1.4c3.9,1.9,6.9,5,8.4,8.8c3.3,8.2,1.7,16.4,1.4,18.4c-6.8,30.1,20.7,92.1-1.2,108.6c-3.1,2.2-4.3,1.6-13.2,1.7
		c0,0-0.3,0-12.3,0.8c-17.3,1-45.2,19.1-50.1,14.5C598.7,428.3,636.2,402.2,636.4,362.4z"/>
	<g id="PESCOÇO_1_">
		<path class="st3" d="M846.1,314.8c-9.1,8-15.8,4.4-61.6,6.5c-39.1,1.9-49.9,5.2-54.5-1.9c-6.1-9.3,11.1-19.7,15.6-52.1
			c2-14,1.9-34.9,0.8-48.2c-0.3-4.6-1.4-17.6,4.3-32.1c0.5-1.1,0.9-2.4,1.4-3.5c10.9-19.8,48-29,62.2-16.2
			c11.5,10.2,0.9,27.7,8.5,48.7c1.1,3.1,2.6,6.1,4.7,9.4c1,1.4,2,2.8,2.8,4.1c0.6,0.8,1.2,1.4,1.9,2.2c-1.4,4.4-3.2,8.4-4.7,11.5
			v0.1c-5.2,11.3-11.5,19.8-16.4,25.7c5,8.2,10.1,16.7,15.1,24.9c14.3-13.3,23.3-29.3,25.7-44.7c0.6,1,1.4,2.1,2,3.3
			C863.9,271.4,862,301,846.1,314.8z"/>
	</g>
	<g>
		<path class="st4" d="M866.6,557.8c-1.4,0.9-2.7,1.7-4.2,2.4c-40.9,20.7-110.2-16.7-133-46c0.5-4.7,0.5-10.9,1.1-19.7
			c1.6-21.3,7.1-45.7,18-94.6c6-26.9,6.6-25.3,8.4-37.1c0-0.1,0-0.3,0-0.5c0-0.1,0-0.3,0.1-0.5l0,0c0-0.1,0-0.3,0.1-0.5
			c0-0.3,0.1-0.3,0.1-0.5c0-0.3,0-0.3,0.1-0.6c0-0.1,0-0.1,0-0.3c0.6-4.6,1.6-12.9,2-20.1c0.3-21.9-9-28.1-3.6-38.9
			c0.6-1.1,1.1-2.1,1.6-2.8c9.9,2.4,19.5,5.2,26.1,5.4c6.1,0.3,12.3,0.3,18.7,0.3c3.5,29-5.2,19,6.1,85.3c0.9,5,1.4,8.4,2.1,11.1
			c1.6,8.2,2.5,9.5,6.1,29.7c6.3,33.5,8.5,51.4,15.9,81.2c0.3,1.2,0.6,2.5,0.9,3.6c3.2,12.9,5.4,21.6,7.9,27c1,2.4,2.1,4.1,3.2,5.3
			C850.2,553.2,856.9,556,866.6,557.8z"/>
		<path class="st2" d="M1013,467.2c0-0.3-0.1-0.3-0.1-0.6c-0.1-1.1-0.3-2.1-0.6-3.1v-0.1l-6.8-37.1c0-1.2-0.1-2.5-0.3-3.7
			c-1.4-15.3-4.4-30.6-9.3-45.1c-3.3-10.1-7.7-19.5-12.1-29.2c-4.1-9-5.8-19.1-8.6-28.5c-9.9-32.1-9.9-35.5-15.6-41.6
			c-6.5-6.8-13.7-9.9-27.6-16c-8.8-3.8-10.2-3.6-32.8-10.7c-12.7-4.1-19-6.4-32.3-10.4c-7.9-2.4-13.5-3.9-17.8-4.9
			c1.4,3.8,2.6,8,2.5,12.9c-0.1,8.8-3.6,14.8-8.4,23.2c-4.3,7.7-10.1,14.9-17.3,21.6c-5-8.2-10.1-16.7-15.1-24.9
			c-2.2,0.9-4.3,2.2-6.3,5c-6,8.4-4.2,18.9-3.6,22.8c0.3,2.6,0.8,4.8,1,6.9c17.5,0.1,35.3,1,50.7,9.6
			c74.3,41.7,72.9,207.1,13.8,244.4c12.7,2.2,30.7,2.7,59.3,7.1c11.5,1.9,18.3,7.9,28.1,5.4c3.5-0.9,6.5-2.4,9.3-4.2c0,0,0,0,0.1,0
			c8.2-5.7,13.7-14.9,17.9-22.1c15.3-26,8.6-42.7,23.2-52.8c0.3-0.3,0.9-0.6,1.4-1c1-0.8,2.2-1.6,3.5-2.7c2.1-1.9,4.1-4.3,5-7.7
			c0-0.1,0.1-0.3,0.1-0.5C1015.2,476.2,1014.1,473.2,1013,467.2z"/>
		<path class="st2" d="M867.8,306.3c-5.5-1.7-20.2-4.8-37.6-4.9c-11.5-0.1-21.1,1.1-28.1,2.4c3.5,29-5.2,19,6.1,85.3
			c0.9,5,1.4,8.4,2.1,11.1c1.6,8.2,2.5,9.5,6.1,29.7c6.3,33.5,8.5,51.4,15.9,81.2c0.3,1.2,0.6,2.5,0.9,3.6c3.2,12.9,5.4,21.6,7.9,27
			c1,2.4,2.1,4.1,3.2,5.3c6,6.3,12.4,9.1,22.2,10.9c10.1-1.7,24.6-5.8,36.2-17c24.3-23,20.9-59.5,16-105.8
			C915.4,401.9,906.6,318.6,867.8,306.3z"/>
		<path class="st5" d="M832.2,231.7c0.9-2.6,1.6-5.2,2-7.9c0.1-1.1,0.3-2.2,0.3-3.3c0-0.6-0.5-2.6,0.1-3h0.1
			c-5-2.8-11.3-3.7-12.1-2.2c-0.1,0.3,0,0.8,0.3,1.7c0.8,2.2,1.1,3.3,1.9,4.8c0.3,0.3,0.8,1.2,1.7,3c0.3,0.6,0.5,1,0.6,1.1
			c1.4,2.4,2.8,4.6,4.8,6.1V232C832.1,232,832.1,231.8,832.2,231.7z"/>
		<path class="st6" d="M837,236.2c2-1.4,4.3-1.9,12.3,0h0.1c-1.4-3.6-3.2-6.8-5-9.9c0,0-2.1-3.7-7.4-7.7c-0.5-0.3-1.4-1.2-2.1-0.9
			c0.1,0.1,0.3,0.3,0.5,0.3c1,0.5,1.6,1.1,2.1,1.4c1.7,2.2,5.5,6,6.3,9.4c0.9,3.6-2,5.4-5.2,5.5c-2.7,0.1-4.8-0.8-6.4-2.1
			c-0.5,1.6-2,5.8-4.7,11.1v0.1c-5.2,11.2-11.3,19.7-16.4,25.7c4.2-1.7,9-1.9,14-6.9C834.7,252.5,828.9,241.3,837,236.2z"/>
		<path class="st6" d="M843.4,272.3c4.8-8.4,8.2-14.3,8.4-23.2c0.1-4.9-1-9.1-2.5-12.9h-0.1c-8-1.9-10.4-1.4-12.3,0
			c-8,5.2-2.2,16.2-11.8,25.8c-5,5-9.9,5.2-14,6.9c5,8.2,10.1,16.7,15.1,24.9C833.4,287.2,839.2,279.9,843.4,272.3z"/>
		<path class="st6" d="M843.7,228.7c-0.8-3.5-4.6-7.1-6.3-9.4c-0.5-0.3-1.1-1-2.1-1.4c-0.1-0.1-0.3-0.3-0.5-0.3h-0.1
			c-0.6,0.3-0.1,2.4-0.1,3c0,1.1-0.3,2.2-0.3,3.3c-0.3,2.7-1.1,5.3-2,7.9c-0.1,0.1-0.1,0.3-0.1,0.3v0.1c1.7,1.4,3.7,2.2,6.4,2.1
			C841.7,234.1,844.5,232.2,843.7,228.7z"/>
		<path class="st6" d="M662.8,274.8c-1,1-1.9,2-2.5,3.1v0.1c0-0.1,0.1-0.1,0.1-0.3C661.1,276.7,662,275.8,662.8,274.8z"/>
		<path class="st6" d="M657.9,284.9C657.9,284.9,657.9,284.8,657.9,284.9c-0.2,0.4-0.2,0.9-0.3,1.4h0.1
			C657.8,285.8,657.8,285.4,657.9,284.9z"/>
		<path class="st2" d="M659.1,287.1c0.1-0.3,0.1-0.6,0.3-1c0.6-3.5,0.9-6,1.1-8c-0.1,0.3-0.3,0.5-0.3,0.6c-0.8,1.4-1.4,2.8-1.4,2.8
			c-0.1,0.3-0.1,0.5-0.3,0.8c-0.3,0.8-0.3,1.4-0.5,2.4c0,0.1,0,0.1,0,0.3C658.3,285.6,658.7,286.3,659.1,287.1L659.1,287.1z"/>
		<path class="st2" d="M658.9,287.1c-0.3-0.8-0.6-1.4-1.1-2.2c-0.1,0.5-0.1,0.9-0.3,1.4C658.2,286.6,658.6,286.8,658.9,287.1z"/>
		<path class="st6" d="M740.6,242.7c0,0,0.3,0.1,0.6,0.1c3.8,1.1,6.5,5.5,9.4,12.3c-1-3.7-1.7-7.7-2.4-12c0-0.1,0-0.1,0-0.1
			c-0.3-2.7,2.7-4.7,5.4-7.9c0.6-0.8,5-6,3.6-8.4c-0.6-1.1-2.4-1.1-3.9-1.2c-3.8-0.1-6.8,1.2-7.7,1.6c-7.7,3.6-14.8,7.1-18.1,14.5
			c-0.6,1.4-1,2.8-1.2,4.3c0.3-0.1,0.8-0.3,1.1-0.3C736.5,242.6,739.2,242.4,740.6,242.7z"/>
		<path class="st6" d="M756.5,272.5c-3.5,2.7-7.1,6-11,9.8c-2.7,2.7-5,5.4-7.1,8c-5.7-10.9-8.2-20.3-9.6-26.8
			c-1.7-8.2-3-13.2-2.5-17.6c0.3-0.1,0.8-0.3,1.1-0.3c9.1-3,11.8-3.1,13.2-2.8c0,0,0.3,0.1,0.6,0.1c3.8,1.2,6.5,5.5,9.4,12.3
			C752.3,262.1,754.5,268,756.5,272.5z"/>
		<path class="st2" d="M659.1,287.1L659.1,287.1C659.1,287.1,659.1,287.2,659.1,287.1C659.1,287.2,659.1,287.1,659.1,287.1z"/>
		<path class="st2" d="M755.7,300.9c-5.4,10.9,3.8,17,3.6,38.9c-0.3,7.1-1.4,15.6-2,20.1c0,0.1,0,0.1,0,0.3c0,0.3,0,0.3-0.1,0.6
			c0,0.1,0,0.3-0.1,0.5c0,0.1,0,0.3-0.1,0.5l0,0c0,0.1,0,0.3-0.1,0.5c0,0.1,0,0.3,0,0.5c-1.7,11.8-2.4,10.2-8.4,37.1
			c-10.9,49-16.4,73.4-18,94.6c-0.6,8.8-0.6,15-1.1,19.7c-0.5,5.2-1.6,8.5-4.9,11.5c-10.4,9.5-33.4,7.1-44.7-4.9
			c-7.3-7.7-8-17.5-8.8-26.3c-1.4-16.5-2.6-33.2-3.8-49.7c-0.9-11.5-1.9-23-3-34.3c-1.9-19.4,0.6-39.3,1.2-59.2l0,0
			c0.1-5.7,0.3-11.5,0-17c-0.5-11.5-1.4-22.8-2.8-34.3c-1-8.2-5.8-19.7,1.4-26c6.1-5.4,16.2-7.9,23-10.6
			c17.3-7.1,18.6-10.5,39.2-17.3c-0.5,4.4,0.8,9.5,2.5,17.6c1.4,6.4,3.9,15.9,9.6,26.8c2.1-2.6,4.4-5.3,7.1-8
			c3.8-3.8,7.5-7.1,11-9.8c-2-4.6-4.2-10.5-6-17.3c2,4.7,3.8,10.5,6,17.2c3.5,10.5,4.6,13.9,3.6,19c-0.3,1.4-0.6,2.5-1,3.5
			c-0.8,1.9-1.6,3.1-1.7,3.3C756.8,298.8,756.3,299.8,755.7,300.9z"/>
		<path class="st2" d="M757.3,359.9c0.6-4.6,1.6-12.9,2-20.1C759.2,346.6,758.1,354.6,757.3,359.9z"/>
		<path class="st2" d="M759.3,339.8c0.3-21.9-9-28.1-3.6-38.9c0.6-1.1,1.1-2.1,1.6-2.8C754.8,302,759.7,323.7,759.3,339.8z"/>
	</g>
	<g id="CABEÇA_1_">
		<path class="st7" d="M816,68.7"/>
		<g>
			<path class="st8" d="M687.1,151.9c-2.1,12.2,3.9,20.5,11,35.9c12.1,26.3,6.1,26.6,14.5,41.1c3.8,6.5,24.6,39.7,53.2,37.3
				c14.7-1.1,25.4-11.6,34.8-21.8c7.1-7.7,20.3-20.9,15.4-32.4c-1.9-4.3-5.8-5.7-5.8-10.5c0-5.8,6.6-10.5,9-15.4
				c5-11,1.2-51.9-19.2-37.5c-6,4.3-7.4,13.5-4.2,19.8c-3.2-3.6-2.5-9.8-3.3-14.5c-9.3-45.6-67.7-55.3-96.5-20.2
				C693.1,137.5,688.5,143.3,687.1,151.9z"/>
			<path class="st9" d="M687.1,169c4.9,10.2,13.7,15.8,19.2,14.2c9.3-2.7,10.9-25.5,5.7-28.1c-0.9-0.5-2-0.3-2.7,0.3
				c-3.1,3.2,6.4,23.2,15.1,23c9.9-0.3,18.3-26.1,13.2-30.4c-1.2-1-3.5-1-4.3,0.1c-3.3,3.7,6.5,23.3,16,23c10.7-0.3,19-26,14.2-29.8
				c-1.7-1.4-6-0.3-7.7,2.1c-3.9,6.1,6.8,24.3,15.4,23.6c9.9-0.9,16.4-26.3,12.1-29.1c-1.2-0.9-3.9,0-5.3,1.6
				c-3.6,4.8,3.7,12.3,6.4,15.9c5.4,7.4,7.7,18.3,7.7,27.2c0,2-0.1,4.6,1.1,6.1c1.4,2.1,3.8,0.6,5.2-0.8c3-3.2,1-6.8,0-10.5
				c-1.4-4.7-2-10.9-1.7-15.8c0.1-4.4,1.4-9.4,5.3-12c6.4-4.3,14-0.5,16.7,6c2.6,6,2.2,13.1,0.9,19.2c-2.2,9.1-6.6,10.4-6,16.7
				c0.6,5,4.1,9.4,7.7,12.6c2.4,2,4.9,3.8,7.5,5.3c0.9,0.5,3,1.9,4.1,1.4c1.4-0.5-0.1-1.6-0.8-2.2c-1.9-2.2-3.9-4.3-5.2-7.1
				c-5.7-11.6,3.1-20.3,4.4-39.5c1-14.9-3-30.9-6-31c-2.4,0-3.7,5-3.5,6.8c0.5,3.8,3.8,4.6,6.3,6.5c3.3,2.7,5.4,6.5,7.1,10.2
				c1.4-8.4,0.3-17.3-1.6-25.7c-1.2-5.3-3.6-21.6-11.3-21.8c-3.5-0.1-5.8,4.1-5.2,7.4c1.2,6.4,9.6,9.8,13.8,14.3
				c7.5,8,8.5,15.3,9.3,14.9c2.2-0.8-2.2-47.7-23.2-53.2c-7.1-1.9-15.8,1.1-20.5,6.3c-7.7,8.6-5.2,24.4-4.1,24.4
				c1.4,0.1,9.6-30.7-0.6-38c-8.2-5.7-27.7,3-28.1,9.9c-0.1,4.7,8.2,10.2,11.7,8.5c2.5-1.4,2-6.5,1.9-7.5c-1-11.6-15.9-26.5-28-21.9
				c-8.6,3.2-12.9,15.3-11,24.3c1.7,8.2,8.8,15.3,11,14.3c2.2-1,1.2-11.3-3.5-18.4C737.5,80,715.6,71.9,705,81.2
				c-12.1,10.4-4.9,38.2,5.5,41.6c5,1.6,12.3-1.9,12.9-5.8c0.9-6-14-16.2-28.7-15.4c-18.6,1.2-28.3,19.6-29,20.6
				c-10.4,20,2.4,41.1,3.1,42.5c5.2,8.6,9.4,8,15.9,19.5c6.6,11.7,7.3,21.8,9.5,21.6c1.4-0.3,3.3-6.6,3.1-14
				c-0.9-18.3-14.2-33.1-14.8-32.4C682.6,160,683.3,161.9,687.1,169z"/>
		</g>
	</g>
	<g id="FUMAÇA_1_">
		<path class="st2" d="M589.8,239.5"/>
	</g>
	<g id="PLANTAS_1_">
		<path class="st6" d="M1001.6,459.8c2.5-10.6,3-21.9,3.2-32c-2.6,18.4-1.7,37.3-3.8,55.6c-0.6,5.7-1.7,8.4-6,20.8
			c-10.7,31.5-9.8,32.6-13.9,39.7s-9.6,16.4-17.9,22.1c0,0,0,0-0.1,0c-2.8,1.7-5.7,3-8.2,3.5c-1.6,0.3-3.5,0.6-3.5,0.6
			c-4.2,0.3-8.5-1.9-24.9-5.3c-51.5-10.9-68.3-3.7-81.4-18c-1.6-1.7-3-3.5-4.1-5.3c-6.3-9.8-7.7-20.8-7.9-27c-0.1-1.6,0-2.8,0-3.6
			c0.6-38.1,40-45.6,55.9-89.3c15.9-43.8-5.3-86.4,0.1-87.7c4.1-1,14,24.7,19.1,43.8c3.2,12.1,4.8,18.1,4.3,23.4
			c-2.4,23.9-26.4,41.1-22.1,51.5c1.9,4.4,5,8.8,5,8.8c1.1,1.6,2.5,3.2,4.6,5.3c2.1,2.1,4.1,3.6,6,4.9c7.9,5.3,28.3,11.7,35.9,14.2
			c17.8,5.7,22.5,8.4,31.2,6.6c0.3-0.1,6-1.4,11.1-4.9C994.1,481.1,999,470.9,1001.6,459.8z"/>
		<g id="MESA_1_">
			<g>
				<path class="st10" d="M1083.9,566.1v43.2c-83.6,24.7-167,49.4-250.6,74.2c-200.3-34.3-400.8-68.4-601.1-102.7v-53.6l291.8-33.2
					l176.7,22.8l0,0l183.9,23.6L1083.9,566.1z"/>
			</g>
		</g>
	</g>
	<g id="Camada_25_1_">
		<g>
			<path d="M467.4,517.9L467.4,517.9L467.4,517.9z"/>
			<g id="celular_5_">
				<g>
					<path d="M462.8,516.2L462.8,516.2C462.8,516.4,462.8,516.2,462.8,516.2S462.8,516.4,462.8,516.2z M462.8,516.1L462.8,516.1
						L462.8,516.1L462.8,516.1z M462.8,516.2L462.8,516.2C462.8,516.4,462.8,516.2,462.8,516.2S462.8,516.4,462.8,516.2z
						 M462.8,516.1L462.8,516.1L462.8,516.1L462.8,516.1z M462.8,516.2L462.8,516.2C462.8,516.4,462.8,516.2,462.8,516.2
						S462.8,516.4,462.8,516.2z M462.8,516.1L462.8,516.1L462.8,516.1L462.8,516.1z"/>
					<path d="M366.2,527.2l-2.5,0.5l34.3,7.7c4.4,1.1,11.8,1.2,16.2,0.5l81.9-14l-2-0.5l-32.3-7.1c-4.6-1.1-11.7-1.2-16.2-0.5
						L366.2,527.2z"/>
					<path d="M462.8,516.2L462.8,516.2L462.8,516.2C462.8,516.4,462.8,516.2,462.8,516.2z"/>
					<path d="M462.8,516.1L462.8,516.1L462.8,516.1L462.8,516.1z"/>
					<path d="M464.3,515.4L464.3,515.4L464.3,515.4L464.3,515.4L464.3,515.4z"/>
					<path d="M467.4,517.9L467.4,517.9L467.4,517.9z"/>
					<path d="M492.6,522c0.3-0.1,0.8-0.1,1.1-0.1l0,0C493.4,522,493.1,522,492.6,522z"/>
					<path class="st11" d="M504.1,524.6v-0.8C504.4,524.1,504.4,524.5,504.1,524.6z"/>
					<path d="M493.7,521.9L493.7,521.9c-0.3,0.1-0.8,0.1-1.1,0.1C493.1,522,493.4,522,493.7,521.9z"/>
					<path d="M486.3,521.9c0.8,0,1.4,0.1,2.2,0.1C487.9,522,487,522,486.3,521.9z"/>
					<path d="M488.5,522.2c0.8,0,1.4,0.1,2.2,0.1C489.9,522.2,489.2,522.2,488.5,522.2z"/>
					<path d="M484.3,521.7c0.6,0.1,1.4,0.1,2,0.3C485.5,521.9,484.9,521.7,484.3,521.7z"/>
					<path d="M467.4,517.9L467.4,517.9L467.4,517.9z"/>
					<path d="M462.8,516.4C462.8,516.2,462.8,516.4,462.8,516.4L462.8,516.4C462.8,516.4,462.8,516.2,462.8,516.4z"/>
					<path d="M462.8,516.2L462.8,516.2L462.8,516.2L462.8,516.2z"/>
					<path d="M462.8,516.1L462.8,516.1L462.8,516.1L462.8,516.1z"/>
					<path d="M464.2,515.4L464.2,515.4L464.2,515.4C464.3,515.4,464.3,515.4,464.2,515.4z"/>
					<path d="M467.4,517.9L467.4,517.9L467.4,517.9z"/>
					<path d="M464.3,515.4L464.3,515.4L464.3,515.4L464.3,515.4z"/>
				</g>
			</g>
		</g>
		<g class="st12">
			<path d="M466.4,518.6L466.4,518.6L466.4,518.6z"/>
			<g id="celular_4_">
				<g>
					<path d="M461.9,516.8L461.9,516.8C461.7,516.8,461.7,516.8,461.9,516.8C461.7,516.8,461.7,516.8,461.9,516.8z M461.9,516.6
						L461.9,516.6L461.9,516.6L461.9,516.6z M461.9,516.8L461.9,516.8C461.7,516.8,461.7,516.8,461.9,516.8
						C461.7,516.8,461.7,516.8,461.9,516.8z M461.9,516.6L461.9,516.6L461.9,516.6L461.9,516.6z M461.9,516.8L461.9,516.8
						C461.7,516.8,461.7,516.8,461.9,516.8C461.7,516.8,461.7,516.8,461.9,516.8z M461.9,516.6L461.9,516.6L461.9,516.6L461.9,516.6
						z"/>
					<path d="M349.6,533.1l45.2,12.2c4.6,0.9,17,0,21.6-0.9l83.3-15.6c4.6-0.8,4.7-4.9,0.3-6l-38.9-8.5c-4.6-1.1-11.7-1.2-16.2-0.5
						l-87.1,15C353.4,529.8,345.1,532.4,349.6,533.1z M491.7,522.7c0.3-0.1,0.8-0.1,1.1-0.1l0,0C492.4,522.5,492,522.5,491.7,522.7z
						 M466.4,518.6L466.4,518.6L466.4,518.6L466.4,518.6L466.4,518.6z M463.2,516.1L463.2,516.1L463.2,516.1L463.2,516.1
						L463.2,516.1z M461.9,516.6L461.9,516.6L461.9,516.6L461.9,516.6z M461.7,516.8L461.7,516.8L461.7,516.8L461.7,516.8z"/>
					<path d="M492.8,522.4L492.8,522.4c-0.3,0.1-0.8,0.1-1.1,0.1C492,522.5,492.4,522.5,492.8,522.4z"/>
					<path d="M485.2,522.5c0.8,0,1.4,0.1,2.2,0.1C486.8,522.7,486,522.5,485.2,522.5z"/>
					<path d="M487.5,522.7c0.8,0,1.4,0.1,2.2,0.1C489,522.7,488.2,522.7,487.5,522.7z"/>
					<path d="M483,522.2c0.6,0.1,1.4,0.1,2,0.3C484.6,522.4,483.9,522.2,483,522.2z"/>
					<path d="M466.3,518.6L466.3,518.6L466.3,518.6z"/>
					<path d="M461.7,516.8L461.7,516.8L461.7,516.8L461.7,516.8z"/>
					<path d="M461.7,516.8L461.7,516.8L461.7,516.8L461.7,516.8z"/>
					<path d="M461.9,516.6L461.9,516.6L461.9,516.6L461.9,516.6z"/>
					<path d="M463.2,516.1L463.2,516.1L463.2,516.1L463.2,516.1z"/>
					<path d="M466.4,518.6L466.4,518.6L466.4,518.6z"/>
					<path d="M463.2,516.1L463.2,516.1L463.2,516.1L463.2,516.1z"/>
				</g>
			</g>
		</g>
		<g>
			<path class="st13" d="M467.7,513L467.7,513L467.7,513z"/>
			<g id="celular_3_">
				<g>
					<path d="M463.2,511L463.2,511L463.2,511L463.2,511z M463.2,511.2L463.2,511.2L463.2,511.2L463.2,511.2z M463.2,511.3
						L463.2,511.3L463.2,511.3L463.2,511.3z M464.1,510.5L464.1,510.5C464.1,510.5,463.9,510.7,464.1,510.5L464.1,510.5L464.1,510.5
						z M464.1,510.5L464.1,510.5C464.1,510.5,463.9,510.7,464.1,510.5L464.1,510.5L464.1,510.5z M463.2,511L463.2,511L463.2,511
						L463.2,511z M463.2,511.2L463.2,511.2L463.2,511.2L463.2,511.2z M463.2,511.3L463.2,511.3L463.2,511.3L463.2,511.3z
						 M464.1,510.5L464.1,510.5C464.1,510.5,463.9,510.7,464.1,510.5L464.1,510.5L464.1,510.5z M463.2,511L463.2,511L463.2,511
						L463.2,511z M463.2,511.2L463.2,511.2L463.2,511.2L463.2,511.2z M463.2,511.3L463.2,511.3L463.2,511.3L463.2,511.3z"/>
					<path d="M465.5,512.4l18.3,4.1c2.8,0.8,7.1,0.8,10.4,0.5l0,0c-3.2,0.3-7.5,0.1-10.4-0.5L465.5,512.4c-1.1-0.1-1.9-0.5-2.1-0.8
						C463.7,511.9,464.6,512.1,465.5,512.4z"/>
					<path d="M463.2,511.2L463.2,511.2C463.2,511.3,463.2,511.3,463.2,511.2C463.2,511.3,463.2,511.3,463.2,511.2z"/>
					<path d="M463.2,511.2L463.2,511.2L463.2,511.2L463.2,511.2z"/>
					<path d="M463.2,511L463.2,511L463.2,511L463.2,511z"/>
					<path d="M463.9,510.7C464.1,510.5,464.1,510.5,463.9,510.7C464.1,510.5,464.1,510.5,463.9,510.7
						C464.1,510.5,463.9,510.7,463.9,510.7z"/>
					<path d="M464.7,510.4L464.7,510.4L464.7,510.4L464.7,510.4z"/>
					<path d="M356.1,525.1c0.3,0.5,1.4,0.9,3.2,1.2l4.6,1.1l34.3,7.7c4.4,1.1,11.8,1.2,16.2,0.5l81.9-14l4.9-0.9
						c1.4-0.3,2.5-0.6,3-1c0.1-0.1,0.3-0.3,0.3-0.3c0.1-0.1,0.1-0.3,0-0.3c0-0.1-0.1-0.3-0.3-0.3c-0.5-0.3-1.4-0.8-3.1-1.1
						l-38.9-8.5c-4.4-1.1-11.7-1.2-16.2-0.5l-86.8,14.8c-1.6,0.3-2.7,0.6-3.1,1C355.8,524.7,355.8,525,356.1,525.1z M363.6,523.8
						l81.7-14c4.4-0.8,11.7-0.6,16.2,0.5l2.8,0.6h-0.1c-0.1,0-0.1,0.1-0.3,0c0,0.1-0.1,0.1-0.1,0.1l0,0l0,0c-0.1,0-0.1,0-0.1,0l0,0
						h-0.1c-0.1,0.1-0.3,0.3-0.5,0.3l0,0c0,0.1,0,0.1,0,0.1l0,0v0.1l0,0v0.3l0.1,0.1l0.1,0.1c0.3,0.3,1.1,0.5,2.1,0.8l2.2,0.5l0,0
						l0,0l0,0l0,0l3.1,0.8l12.8,2.8c0.3,0,0.6,0.1,1,0.1c0.3,0.1,0.6,0.1,1,0.1l0,0c0.6,0.1,1.4,0.1,2,0.3c2.2,0.1,4.6,0.1,6.4-0.1
						l0,0l2.6,0.6c4.6,0.9,4.6,2.4,0,3.2l-81.7,14c-4.4,0.8-11.7,0.6-16.2-0.5l-34.9-7.7C359.3,525.5,359.4,524.2,363.6,523.8z"/>
					<path class="st14" d="M461.6,510.1l2.8,0.6l0,0l0,0h-0.1c-0.1,0-0.1,0.1-0.3,0c0,0.1-0.1,0.1-0.1,0.1c-0.1,0-0.1,0-0.1,0
						c0,0.1-0.1,0.1-0.1,0.1l0,0c-0.1,0-0.1,0-0.1,0c-0.1,0.1-0.3,0.3-0.5,0.3l0,0l0,0v0.1l0,0v0.1l0,0v0.3l0.1,0.1l0.1,0.1
						c0.3,0.3,1.1,0.5,2.1,0.8l18.3,4.1c2.8,0.8,7.1,0.8,10.4,0.5l0,0l0,0l2.6,0.6c4.6,0.9,4.6,2.4,0,3.2L415,534.9
						c-4.4,0.8-11.7,0.6-16.2-0.5l-34.9-7.7c-4.6-0.9-4.6-2.4,0-3.2l81.7-13.9C450.1,508.6,457.4,508.7,461.6,510.1z"/>
					<path d="M464.1,510.5c-0.1,0-0.1,0.1-0.3,0C463.9,510.7,463.9,510.7,464.1,510.5L464.1,510.5L464.1,510.5z"/>
				</g>
			</g>
		</g>
		<g class="st15">
			<path class="st16" d="M427.7,1198.7l41.6-550.3c4.7-62,66.4-108.6,137.8-103.9L830,559.1c71.5,4.7,125.5,58.8,120.8,120.8
				l-41.6,550.3c-4.7,62-66.4,108.6-137.8,103.9l-223-14.7C477,1314.8,423,1260.7,427.7,1198.7z"/>
			<g id="celular_2_" class="st17">
				<g>
					<path d="M473.2,596.6l-49.3,653.2c-2.6,33.9,27,63.5,66.1,66.1l338.5,22.2c39.1,2.6,72.9-23,75.4-56.8L953.1,628
						c2.6-33.9-27-63.5-66.1-66.1l-338.5-22.2C509.6,537.2,475.8,562.7,473.2,596.6z M489.8,616.4c2.6-33.9,36.4-59.4,75.4-56.8
						l23.8,1.6c2.4,20.7,21.6,37.5,46.1,39.1l158.4,10.4c24.6,1.6,46.1-12.6,51.5-32.6l22.7,1.4c39.1,2.6,68.7,32.1,66.1,66.1
						l-46.5,615.5c-2.6,33.9-36.4,59.4-75.4,56.8l-302.5-19.7c-39.1-2.6-68.7-32.1-66.1-66.1L489.8,616.4z"/>
					<path class="st13" d="M845,578.2c-5.4,20.1-27,34.3-51.5,32.6l-158.3-10.4c-24.6-1.6-43.6-18.4-46.1-39.1L845,578.2z"/>
					<path d="M847,559.7l-0.9,11.2c-0.1,2.4-0.6,4.8-1.2,7.1c-5.4,20.1-27,34.3-51.5,32.6l-158.3-10.2
						c-24.6-1.6-43.6-18.4-46.1-39.1c-0.3-2.4-0.3-4.7-0.1-7.1l0.9-11.2L847,559.7z"/>
				</g>
			</g>
		</g>
		<line class="st11" x1="504" y1="528.8" x2="504.1" y2="524.6"/>
		<path class="st18" d="M359.4,526.3l4.6,1.1l34.3,7.7c4.4,1.1,11.8,1.2,16.2,0.5l81.9-14l4.9-0.9c1.4-0.3,2.5-0.6,3-1l-0.3,4.2v0.8
			c-0.3,0.5-1.6,0.9-3.3,1.1L414,540.6c-4.4,0.8-11.7,0.6-16.2-0.5l-38.9-8.5c-1.6-0.3-2.7-0.9-3.2-1.2l0.3-5
			C356.6,525.8,357.5,526.2,359.4,526.3z"/>
		<polyline class="st11" points="356.4,522.8 356.2,524.4 356.1,525.3 		"/>
	</g>
	<path class="st8" d="M585.8,475.4c3.7,2.8,3.7,3.6,11.1,10.2c6.8,6.1,7.5,6.3,7.7,7.7c1,6.5-12.3,9.6-12.7,18.1
		c-0.3,5.3,5,5.8,8.2,14.5c3.3,9-1.4,11.3,1.2,21.3c2.7,10.6,9,12,8.6,19.7c-0.3,5.5-3.8,10.7-7.7,13.5c-11.2,8-29.6-0.3-38.6-7.1
		c-14.9-10.9-18.9-27-20.1-32.1c-2.7-11.3-1.4-21.1-0.9-25c0.5-2.7,1.2-7.3,3.7-12.7c2.8-6.3,6-9.9,11.2-16
		c3.7-4.4,9.1-11,15.6-19.4C579.1,470.6,583.1,473.4,585.8,475.4z"/>
	<path class="st3" d="M558.4,486.3c-0.3,1.6,4.4,3,12.7,8.4c7.3,4.7,9.1,7.3,15.1,9.3c3.2,1,7.3,2.4,8.2,1.1
		c2-3-12.1-20.3-28.1-20.7C563.4,484.2,558.7,484.7,558.4,486.3z"/>
	<g>
		<g>
			<polygon class="st19" points="687.7,523.6 837,549.3 639.1,638.1 467,594.1 			"/>
			<g>
				<polygon class="st20" points="820.6,532.7 684.1,508.7 632.3,532.5 767.5,558 770,557.8 				"/>
				<polygon class="st21" points="820.6,532.7 684.1,508.7 632.3,532.5 767.5,558 770,557.8 				"/>
				<g>
					<polygon class="st20" points="681.4,567.9 767.5,558 632.3,532.5 629.5,533.8 518.6,540.5 518.3,540.8 681,568.2 					"/>
					<polygon class="st20" points="630.1,618.6 681,568.2 518.3,540.8 466.6,590.7 					"/>
					<polygon class="st21" points="630.1,618.6 681,568.2 518.3,540.8 466.6,590.7 					"/>
				</g>
			</g>
		</g>
		<path class="st22" d="M806.9,531.6c-10.4-3-20.8-6-31.2-9c-3.6,3.7-8.2,8-13.9,12.1c-9.1,6.4-18,9.9-24.6,12.1
			c12.1,2.1,24.1,4.2,36.1,6.3c4.9-2.4,10.1-5.2,15.6-8.6C795.7,540.1,801.7,535.8,806.9,531.6z"/>
		<path class="st23" d="M608.9,567.9c6,2.5,14.5,5.3,25,6c5.8,0.5,11,0.3,15.3-0.3c-2.5,4.4-5.4,9.1-8.6,13.9
			c-5.7,8.2-11.5,15.6-17,21.6c-13.3-2.7-26.8-5.3-40-8L608.9,567.9z"/>
		<path class="st24" d="M557.8,551.8c3.1,2.2,6.8,4.4,10.9,6.5c11.1,5.7,21.4,8,29.5,9.1c-8.6,10.5-17.3,20.9-25.8,31.5l-40-8
			c5.4-8.2,10.9-16.2,16.2-24.6C551.3,561.4,554.5,556.7,557.8,551.8z"/>
		<path class="st25" d="M502.2,544.4c13.3,2.7,26.5,5.3,39.8,8c0.3,3.3,0.3,7.9-1.1,12.8c-3.9,14-15.6,21.1-18.9,23
			c-13.3-2.7-26.8-5.3-40-8c4.1-2.6,15.6-10.7,19.2-25.4C502.2,551,502.4,547.4,502.2,544.4z"/>
		<path class="st24" d="M686.6,539.2c12.4,3,24.9,6,37.3,9c-1.7,2.2-4.4,5.2-8.6,7.1c-5.5,2.5-9.8,1.2-16,1.9
			c-4.3,0.3-10.5,1.7-17.8,6c-12.8-2.4-25.7-4.8-38.4-7.1c2.4-2.4,6.4-5.7,12.1-7.3c6.8-2,10.6-0.1,17.6-1.9
			C675.9,545.8,681,543.9,686.6,539.2z"/>
		<path class="st22" d="M631.2,531.3c3.9,2.5,8.8,5.2,14.8,7.5c9.9,3.8,18.7,5.3,25.4,6c-15.3,2.2-30.7,4.4-46,6.5l-44.5-8
			c1.9-0.3,3.8-0.6,5.7-0.9c12.1-1.9,16.2-2.2,23.6-3.6c7.7-1.4,11-2.2,14.5-3.8C627.5,533.6,629.7,532.3,631.2,531.3z"/>
		<path class="st23" d="M716,515.1c-3.7,0.5-10.7,0.8-18.6-2c-6.4-2.2-10.9-5.5-13.5-7.9c-1.2,1.4-3.1,3.7-5.7,6
			c-5.2,4.4-9.8,6.3-14,8.5c-4.2,2.1-9.9,5.4-16.5,10.6c12.1,2.1,24.1,4.2,36.1,6.3c1.7-1.7,4.6-4.4,8.4-7.1c4.2-3,6.9-4.1,12.3-7.1
			C707.1,520.9,711.2,518.4,716,515.1z"/>
		<path class="st25" d="M761.6,520.2c-4.7,0.1-10.9-0.1-17.9-1.7c-5.7-1.2-10.4-3.1-14-4.8c-3.2,3.5-7.3,7.4-12.4,11.1
			c-8.8,6.3-17.3,9.9-23.6,11.8c12.1,2.1,24.1,4.2,36.1,6.3c4.9-1.9,11.6-4.9,18.4-9.9C754,528.5,758.4,524,761.6,520.2z"/>
	</g>
	<path class="st2" d="M662.8,317.4c-6.4-0.6-16,11.3-30.8,59.2c-7.9,11.6-20.8,29.3-38.7,49.4c-23.2,26.1-47.4,48.3-43.3,57.2
		c3,6.3,11.5,2.2,30.8,13.2c12.9,7.3,16.4,13.3,23.4,12c5-1,6-4.7,17.3-14.5c3-2.6,6.3-5,12.9-9.9c38.7-28.3,58.1-42.5,82.3-52.9
		c7.7-3.2,15.3-6,19.6-13.9c6.3-11.3,3.7-29.3-7.7-39.4c-1.6-1.4-3-2.4-4.4-3c-11.1-4.8-20-3.9-24.7-4.4
		C679.7,368.3,675.3,318.8,662.8,317.4z"/>
	<g class="st26">
		<g>
			<path class="st13" d="M720.2,628.3l118.3,32.8l32.8-47.9L720.2,628.3z M833.1,650.2l-63.6-17.6l81.4-8L833.1,650.2z"/>
		</g>
		<g>
			<line class="st27" x1="738.2" y1="626.6" x2="738.7" y2="630.5"/>
			<line class="st27" x1="742" y1="626.1" x2="742.5" y2="630.1"/>
			<line class="st27" x1="746" y1="625.8" x2="746.3" y2="629.7"/>
			<line class="st27" x1="749.8" y1="625.5" x2="750.2" y2="629.4"/>
			<line class="st27" x1="753.6" y1="625" x2="754" y2="629"/>
			<line class="st27" x1="757.4" y1="624.7" x2="757.8" y2="628.6"/>
			<line class="st27" x1="761.2" y1="624.4" x2="761.7" y2="628.2"/>
			<line class="st27" x1="765" y1="623.9" x2="765.5" y2="627.8"/>
			<line class="st27" x1="768.9" y1="623.6" x2="769.4" y2="627.4"/>
			<line class="st27" x1="772.9" y1="623.2" x2="773.2" y2="627.1"/>
			<line class="st27" x1="776.7" y1="622.7" x2="777" y2="626.6"/>
			<line class="st27" x1="780.5" y1="622.3" x2="780.9" y2="626.3"/>
			<line class="st27" x1="784.3" y1="622" x2="784.7" y2="625.9"/>
			<line class="st27" x1="788.1" y1="621.6" x2="788.6" y2="625.5"/>
			<line class="st27" x1="791.9" y1="621.2" x2="792.4" y2="625.2"/>
			<line class="st27" x1="795.7" y1="620.9" x2="796.2" y2="624.7"/>
			<line class="st27" x1="799.6" y1="620.5" x2="800.1" y2="624.4"/>
			<line class="st27" x1="803.6" y1="620.1" x2="803.9" y2="623.9"/>
			<line class="st27" x1="807.4" y1="619.8" x2="807.7" y2="623.6"/>
			<line class="st27" x1="811.2" y1="619.3" x2="811.5" y2="623.2"/>
			<line class="st27" x1="815" y1="618.9" x2="815.5" y2="622.8"/>
			<line class="st27" x1="818.8" y1="618.6" x2="819.3" y2="622.5"/>
			<line class="st27" x1="822.6" y1="618.1" x2="823.1" y2="622.1"/>
			<line class="st27" x1="826.4" y1="617.8" x2="826.9" y2="621.7"/>
			<line class="st27" x1="830.4" y1="617.4" x2="830.8" y2="621.2"/>
			<line class="st27" x1="834.2" y1="617" x2="834.6" y2="620.9"/>
			<line class="st27" x1="838.1" y1="616.7" x2="838.4" y2="620.5"/>
			<line class="st27" x1="841.9" y1="616.2" x2="842.2" y2="620.1"/>
			<line class="st27" x1="845.7" y1="615.9" x2="846.1" y2="619.8"/>
			<line class="st27" x1="849.5" y1="615.4" x2="850" y2="619.4"/>
			<line class="st27" x1="853.3" y1="615.1" x2="853.8" y2="619"/>
			<line class="st27" x1="857.3" y1="614.7" x2="857.6" y2="618.7"/>
		</g>
	</g>
	<g id="BRACO_x5F_ESQ_1_">
		<g id="MAO_x5F_DIR">
			<path class="st8" d="M721.8,564.5c-0.1-0.1-0.1-0.3-0.1-0.3c-0.3-0.6-0.6-2.2,3.3-8.2c3.7-5.4,7.5-11,12-15.9
				c2.7-3.1,6.1-7.4,10.7-7.9c5-0.3,10.9,0.6,15.6,2c3.7,0.9,2.4,1.9,1.2,4.2c-2.1,4.1-4.3,9.5-8.8,11.2c-3.9,1.6-9.5,0.9-12.8,3.6
				c-2.4,1.7-2.4,2.8-3.5,4.4c-0.6,1-1.4,1.6-2.1,2.2c-5.7,4.8-5.5,5.8-7.7,6.5C726.4,567.2,723,566,721.8,564.5z"/>
			<path class="st3" d="M730.4,563c-0.1-1.1,0.3-2.5,0.6-3.2c1.4-3.8,3.5-7.5,6-10.5c1.9-2.1,6.9-6.3,8.6-2.5
				c0.6,1.2,0.3,2.8-0.3,4.1c-0.6,1.2-1.7,2.2-2.7,3c-1,0.9-2.1,1.2-3.3,2.2c-1.7,1.4-3.5,3.2-4.8,5.3c-0.3,0.8-0.8,1.4-1.4,2.1
				c-0.5,0.8-1.2,1.1-1.9,0.9C730.9,564.2,730.5,563.6,730.4,563z"/>
			<path class="st8" d="M697.5,578.9c-0.1-0.1-0.1-0.1-0.3-0.3c-0.1-0.1-13.4-8.2-13.2-10.6c0.3-3.1,23-3.3,26.6-3.3
				c2.1,0,9-0.1,16-2.5c2.1-0.8,4.8-1.9,7.7-4.2c1.6-1.4,2.6-2.7,4.1-4.4c2.6-3.1,5.2-6.8,7.7-11.1c1.1-1.1,7.1-6.3,15.6-9.8
				c15.1-6.3,38.2-6.9,47.9,5.4c2.8,3.8,6,10.7,3.7,15.6c-2.5,5-7.1,3.6-13.1,10.6c-4.8,5.5-2.6,7.9-7.5,12.7
				c-7.1,6.9-17.8,7.3-27.1,8.4c-11.7,1.4-23.4,2.8-35.3,3.1C718.2,588.6,706.6,587.4,697.5,578.9z"/>
			<path class="st28" d="M568.6,495.5"/>
			<path class="st3" d="M767.1,539c-0.1,6.9-0.3,15.6,7.5,23.3c5.7,5.5,18.1,12.8,28.1,9.9c11.2-3.2,13.9-17.8,10.4-27.5
				c-5.8-15.9-30.8-26.8-40.3-22.5C767.4,524.4,767.2,531.2,767.1,539z"/>
		</g>
		<path class="st2" d="M945,411.5c6.1,2.4,12.1,5.7,16.9,9.3c16.4,12.3,24.1,32.1,28.1,51.6c0.9,3.9,0.8,8.4-1,12.1
			c-3,6.3-9.5,7.1-14.9,10.4c-17.8,10.4-36.1,19.8-54.3,29.3c-16.5,8.6-33.2,17.2-49.7,25.7c-8.4,4.3-19.1,8.4-26.3,14.9
			c-1.1,1-6,5.5-13.3,8.6c-3.1,1.4-6,2-9.9,2.7c-3,0.6-6,0.9-9.5,0.9c-3.8-0.1-7.5-1.1-11.2-2.7c-20.9-9-38.2-37.6-31.5-52
			c2.6-5.5,7.9-7.1,18.7-11.5c0,0,29.2-9.4,70.2-34.5c12.6-7.7,23-18.1,32-29.6c8.2-10.4,13.8-24.3,24.4-32.4
			C923,407.1,934.4,407.6,945,411.5z"/>
	</g>
	<g>
		
			<rect x="766.6" y="598.4" transform="matrix(0.9848 -0.1737 0.1737 0.9848 -92.214 149.4374)" class="st29" width="82.2" height="6.3"/>
		<g>
			
				<rect x="765.5" y="601.7" transform="matrix(0.9848 -0.1737 0.1737 0.9848 -93.408 144.8987)" class="st29" width="31.2" height="8.8"/>
			
				<rect x="765.5" y="601.7" transform="matrix(0.9848 -0.1737 0.1737 0.9848 -93.408 144.8987)" class="st30" width="31.2" height="8.8"/>
		</g>
	</g>
	<g>
		<path class="st24" d="M925.8,588.8l-0.1,0.8c0.1-0.3,0.1-0.5,0.3-0.8H925.8z"/>
		<path class="st31" d="M925.8,588.8l-0.1,0.8c0.1-0.3,0.1-0.5,0.3-0.8H925.8z"/>
		<path class="st24" d="M925.5,588.7h0.3l0.3-1.7C925.9,587.6,925.6,588.2,925.5,588.7z"/>
		<ellipse class="st32" cx="904.8" cy="558.6" rx="29.6" ry="18.9"/>
		<path class="st32" d="M899.5,541.4c15.1-1.1,30.4,4.6,33.9,12.7c0.9,2,1,3.8,0.3,5.7l3.1,0.5c0.3-0.6,0.5-1.1,0.6-1.7l-0.3,1.7
			h0.1c0-0.1,0.1-0.3,0.1-0.5l0,0c0.1-0.5,0.3-1,0.3-1.4c0.1-1.4-0.1-3-0.8-4.4c-3.9-9.3-21.1-15.6-38.2-14.3
			c-12.3,1-21.4,5.7-23.9,11.7l3.6,0.5C880.7,546.4,888.6,542.2,899.5,541.4z"/>
		<path class="st31" d="M937,553.8c-3.9-9.3-21.1-15.6-38.2-14.3c-12.3,1-21.4,5.7-23.9,11.7l3.6,0.5c2.4-5.3,10.2-9.5,21.2-10.2
			c15.1-1.1,30.4,4.6,33.9,12.7c0.9,2,1,3.8,0.3,5.7l3.1,0.5h0.3h0.1c0-0.1,0.1-0.3,0.1-0.5l0,0c0.1-0.5,0.3-1,0.3-1.4
			C937.9,556.8,937.6,555.3,937,553.8z"/>
		<g>
			
				<rect x="877.1" y="559" transform="matrix(0.1639 -0.9865 0.9865 0.1639 215.7451 1379.4161)" class="st33" width="89.1" height="6.9"/>
			<g>
				
					<rect x="909.6" y="528.8" transform="matrix(0.1639 -0.9865 0.9865 0.1639 248.3565 1360.0668)" class="st33" width="33.8" height="9.5"/>
				
					<rect x="909.6" y="528.8" transform="matrix(0.1639 -0.9865 0.9865 0.1639 248.3565 1360.0668)" class="st30" width="33.8" height="9.5"/>
			</g>
		</g>
		<g>
			
				<rect x="891.3" y="513.1" transform="matrix(0.9897 -0.1435 0.1435 0.9897 -70.7577 134.153)" class="st23" width="6.9" height="89.1"/>
			<g>
				
					<rect x="885.7" y="511.7" transform="matrix(0.9897 -0.1435 0.1435 0.9897 -66.6341 133.248)" class="st23" width="9.5" height="33.8"/>
				
					<rect x="885.7" y="511.7" transform="matrix(0.9897 -0.1435 0.1435 0.9897 -66.6341 133.248)" class="st30" width="9.5" height="33.8"/>
			</g>
		</g>
		<g>
			<path class="st34" d="M910,606.4L910,606.4c-1.1,0-2-1.6-2.2-3.7c-2.6-26.5-7.3-82.5,0.3-89.6c1.1-1.1,2.5-1.1,3.7,0
				c7.7,7.1,3,63.1,0.3,89.6C912,604.9,911.1,606.4,910,606.4z"/>
			<path d="M905,506.9c-0.1,1.1-0.9,7.7,3.1,9.8c2.6,1.2,6.3,0,8.2-2.4c2-2.5,1.6-5.5,1.4-6.1c-0.3-2.2-1.4-3.2-2.4-5
				c-1-2-1.7-5-0.8-9.8C913.1,494.4,905.8,499.1,905,506.9z"/>
		</g>
		<g>
			<g>
				<g>
					<g>
						
							<rect x="896.3" y="526.6" transform="matrix(0.9992 -3.885346e-02 3.885346e-02 0.9992 -21.6036 35.4215)" class="st24" width="8.5" height="93.8"/>
					</g>
				</g>
				<g>
					<g>
						
							<rect x="903.5" y="526.6" transform="matrix(0.9992 -3.885346e-02 3.885346e-02 0.9992 -21.5979 35.5487)" class="st35" width="0.6" height="93.8"/>
					</g>
					<g>
						
							<rect x="901.5" y="526.6" transform="matrix(0.9992 -3.885346e-02 3.885346e-02 0.9992 -21.6027 35.4727)" class="st35" width="0.6" height="93.8"/>
					</g>
					<g>
						
							<rect x="899.5" y="526.7" transform="matrix(0.9992 -3.885346e-02 3.885346e-02 0.9992 -21.6074 35.3934)" class="st35" width="0.6" height="93.8"/>
					</g>
					<g>
						
							<rect x="897.5" y="526.7" transform="matrix(0.9992 -3.885346e-02 3.885346e-02 0.9992 -21.6091 35.3142)" class="st35" width="0.6" height="93.8"/>
					</g>
				</g>
			</g>
			<g>
				<g>
					<polygon class="st36" points="903,526.6 900.1,518.6 897,518.7 894.6,527.1 					"/>
				</g>
				<g>
					<polygon points="898.4,513.7 897,518.7 900.1,518.6 					"/>
				</g>
			</g>
		</g>
		<g>
			<path class="st32" d="M874.4,555.9c0.1,0.3,0.3,0.9,0.5,1.2c1.7,4.2,6.3,7.7,12.2,10.2c7.3,3.1,16.7,4.8,26.1,4.1
				c4.3-0.3,8.2-1.1,11.7-2.4c6-2.1,10.4-5.3,12.1-9l-3.1-0.5c-1.7,5.7-9.9,10.4-21.6,11.2c-15.1,1.1-30.4-4.6-33.9-12.7
				c-1-2.4-1-4.6,0-6.5l-3.6-0.5c-0.9,2-1,3.9-0.3,6.1c0.1,0.3,0.3,0.8,0.3,1.1l0,0L874.4,555.9z"/>
			<path class="st32" d="M936.9,560.2c-1.7,3.7-6,6.9-12.1,9c-3.5,1.1-7.3,2-11.7,2.4c-9.5,0.8-18.9-0.9-26.1-4.1
				c-6-2.6-10.4-6.1-12.2-10.2c-0.1-0.3-0.3-0.9-0.5-1.2l0.3,2.4l0,0c0,0,0,0.1,0.1,0.1c3.9,9.3,21.1,15.6,38.2,14.3
				c12.4-1,21.6-5.7,24.1-11.7l0,0l0.1-0.8L936.9,560.2z"/>
			<path class="st31" d="M936.9,560.2l-3.1-0.5c-1.7,5.7-9.9,10.4-21.6,11.2c-15.1,1.1-30.4-4.6-33.9-12.7c-1-2.4-1-4.6,0-6.5
				l-3.6-0.5c-0.9,2-1,3.9-0.3,6.1c0.1,0.3,0.3,0.8,0.3,1.1c0,0,0,0.1,0.1,0.1c3.9,9.3,21.1,15.6,38.2,14.3
				c12.4-1,21.6-5.7,24.1-11.7l0,0l0.1-0.8L936.9,560.2z"/>
			<path class="st13" d="M928.3,589.4c-3.8,2.5-9.4,4.2-16,4.7c-11.1,0.9-22.3-2-28.8-6.8c-2.4-1.7-4.1-3.7-5-6l1.4,9l2.1,13.7
				c6.1,5.5,18.3,8.8,30.4,8c2-0.1,3.7-0.3,5.4-0.8c5.2-1,9.4-2.8,12.2-5.2l2.1-13.2l1.4-9.4C932.7,585.8,930.8,587.9,928.3,589.4z"
				/>
			<path class="st32" d="M882,604.2l1.7,11.2l0.6,3.6c2.8,6.4,14.7,10.7,26.6,9.9c8.8-0.8,15.3-4.2,16.9-8.5l0.3-2.1l1.9-11.8
				c-2.8,2.4-7.1,4.2-12.2,5.2c-1.7,0.3-3.6,0.6-5.4,0.8C900.3,613.1,888.2,609.6,882,604.2z"/>
			<path class="st32" d="M913.1,572.8c-17.2,1.4-34.3-5-38.2-14.3c0,0,0-0.1-0.1-0.1l3,18.7l0.8,4.4c1,2.2,2.7,4.2,5,6
				c6.5,4.8,17.6,7.7,28.8,6.8c6.6-0.5,12.2-2.2,16-4.7c2.6-1.6,4.3-3.6,5.2-5.7l0.6-3.7l3-19C934.7,567.1,925.6,571.9,913.1,572.8z
				"/>
		</g>
		<path class="st32" d="M876.5,553.2"/>
	</g>
	<path class="st6" d="M670.4,458.3c-2.4,1.6-5.3,3.7-9,6.1c-12.7,8.8-13.5,9-14.2,8.6c-2.5-1.4-0.5-9.9,11.1-50.5
		c2.6-9,4.3-15.1,6.3-24.3c2.4-11.3,3.5-19.8,4.3-25.4c-0.3,9.9-1.1,19.8-1.4,29.7c-0.3,8.8-0.3,17.6,0.3,29.3
		C668.3,442.7,669.4,451.6,670.4,458.3z"/>
</g>
</svg>
