<?xml version="1.0" encoding="utf-8"?>
<!-- Generator: Adobe Illustrator 22.0.1, SVG Export Plug-In . SVG Version: 6.00 Build 0)  -->
<svg version="1.1" id="Camada_1" xmlns="http://www.w3.org/2000/svg" xmlns:xlink="http://www.w3.org/1999/xlink" x="0px" y="0px"
	 viewBox="0 0 1366 768" style="enable-background:new 0 0 1366 768;" xml:space="preserve">
<style type="text/css">
	.st0{fill:#E3FBF6;}
	.st1{fill:#61EBCA;}
</style>
<g id="Camada_24">
	<g>
		<path class="st0" d="M211.3,410.2"/>
		<g>
			<path class="st1" d="M160.3,600.2c-1.2-2.4-1.2-4.9-2.4-7.3c-19.5-19.5-29.2-43.8-43.8-66.9c-1.2-3.6-3.6-7.3-3.6-11
				c0-6.1,6.1-9.7,11-7.3c4.9,3.6,8.5,7.3,12.1,12.1c4.9,3.6,11,8.5,18.2,4.9c-1.2-8.5-7.3-14.6-12.1-21.9
				c-7.3-8.5-17-14.6-24.3-23.1c-2.4-3.6-6.1-7.3-3.6-13.4c13.4-6.1,25.6,4.9,39,6.1c2.4,0,4.9-2.4,4.9-3.6
				c-12.1-19.5-34.1-25.6-52.3-37.7c-2.4-2.4-7.3-6.1-2.4-8.5c12.1-4.9,24.3-2.4,36.5,1.2c0,0,1.2-1.2,2.4-1.2
				c-1.2-1.2-1.2-2.4-1.2-3.6c-12.2-13.5-35.3-28.1-22-47.5c19.5-26.7,53.6-18.2,76.7-1.2c13.4,11,17,26.7,18.2,42.6
				c0,6.1,4.9,9.7,11,8.5s8.5-7.3,14.6-8.5c7.3,6.1,4.9,17,1.2,25.6c0,1.2,0,2.4,0,3.6c-4.9,12.1-9.7,23.1-17,32.8
				c3.6,2.4-4.9,4.9,4.9,6.1c2.4,0,3.6-3.6,6.1-4.9c1.2-1.2,3.6,0,4.9-1.2c9.7-7.3,20.7-8.5,31.6-7.3c3.6,1.2,4.9,7.3,3.6,11
				c-8.5,29.2-36.5,42.6-55.9,64.4c-1.2,2.4-4.9,9.7,1.2,8.5c14.6,0,28-9.7,42.6-6.1c4.9,1.2,2.4,8.5,0,12.1
				c-17,21.9-40.1,32.8-57.2,53.6l1.2,2.4c1.2,0,3.6,0,4.9,0c15.8-7.3,32.8-13.4,49.8-19.5c2.4,0,6.1,1.2,8.5,2.4
				c7.3,8.5,1.2,20.7-4.9,29.2c-9.7,11-19.5,19.5-28,30.4c11,3.6,19.5-7.3,28-12.1c4.9-2.4,11-1.2,15.8,1.2s7.3,8.5,4.9,13.4
				c-14.6,23.1-32.8,42.6-40.1,68.1c-36.5-11-69.3-29.2-97.3-54.7c-6.1-7.3-14.6-13.4-17-23.1c-1.2-7.3,6.1-9.7,11-9.7
				c9.7,2.4,14.6,9.7,21.9,15.8c1.2,1.2,2.4,2.4,3.6,1.2c1.2-2.4-1.2-4.9-2.4-6.1c-11-9.7-20.7-18.2-30.4-29.2
				c-8.5-9.7-14.6-20.7-17-34.1c-1.2-6.1-2.4-15.8,6.1-18.2c17,4.9,24.3,21.9,36.5,34.1h2.4C160.3,602.6,160.3,601.4,160.3,600.2
				L160.3,600.2z"/>
		</g>
	</g>
	<g>
		<g>
			<path class="st1" d="M1087.1,579.5c0-1.2,1.2-3.6,1.2-4.9c-8.5-30.4-6.1-59.6-6.1-90c0-2.4,1.2-4.9,3.6-7.3c3.6-2.4,8.5,0,11,2.4
				c4.9,9.7,4.9,24.3,15.8,29.2c1.2,0,2.4-1.2,2.4-1.2c3.6-8.5,0-15.8-1.2-24.3c-2.4-14.6-14.6-30.4-7.3-45c7.3-1.2,11,3.6,15.8,7.3
				c4.9,6.1,11,11,17,17c1.2,0,3.6,0,4.9,0c3.6-3.6,0-7.3-1.2-11c-4.9-13.4-12.1-25.6-19.5-37.7c-3.6-4.9-11-12.1-7.3-18.2
				c13.4,0,24.3,8.5,34.1,17h2.4c0-2.4,0-3.6,0-6.1c-6.1-15.8-14.6-41.3,6.1-49.8c28-11,55.9,12.1,66.9,37.7
				c6.1,15.8,1.2,31.6-3.6,46.2c-4.9,13.4,13.4,9.7,21.9,11c2.4,1.2,1.2,4.9,1.2,7.3c-6.1,13.4-17,23.1-29.2,29.2
				c-6.1,3.6-11,7.3-17,11c-1.2,1.2-3.6,3.6,2.4,7.3c15.8-3.6,32.8-1.2,45,9.7c1.2,6.1-2.4,11-7.3,14.6
				c-23.1,15.8-47.5,17-72.9,23.1c-3.6,1.2-6.1,3.6-8.5,6.1c-1.2,1.2,0,3.6,2.4,4.9c11,3.6,23.1,4.9,34.1,8.5
				c3.6,1.2,7.3,3.6,7.3,8.5c-1.2,8.5-11,9.7-18.2,12.1c-20.7,6.1-41.3,7.3-62.1,13.4c-1.2,0-2.4,2.4-2.4,3.6c0,1.2,1.2,2.4,1.2,2.4
				c18.2,1.2,35.2,3.6,53.6,6.1c2.4,1.2,6.1,2.4,7.3,4.9c7.3,14.6-11,23.1-21.9,28c-11,3.6-21.9,4.9-32.8,11c-1.2,1.2,0,2.4,1.2,3.6
				c11,3.6,20.7-2.4,31.6,0c8.5,2.4,13.4,11,11,18.2c-1.2,6.1-7.3,7.3-12.1,8.5c-1.2,0-1.2,2.4-2.4,2.4
				c-12.1,3.6-21.9,9.7-32.8,15.8c-1.2,1.2-2.4,2.4-3.6,3.6c-7.3,3.6-12.1,11-19.5,14.6c-6.1-4.9-9.7-11-14.6-15.8
				c-2.4-3.6-4.9-7.3-8.5-11c-15.8-23.1-28-45-36.5-70.6c-2.4-9.7-8.5-23.1,1.2-30.4c15.8-1.2,15.8,17,23.1,28
				c1.2,1.2,2.4,0,2.4-1.2c-7.3-20.7-15.8-40.1-14.6-62.1c0-3.6-1.2-8.5,0-12.1c2.4-4.9,1.2-11,4.9-15.8c2.4-1.2,2.4-4.9,4.9-6.1
				c3.6-1.2,8.5,0,11,3.6c6.1,13.4,6.1,28,11,41.3c0,1.2,0,2.4,2.4,2.4L1087.1,579.5L1087.1,579.5z"/>
		</g>
	</g>
</g>
</svg>
